<svg width="432" height="448" viewBox="0 0 432 448" fill="none" xmlns="http://www.w3.org/2000/svg">
<path d="M216 68.442C215.575 68.442 215.23 68.097 215.23 67.672V0.973003C215.23 0.548003 215.575 0.203003 216 0.203003C216.425 0.203003 216.77 0.548003 216.77 0.973003V67.672C216.77 68.097 216.425 68.442 216 68.442Z" fill="#2D3962"/>
<path d="M255.219 95.132C255.219 73.472 237.66 55.913 216 55.913C194.34 55.913 176.781 73.472 176.781 95.132H255.219Z" fill="#F4B04E"/>
<mask id="mask0_133_2145" style="mask-type:luminance" maskUnits="userSpaceOnUse" x="176" y="55" width="80" height="41">
<path d="M255.219 95.132C255.219 73.472 237.66 55.913 216 55.913C194.34 55.913 176.781 73.472 176.781 95.132H255.219Z" fill="white"/>
</mask>
<g mask="url(#mask0_133_2145)">
<g opacity="0.47">
<path d="M244.357 58.6489C238.034 63.6109 229.18 65.1489 221.554 62.6099C219.595 61.9579 217.679 61.0489 215.619 60.9139C210.766 60.5959 206.641 64.5609 201.83 65.2689C196.299 66.0839 191.169 62.5319 186.707 59.1629C186.707 59.1629 201.904 44.6789 217.252 47.6739C232.6 50.6689 244.357 58.6489 244.357 58.6489Z" fill="white"/>
</g>
</g>
<mask id="mask1_133_2145" style="mask-type:luminance" maskUnits="userSpaceOnUse" x="176" y="55" width="80" height="41">
<path d="M255.219 95.132C255.219 73.472 237.66 55.913 216 55.913C194.34 55.913 176.781 73.472 176.781 95.132H255.219Z" fill="white"/>
</mask>
<g mask="url(#mask1_133_2145)">
<g opacity="0.52">
<path d="M171.114 81.7061C179.867 77.7851 190.162 77.4441 199.156 80.7771C204.101 82.6101 208.858 85.5411 214.133 85.5271C218.849 85.5141 223.213 83.1281 227.844 82.2401C231.891 81.4641 236.157 81.8641 239.989 83.3791C241.64 84.0321 243.229 84.8911 244.973 85.2241C247.734 85.7521 250.553 84.9081 253.361 84.7851C257.854 84.5881 262.399 86.3401 265.596 89.5041L264.375 106.2L170.349 100.611L171.114 81.7061Z" fill="#D89741"/>
</g>
</g>
<g opacity="0.15">
<path d="M176.428 95.395L57.3361 447.141H380.625L254.866 95.395H176.428Z" fill="#F4CE2C"/>
</g>
<path d="M144.217 354.061C147.432 354.073 150.175 351.725 150.644 348.544C152.263 337.552 151.68 298.288 142.531 293.127C125.42 283.475 113.135 290.495 102.605 283.036C92.075 275.577 95.871 240.725 78.035 236.529C48.2 229.509 20.821 239.03 20.821 239.03L19.004 283.929L41.619 353.675L144.217 354.061Z" fill="#56B2A1"/>
<path d="M93.526 261.892C93.526 261.892 89.164 308.56 100.456 312.252C112.468 316.179 147.933 309.197 150.837 327.037C150.837 327.037 154.137 303.381 147.12 296.082C133.703 282.126 110.298 288.995 104.904 284.016C99.511 279.037 93.526 261.892 93.526 261.892Z" fill="#2D3962"/>
<path d="M146.098 445.554L88.1271 413.803V361.049H127.536C132.183 361.049 135.951 357.282 135.951 352.634H42.0581C42.0581 357.282 45.8251 361.049 50.4731 361.049H83.3001V414.189L26.0341 445.554L35.8841 445.346L83.3001 430.465V445.455H88.1261V430.244L136.247 445.346L146.098 445.554Z" fill="#2D3962"/>
<path d="M206.515 420.005L197.636 406.158L185.332 414.423L195.874 429.793L206.515 420.005Z" fill="#FFCEAB"/>
<path d="M203.002 413.658L190.512 422.039L194.653 428.184L206.228 419.287L203.002 413.658Z" fill="white"/>
<path d="M233.101 414.801C224.781 417.81 211.545 422.866 211.545 422.866L207.297 417.904L193.22 427.632C193.22 427.632 200.812 441.722 201.636 442.987C202.46 444.252 204.266 447.488 206.474 446.15C212.102 442.737 244.093 421.061 249.036 416.128C250.283 414.884 248.038 411.875 244.116 411.601C240.492 411.348 235.406 413.967 233.101 414.801Z" fill="#459687"/>
<path d="M212.787 432.024C212.055 432.024 211.426 431.609 210.994 430.832C210.314 429.607 210.059 423.478 210.174 422.109C210.193 421.879 210.345 421.68 210.563 421.602C210.779 421.525 211.023 421.579 211.186 421.744C212.392 422.97 215.042 427.333 214.887 429.927C214.817 431.105 214.176 431.842 213.084 432.003C212.983 432.017 212.884 432.024 212.787 432.024ZM211.336 423.873C211.394 426.176 211.687 429.639 212.029 430.256C212.391 430.907 212.756 430.853 212.911 430.83C213.296 430.773 213.659 430.616 213.705 429.855C213.799 428.277 212.461 425.581 211.336 423.873Z" fill="#2D3962"/>
<path d="M217.06 429.088C216.749 429.088 216.391 429.015 215.985 428.824C214.717 428.226 210.93 423.401 210.225 422.223C210.106 422.025 210.114 421.775 210.244 421.584C210.375 421.394 210.604 421.302 210.833 421.334C212.528 421.625 217.226 423.618 218.616 425.814C219.247 426.811 219.158 427.783 218.365 428.551C218.123 428.787 217.689 429.088 217.06 429.088ZM212.198 422.977C213.59 424.813 215.851 427.453 216.488 427.753C217.163 428.07 217.428 427.814 217.539 427.702C217.818 427.431 218.021 427.092 217.614 426.448C216.769 425.113 214.108 423.705 212.198 422.977Z" fill="#2D3962"/>
<path d="M203.323 445.443C203.135 445.443 202.95 445.354 202.835 445.187C202.649 444.919 202.717 444.549 202.986 444.364L247.989 413.316C248.26 413.128 248.627 413.199 248.812 413.467C248.998 413.736 248.93 414.105 248.661 414.29L203.659 445.338C203.556 445.409 203.439 445.443 203.323 445.443Z" fill="#2D3962"/>
<path d="M225 421.697C224.677 421.697 224.413 421.438 224.408 421.114C224.362 417.949 225.074 416.653 225.155 416.515C225.322 416.234 225.683 416.141 225.966 416.307C226.245 416.473 226.339 416.832 226.177 417.113C226.161 417.141 225.55 418.286 225.591 421.096C225.596 421.423 225.335 421.692 225.008 421.697C225.005 421.697 225.003 421.697 225 421.697Z" fill="#2D3962"/>
<path d="M221.53 423.082C221.207 423.082 220.943 422.823 220.938 422.499C220.892 419.332 221.604 418.037 221.686 417.9C221.852 417.619 222.213 417.523 222.497 417.693C222.776 417.858 222.87 418.217 222.708 418.499C222.69 418.53 222.081 419.675 222.122 422.482C222.127 422.809 221.866 423.078 221.539 423.082C221.536 423.082 221.533 423.082 221.53 423.082Z" fill="#2D3962"/>
<path d="M218.313 424.184C217.99 424.184 217.726 423.925 217.721 423.601C217.674 420.436 218.386 419.14 218.467 419.002C218.634 418.721 218.995 418.628 219.278 418.794C219.557 418.96 219.651 419.319 219.489 419.6C219.476 419.624 218.862 420.768 218.904 423.583C218.909 423.91 218.648 424.179 218.321 424.184C218.319 424.184 218.316 424.184 218.313 424.184Z" fill="#2D3962"/>
<path d="M104.037 290.834C123.642 308.913 145.011 320.439 163.479 342.871C181.947 365.303 189.91 385.509 202.641 407.886C197.14 411.975 186.387 420.803 182.213 419.696C179.559 418.992 149.182 381.388 130.593 362.03C120.654 351.681 92.4 348.283 76.582 340.567C63.592 334.23 56.45 322.571 61.466 285.919" fill="#AACBF2"/>
<path d="M206.941 307.46L198.414 304.868L175.875 446.384L182.172 446.621L206.941 307.46Z" fill="#2D3962"/>
<path d="M211.249 305.909H193.319V313.081H211.249V305.909Z" fill="#468E80"/>
<path d="M355.173 307.46L363.7 304.868L386.239 446.384L379.942 446.621L355.173 307.46Z" fill="#2D3962"/>
<path d="M350.865 313.081H368.795V305.909H350.865V313.081Z" fill="#468E80"/>
<path d="M371.282 299.684H190.282V309.253H371.282V299.684Z" fill="#56B2A1"/>
<path d="M206.005 282.734C206.005 282.734 212.282 273.298 210.539 265.741C209.622 261.767 206.438 259.001 203.613 256.312C200.07 252.939 199.016 251.018 198.861 245.977C198.795 243.825 198.628 241.595 197.588 239.709C196.549 237.824 194.401 236.384 192.294 236.826C190.385 237.226 189.028 239.065 188.663 240.981C188.297 242.897 188.743 244.872 189.33 246.732C190.588 250.719 192.546 254.555 195.34 257.688C197.867 260.521 202.164 262.554 203.916 265.965C207.921 273.762 206.005 282.734 206.005 282.734Z" fill="white"/>
<path d="M194.682 264.689C196.252 264.049 198.159 265.066 199.489 266.119C200.818 267.173 201.365 269.391 200.134 270.558C199.2 271.443 197.684 271.355 196.504 270.843C195.138 270.251 193.944 269.072 193.709 267.602C193.474 266.133 193.971 264.979 194.682 264.689Z" fill="white"/>
<path d="M204.759 248.299C206.372 247.454 209.525 248.466 209.231 250.645C209.117 251.485 208.454 252.201 207.648 252.464C206.842 252.727 205.93 252.565 205.21 252.118C204.549 251.707 204.027 251.041 203.888 250.276C203.708 249.284 204.108 248.64 204.759 248.299Z" fill="white"/>
<path d="M218.534 283.116C218.522 283.116 218.509 283.116 218.496 283.116C218.154 283.119 217.821 283.158 217.497 283.225L217.941 279.573L196.027 279.624L198.267 299.548C201.346 300.957 215.453 300.033 215.453 300.033L216.319 292.91C217.004 293.238 217.751 293.429 218.532 293.429C218.545 293.429 218.559 293.429 218.572 293.429C219.95 293.419 221.241 292.874 222.208 291.893C223.174 290.912 223.701 289.612 223.691 288.235C223.671 285.404 221.361 283.116 218.534 283.116ZM220.635 290.342C220.083 290.903 219.344 291.215 218.556 291.221C218.548 291.221 218.541 291.221 218.532 291.221C217.818 291.221 217.149 290.957 216.613 290.493L217.201 285.659C217.597 285.456 218.038 285.329 218.512 285.326C218.52 285.326 218.527 285.326 218.535 285.326C220.15 285.326 221.471 286.634 221.483 288.252C221.489 289.038 221.188 289.781 220.635 290.342Z" fill="#F4B04E"/>
<mask id="mask2_133_2145" style="mask-type:luminance" maskUnits="userSpaceOnUse" x="196" y="279" width="28" height="22">
<path d="M218.534 283.116C218.522 283.116 218.509 283.116 218.496 283.116C218.154 283.119 217.821 283.158 217.497 283.225L217.941 279.573L196.027 279.624L198.267 299.548C201.346 300.957 215.453 300.033 215.453 300.033L216.319 292.91C217.004 293.238 217.751 293.429 218.532 293.429C218.545 293.429 218.559 293.429 218.572 293.429C219.95 293.419 221.241 292.874 222.208 291.893C223.174 290.912 223.701 289.612 223.691 288.235C223.671 285.404 221.361 283.116 218.534 283.116ZM220.635 290.342C220.083 290.903 219.344 291.215 218.556 291.221C218.548 291.221 218.541 291.221 218.532 291.221C217.818 291.221 217.149 290.957 216.613 290.493L217.201 285.659C217.597 285.456 218.038 285.329 218.512 285.326C218.52 285.326 218.527 285.326 218.535 285.326C220.15 285.326 221.471 286.634 221.483 288.252C221.489 289.038 221.188 289.781 220.635 290.342Z" fill="white"/>
</mask>
<g mask="url(#mask2_133_2145)">
<g opacity="0.52">
<path d="M221.664 290.391C219.337 289.428 216.676 290.056 214.3 290.892C211.925 291.728 209.519 292.778 207.006 292.625C205.488 292.533 204.014 292.001 202.494 292.002C199.599 292.003 197.089 293.891 194.821 295.689C194.618 295.85 195.029 296.142 194.771 296.132L195.226 303.503L220.905 300.635L221.664 290.391Z" fill="#D89741"/>
</g>
</g>
<mask id="mask3_133_2145" style="mask-type:luminance" maskUnits="userSpaceOnUse" x="196" y="279" width="28" height="22">
<path d="M218.534 283.116C218.522 283.116 218.509 283.116 218.496 283.116C218.154 283.119 217.821 283.158 217.497 283.225L217.941 279.573L196.027 279.624L198.267 299.548C201.346 300.957 215.453 300.033 215.453 300.033L216.319 292.91C217.004 293.238 217.751 293.429 218.532 293.429C218.545 293.429 218.559 293.429 218.572 293.429C219.95 293.419 221.241 292.874 222.208 291.893C223.174 290.912 223.701 289.612 223.691 288.235C223.671 285.404 221.361 283.116 218.534 283.116ZM220.635 290.342C220.083 290.903 219.344 291.215 218.556 291.221C218.548 291.221 218.541 291.221 218.532 291.221C217.818 291.221 217.149 290.957 216.613 290.493L217.201 285.659C217.597 285.456 218.038 285.329 218.512 285.326C218.52 285.326 218.527 285.326 218.535 285.326C220.15 285.326 221.471 286.634 221.483 288.252C221.489 289.038 221.188 289.781 220.635 290.342Z" fill="white"/>
</mask>
<g mask="url(#mask3_133_2145)">
<g opacity="0.47">
<path d="M192.676 283.328C194.59 283.757 196.319 284.757 198.137 285.495C199.955 286.232 202.018 286.706 203.863 286.04C205.791 285.345 207.234 283.493 209.261 283.19C210.112 283.063 210.975 283.229 211.832 283.3C214.857 283.551 217.967 282.563 220.292 280.611L219.403 275.16L193.323 275.812L192.676 283.328Z" fill="white"/>
</g>
</g>
<path d="M311.32 279.459L316.859 299.634H265.035L284.024 294.492L278.881 279.854L311.32 279.459Z" fill="#2D3962"/>
<path d="M243.685 282.317H352.746C359.228 282.317 364.742 276.705 365.736 269.096L373.23 211.728C374.466 202.263 368.304 193.719 360.24 193.719H251.179C244.697 193.719 239.183 199.331 238.189 206.94L230.695 264.308C229.459 273.773 235.622 282.317 243.685 282.317Z" fill="#56B2A1"/>
<path d="M230.696 264.308C229.46 273.773 235.622 282.317 243.686 282.317H352.747C359.229 282.317 364.743 276.705 365.737 269.096L366.33 264.895L230.696 264.308Z" fill="#2D3962"/>
<path d="M269.136 253.557H325.364C328.706 253.557 331.549 250.664 332.061 246.741L335.925 217.164C336.562 212.284 333.385 207.879 329.228 207.879H273C269.658 207.879 266.815 210.772 266.303 214.695L262.439 244.272C261.801 249.152 264.979 253.557 269.136 253.557Z" fill="white"/>
<path d="M280.986 244.549H315.037C317.061 244.549 318.782 242.797 319.093 240.421L321.433 222.51C321.819 219.555 319.895 216.887 317.377 216.887H283.326C281.302 216.887 279.581 218.639 279.27 221.015L276.93 238.926C276.545 241.881 278.469 244.549 280.986 244.549Z" fill="#E8E8E8"/>
<path d="M321.395 222.02C321.781 219.065 319.894 216.887 317.377 216.887H283.326C281.302 216.887 279.657 218.337 279.111 221.884L321.395 222.02Z" fill="#56B2A1"/>
<mask id="mask4_133_2145" style="mask-type:luminance" maskUnits="userSpaceOnUse" x="276" y="216" width="46" height="29">
<path d="M280.986 244.549H315.037C317.061 244.549 318.782 242.797 319.093 240.421L321.433 222.51C321.819 219.555 319.895 216.887 317.377 216.887H283.326C281.302 216.887 279.581 218.639 279.27 221.015L276.93 238.926C276.545 241.881 278.469 244.549 280.986 244.549Z" fill="white"/>
</mask>
<g mask="url(#mask4_133_2145)">
<path d="M297.203 229.495C299.321 227.639 302.542 227.851 304.398 229.968C306.254 232.086 306.042 235.307 303.925 237.163C301.807 239.019 298.586 238.807 296.73 236.69C294.873 234.572 295.085 231.351 297.203 229.495Z" fill="#F4B04E"/>
</g>
<mask id="mask5_133_2145" style="mask-type:luminance" maskUnits="userSpaceOnUse" x="276" y="216" width="46" height="29">
<path d="M280.986 244.549H315.037C317.061 244.549 318.782 242.797 319.093 240.421L321.433 222.51C321.819 219.555 319.895 216.887 317.377 216.887H283.326C281.302 216.887 279.581 218.639 279.27 221.015L276.93 238.926C276.545 241.881 278.469 244.549 280.986 244.549Z" fill="white"/>
</mask>
<g mask="url(#mask5_133_2145)">
<path d="M316.97 245.846C315.897 240.742 310.706 228.698 309.735 227.57C306.239 230.982 303.85 233.441 300.524 236.843C298.749 234.728 292.123 224.756 291.917 224.792C291.658 224.837 279.047 244.385 278.624 245.639L316.97 245.846Z" fill="#2D3962"/>
</g>
<path d="M272.864 210.992C273.256 210.992 273.574 210.674 273.574 210.282C273.574 209.89 273.256 209.572 272.864 209.572C272.472 209.572 272.154 209.89 272.154 210.282C272.154 210.674 272.472 210.992 272.864 210.992Z" fill="#F4B04E"/>
<path d="M276.211 210.282C276.211 210.674 275.893 210.992 275.501 210.992C275.109 210.992 274.791 210.674 274.791 210.282C274.791 209.89 275.109 209.572 275.501 209.572C275.893 209.572 276.211 209.89 276.211 210.282Z" fill="#56B2A1"/>
<path d="M283.883 218.709C283.883 219.101 283.565 219.419 283.173 219.419C282.781 219.419 282.463 219.101 282.463 218.709C282.463 218.317 282.781 217.999 283.173 217.999C283.566 218 283.883 218.317 283.883 218.709Z" fill="#F4B04E"/>
<path d="M286.521 218.709C286.521 219.101 286.203 219.419 285.811 219.419C285.419 219.419 285.101 219.101 285.101 218.709C285.101 218.317 285.419 217.999 285.811 217.999C286.203 217.999 286.521 218.317 286.521 218.709Z" fill="white"/>
<path d="M301.369 275.148H288.457C287.628 275.148 286.956 274.476 286.956 273.647C286.956 272.818 287.628 272.146 288.457 272.146H301.369C302.198 272.146 302.87 272.818 302.87 273.647C302.871 274.475 302.198 275.148 301.369 275.148Z" fill="#56B2A1"/>
<path d="M21.3391 238.722C21.3391 238.722 19.0851 279.087 35.7681 283.036C52.4511 286.985 76.7991 282.597 83.5621 297.953C90.3251 313.309 89.4241 354.113 89.4241 354.113L42.5311 353.674C42.5311 353.674 10.4251 355.513 10.0671 319.452C9.79508 292.194 3.30308 249.691 21.3391 238.722Z" fill="#2D3962"/>
<path d="M296.525 80.799C296.187 80.799 295.914 80.525 295.914 80.187V73.81C295.914 73.472 296.187 73.198 296.525 73.198C296.863 73.198 297.136 73.472 297.136 73.81V80.187C297.136 80.525 296.863 80.799 296.525 80.799Z" fill="#2D3962"/>
<path d="M299.714 77.61H293.337C292.999 77.61 292.726 77.336 292.726 76.998C292.726 76.66 292.999 76.386 293.337 76.386H299.714C300.052 76.386 300.325 76.66 300.325 76.998C300.325 77.336 300.051 77.61 299.714 77.61Z" fill="#2D3962"/>
<path d="M116.987 117.121C115.724 117.121 114.697 116.093 114.697 114.83C114.697 113.567 115.725 112.54 116.987 112.54C118.249 112.54 119.278 113.568 119.278 114.83C119.278 116.093 118.25 117.121 116.987 117.121ZM116.987 113.763C116.399 113.763 115.92 114.242 115.92 114.83C115.92 115.418 116.399 115.897 116.987 115.897C117.575 115.897 118.054 115.418 118.054 114.83C118.054 114.242 117.576 113.763 116.987 113.763Z" fill="#2D3962"/>
<path d="M211.239 123.995C210.901 123.995 210.627 123.721 210.627 123.383V117.006C210.627 116.668 210.901 116.394 211.239 116.394C211.577 116.394 211.851 116.668 211.851 117.006V123.383C211.851 123.721 211.577 123.995 211.239 123.995Z" fill="#2D3962"/>
<path d="M214.428 120.807H208.051C207.713 120.807 207.439 120.533 207.439 120.195C207.439 119.857 207.713 119.583 208.051 119.583H214.428C214.766 119.583 215.04 119.857 215.04 120.195C215.04 120.533 214.766 120.807 214.428 120.807Z" fill="#2D3962"/>
<path d="M224.396 176.758C223.133 176.758 222.106 175.73 222.106 174.468C222.106 173.206 223.133 172.178 224.396 172.178C225.659 172.178 226.686 173.205 226.686 174.468C226.686 175.731 225.659 176.758 224.396 176.758ZM224.396 173.401C223.807 173.401 223.329 173.879 223.329 174.467C223.329 175.055 223.807 175.534 224.396 175.534C224.985 175.534 225.463 175.055 225.463 174.467C225.464 173.879 224.985 173.401 224.396 173.401Z" fill="#2D3962"/>
<path d="M173.027 184.359C172.689 184.359 172.415 184.085 172.415 183.747V177.37C172.415 177.032 172.689 176.758 173.027 176.758C173.365 176.758 173.639 177.032 173.639 177.37V183.747C173.639 184.085 173.365 184.359 173.027 184.359Z" fill="#2D3962"/>
<path d="M176.215 181.171H169.838C169.5 181.171 169.226 180.897 169.226 180.559C169.226 180.221 169.5 179.947 169.838 179.947H176.215C176.553 179.947 176.827 180.221 176.827 180.559C176.827 180.897 176.553 181.171 176.215 181.171Z" fill="#2D3962"/>
<path d="M160.162 254.425C158.899 254.425 157.871 253.398 157.871 252.135C157.871 250.872 158.899 249.845 160.162 249.845C161.425 249.845 162.452 250.873 162.452 252.135C162.452 253.397 161.424 254.425 160.162 254.425ZM160.162 251.068C159.574 251.068 159.095 251.547 159.095 252.135C159.095 252.724 159.574 253.202 160.162 253.202C160.75 253.202 161.228 252.723 161.228 252.135C161.228 251.546 160.75 251.068 160.162 251.068Z" fill="#2D3962"/>
<path d="M141.565 72.253C141.227 72.253 140.953 71.979 140.953 71.641V65.264C140.953 64.926 141.227 64.652 141.565 64.652C141.903 64.652 142.177 64.926 142.177 65.264V71.641C142.177 71.979 141.903 72.253 141.565 72.253Z" fill="#2D3962"/>
<path d="M144.754 69.064H138.377C138.039 69.064 137.765 68.79 137.765 68.452C137.765 68.114 138.039 67.84 138.377 67.84H144.754C145.092 67.84 145.366 68.114 145.366 68.452C145.366 68.79 145.091 69.064 144.754 69.064Z" fill="#2D3962"/>
<path d="M371.171 123.039C369.908 123.039 368.881 122.011 368.881 120.748C368.881 119.485 369.908 118.458 371.171 118.458C372.434 118.458 373.46 119.485 373.46 120.748C373.461 122.011 372.434 123.039 371.171 123.039ZM371.171 119.682C370.582 119.682 370.104 120.16 370.104 120.748C370.104 121.336 370.583 121.815 371.171 121.815C371.759 121.815 372.237 121.336 372.237 120.748C372.238 120.16 371.759 119.682 371.171 119.682Z" fill="#2D3962"/>
<path d="M179.402 408.169L180.42 391.752L165.61 391.149L165.034 409.78L179.402 408.169Z" fill="#FFCEAB"/>
<path d="M180.318 400.974L165.29 400.355L165 407.759L179.594 407.421L180.318 400.974Z" fill="white"/>
<path d="M203.925 419.681C195.435 417.192 181.769 413.451 181.769 413.451L181.274 406.937L164.17 406.467C164.17 406.467 161.969 422.32 161.886 423.828C161.803 425.335 161.348 429.013 163.92 429.238C170.477 429.811 209.094 431.226 215.997 430.167C217.738 429.9 217.705 426.146 214.702 423.608C211.928 421.262 206.278 420.37 203.925 419.681Z" fill="#56B2A1"/>
<path d="M178.638 422.003C178.305 422.003 177.96 421.912 177.612 421.729C176.846 421.326 176.493 420.551 176.618 419.55C176.793 418.16 180.208 413.065 181.11 412.029C181.262 411.855 181.504 411.788 181.723 411.849C181.945 411.914 182.109 412.103 182.142 412.331C182.391 414.033 181.951 419.118 180.293 421.12C179.809 421.705 179.241 422.003 178.638 422.003ZM181.004 414.14C179.69 416.031 177.881 418.998 177.793 419.699C177.7 420.437 178.026 420.609 178.165 420.682C178.512 420.864 178.896 420.953 179.382 420.366C180.39 419.148 180.904 416.182 181.004 414.14Z" fill="#2D3962"/>
<path d="M183.63 422.087C182.89 422.087 182.259 421.666 181.83 420.879C181.161 419.649 180.956 413.518 181.083 412.15C181.104 411.92 181.258 411.723 181.476 411.646C181.692 411.57 181.937 411.626 182.098 411.793C183.294 413.029 185.907 417.414 185.73 420.007C185.649 421.184 185.003 421.915 183.909 422.068C183.815 422.081 183.722 422.087 183.63 422.087ZM182.23 413.925C182.269 416.228 182.533 419.694 182.87 420.313C183.226 420.967 183.591 420.916 183.747 420.895C184.132 420.841 184.496 420.687 184.548 419.927C184.656 418.349 183.341 415.642 182.23 413.925Z" fill="#2D3962"/>
<path d="M216.797 428.463C216.791 428.463 216.785 428.463 216.78 428.463L162.128 426.92C161.801 426.911 161.543 426.639 161.553 426.312C161.562 425.985 161.875 425.733 162.161 425.737L216.813 427.28C217.14 427.289 217.397 427.561 217.389 427.888C217.379 428.209 217.116 428.463 216.797 428.463Z" fill="#2D3962"/>
<path d="M193.664 420.572C193.545 420.572 193.426 420.537 193.322 420.463C193.055 420.275 192.993 419.904 193.182 419.638C195.015 417.056 196.356 416.432 196.503 416.368C196.804 416.239 197.152 416.381 197.28 416.681C197.408 416.98 197.271 417.326 196.974 417.455C196.938 417.472 195.77 418.038 194.148 420.323C194.032 420.485 193.85 420.572 193.664 420.572Z" fill="#2D3962"/>
<path d="M190.046 419.639C189.927 419.639 189.808 419.604 189.704 419.53C189.437 419.341 189.375 418.971 189.564 418.705C191.397 416.123 192.738 415.499 192.885 415.437C193.186 415.307 193.533 415.45 193.661 415.75C193.788 416.049 193.651 416.395 193.355 416.524C193.322 416.54 192.154 417.103 190.529 419.391C190.414 419.552 190.231 419.639 190.046 419.639Z" fill="#2D3962"/>
<path d="M186.799 418.627C186.68 418.627 186.561 418.592 186.457 418.518C186.19 418.329 186.128 417.959 186.317 417.693C188.15 415.111 189.491 414.487 189.638 414.423C189.938 414.293 190.286 414.436 190.415 414.736C190.542 415.035 190.406 415.381 190.109 415.51C190.074 415.527 188.906 416.092 187.283 418.378C187.167 418.54 186.984 418.627 186.799 418.627Z" fill="#2D3962"/>
<path d="M104.559 291.896C106.217 292.963 122.533 294.591 145.572 299.037C167.563 303.281 180.182 304.488 189.94 314.855C196.113 321.414 190.815 375.135 184.256 396.354C173.387 395.026 172.442 395.407 161.493 395.582C161.623 376.752 163.007 340.552 161.004 338.003C158.975 335.421 159.743 336.766 156.679 335.584L104.559 291.896Z" fill="#9BBBEA"/>
<path d="M162.233 354.68C161.949 354.68 161.718 354.452 161.716 354.167L161.517 331.849C161.515 331.563 161.744 331.329 162.03 331.327H162.034C162.318 331.327 162.549 331.555 162.552 331.84L162.751 354.158C162.754 354.444 162.524 354.678 162.238 354.68C162.236 354.68 162.235 354.68 162.233 354.68Z" fill="#2D3962"/>
<path d="M390.13 395.862C385.386 397.304 379.95 397.057 375.283 395.295C356.749 388.298 355.23 367.901 358.325 352.312C360.4 341.86 364.058 331.64 364.884 321.044C366.15 304.809 360.987 287.177 369.741 273.014C371.583 270.033 374.185 267.223 377.73 266.133C382.947 264.529 388.872 267.234 392.016 271.371C395.161 275.508 396.041 280.734 396.248 285.772C396.713 297.087 394.225 308.403 395.081 319.699C396.178 334.18 403.735 347.809 404.639 362.303C405.248 372.083 404.907 385.51 396.304 392.615C394.511 394.097 392.4 395.173 390.13 395.862Z" fill="#97DDCF"/>
<path d="M380.925 403.017C380.542 403.017 380.23 402.708 380.226 402.325L379.339 305.089C379.336 304.702 379.646 304.387 380.031 304.383C380.034 304.383 380.036 304.383 380.038 304.383C380.421 304.383 380.733 304.692 380.737 305.075L381.624 402.311C381.627 402.698 381.317 403.013 380.932 403.017C380.929 403.017 380.927 403.017 380.925 403.017Z" fill="#2D3962"/>
<path d="M393.592 398.084C389.407 398.317 385.048 397.187 381.661 395.075C368.21 386.686 371.656 371.398 377.747 360.457C381.83 353.121 387.147 346.232 390.248 338.573C395.001 326.837 394.852 312.95 405.213 304.046C407.394 302.172 410.151 300.557 413.281 300.373C417.887 300.102 422.079 303.129 423.685 306.725C425.29 310.321 424.807 314.324 423.819 318.07C421.601 326.485 416.984 334.385 415.088 342.854C412.657 353.711 415.669 365.068 413.078 375.901C411.329 383.21 407.972 393.04 399.353 396.771C397.556 397.549 395.594 397.973 393.592 398.084Z" fill="#56B2A1"/>
<path d="M385.903 404.405C385.882 404.405 385.863 404.404 385.842 404.402C385.457 404.369 385.172 404.031 385.205 403.646C387.126 381.31 408.254 319.853 408.467 319.235C408.592 318.87 408.99 318.677 409.356 318.801C409.721 318.927 409.916 319.325 409.79 319.69C409.577 320.307 388.505 381.601 386.599 403.765C386.567 404.129 386.261 404.405 385.903 404.405Z" fill="#2D3962"/>
<path d="M370.16 404.863L360.195 446.64H406.166L397.213 405.158C396.934 403.864 395.796 402.935 394.472 402.921L372.949 402.686C371.625 402.671 370.467 403.575 370.16 404.863Z" fill="#F4B04E"/>
<mask id="mask6_133_2145" style="mask-type:luminance" maskUnits="userSpaceOnUse" x="360" y="402" width="47" height="45">
<path d="M370.16 404.863L360.195 446.64H406.166L397.213 405.158C396.934 403.864 395.796 402.935 394.472 402.921L372.949 402.686C371.625 402.671 370.467 403.575 370.16 404.863Z" fill="white"/>
</mask>
<g mask="url(#mask6_133_2145)">
<g opacity="0.47">
<path d="M403.61 402.027C403.8 403.577 402.767 404.983 401.79 406.201C400.336 408.016 398.813 409.886 396.729 410.919C395.467 411.544 394.067 411.825 392.738 412.294C388.813 413.679 385.558 416.685 381.521 417.698C378.309 418.503 374.782 417.992 371.77 419.367C367.86 421.152 365.754 425.69 361.832 427.448L364.16 399.294L403.61 402.027Z" fill="white"/>
</g>
</g>
<mask id="mask7_133_2145" style="mask-type:luminance" maskUnits="userSpaceOnUse" x="360" y="402" width="47" height="45">
<path d="M370.16 404.863L360.195 446.64H406.166L397.213 405.158C396.934 403.864 395.796 402.935 394.472 402.921L372.949 402.686C371.625 402.671 370.467 403.575 370.16 404.863Z" fill="white"/>
</mask>
<g mask="url(#mask7_133_2145)">
<g opacity="0.52">
<path d="M357.762 446.27C360.56 443.753 363.399 441.208 366.745 439.485C370.091 437.762 374.058 436.924 377.659 438.018C378.562 438.292 379.439 438.685 380.378 438.782C383.196 439.074 385.492 436.746 387.73 435.009C393.764 430.326 401.754 429.237 409.335 428.31L409.832 449.807L358.056 449.596L357.762 446.27Z" fill="#D89741"/>
</g>
</g>
<path d="M302.131 431.718C302.131 431.718 292.005 409.44 321.033 398.976L326.405 372.176C326.63 371.054 327.865 370.997 328.712 371.766C330.472 373.362 335.008 379.11 335.008 379.11L344.185 378.809C344.185 378.809 348.846 372.995 350.867 371.525C351.394 371.142 353.347 370.79 353.671 373.002C355.245 383.769 359.938 442.433 357.488 444.883C354.788 447.583 300.105 444.883 300.105 444.883L302.131 431.718Z" fill="#FFD194"/>
<path d="M303.043 426.757C303.043 426.757 291.58 436.946 297.184 444.588C299.394 447.602 310.648 446.589 323.124 446.578C342.284 446.56 364.714 446.3 364.714 446.3C364.714 446.3 368.633 439.426 364.047 437.133C359.462 434.84 304.825 435.418 304.825 435.418" fill="#FFD194"/>
<path d="M364.548 446.818C364.38 446.818 364.214 446.736 364.114 446.584C363.958 446.345 364.025 446.024 364.264 445.867C365.269 445.211 366.319 443.256 366.28 441.394C366.258 440.274 365.834 438.703 363.948 437.578C361.654 436.209 354.559 436.87 346.348 437.636C342.5 437.994 338.14 438.401 333.743 438.651C319.839 439.443 306.128 437.997 305.991 437.982C305.707 437.952 305.502 437.696 305.532 437.412C305.562 437.129 305.804 436.918 306.102 436.953C306.238 436.968 319.87 438.404 333.684 437.618C338.062 437.368 342.413 436.963 346.25 436.605C354.99 435.792 361.891 435.147 364.478 436.69C366.77 438.057 367.286 439.992 367.314 441.374C367.362 443.682 366.088 445.912 364.83 446.735C364.745 446.79 364.646 446.818 364.548 446.818Z" fill="#2D3962"/>
<path d="M297.184 445.106C297.025 445.106 296.868 445.033 296.767 444.894C294.34 441.585 294.619 437.312 297.572 432.535C299.753 429.009 302.581 426.476 302.7 426.371C302.914 426.181 303.24 426.2 303.43 426.414C303.62 426.627 303.601 426.955 303.387 427.144C303.277 427.243 292.342 437.11 297.601 444.283C297.771 444.513 297.721 444.837 297.49 445.006C297.398 445.074 297.291 445.106 297.184 445.106Z" fill="#2D3962"/>
<path d="M338.215 387.467C338.215 388.295 337.543 388.967 336.715 388.967C335.887 388.967 335.215 388.295 335.215 387.467C335.215 386.639 335.887 385.967 336.715 385.967C337.543 385.967 338.215 386.638 338.215 387.467Z" fill="#2D3962"/>
<path d="M343.275 388.967C344.103 388.967 344.775 388.295 344.775 387.467C344.775 386.639 344.103 385.967 343.275 385.967C342.447 385.967 341.775 386.639 341.775 387.467C341.775 388.295 342.447 388.967 343.275 388.967Z" fill="#2D3962"/>
<path d="M333.714 438.651C333.467 438.651 333.248 438.473 333.205 438.221L329.956 419.328C329.907 419.046 330.097 418.778 330.378 418.73C330.663 418.673 330.927 418.87 330.976 419.152L334.225 438.044C334.274 438.326 334.084 438.594 333.803 438.642C333.773 438.649 333.744 438.651 333.714 438.651Z" fill="#2D3962"/>
<path d="M347.592 437.241C347.563 437.241 347.533 437.239 347.503 437.233C347.222 437.185 347.032 436.918 347.081 436.635L350.329 417.742C350.377 417.46 350.64 417.265 350.927 417.32C351.208 417.368 351.398 417.636 351.349 417.918L348.101 436.811C348.058 437.063 347.839 437.241 347.592 437.241Z" fill="#2D3962"/>
<path d="M340.943 437.285C340.666 437.285 340.436 437.066 340.425 436.788L339.821 421.275C339.81 420.989 340.033 420.749 340.318 420.737C340.6 420.738 340.845 420.949 340.856 421.234L341.461 436.747C341.472 437.033 341.249 437.273 340.964 437.285C340.957 437.285 340.95 437.285 340.943 437.285Z" fill="#2D3962"/>
<path d="M340.543 421.632C339.086 421.632 337.682 421.392 337.424 421.346C337.143 421.295 336.956 421.026 337.006 420.744C337.057 420.462 337.328 420.28 337.608 420.326C339.169 420.608 341.993 420.809 342.916 420.158C343.149 419.994 343.474 420.049 343.638 420.282C343.803 420.516 343.747 420.839 343.514 421.004C342.825 421.49 341.668 421.632 340.543 421.632Z" fill="#2D3962"/>
<path d="M340.062 392.334C339.928 392.334 339.795 392.282 339.696 392.183L338.099 390.586C337.962 390.448 337.913 390.246 337.972 390.061C338.032 389.876 338.189 389.741 338.38 389.708C339.254 389.563 341.362 389.262 342.042 389.604C342.272 389.719 342.417 389.935 342.428 390.182C342.438 390.392 342.461 390.952 340.332 392.257C340.249 392.309 340.155 392.334 340.062 392.334ZM339.564 390.587L340.134 391.156C340.488 390.922 340.82 390.677 341.057 390.477C340.67 390.478 340.128 390.52 339.564 390.587Z" fill="#2D3962"/>
<path d="M333.75 379.94C333.481 379.94 333.254 379.732 333.234 379.459C333.214 379.174 333.428 378.927 333.714 378.906C334.11 378.879 343.444 378.219 345.964 378.451C346.249 378.477 346.458 378.729 346.433 379.014C346.407 379.299 346.154 379.5 345.87 379.483C343.432 379.261 333.883 379.933 333.786 379.94C333.775 379.94 333.762 379.94 333.75 379.94Z" fill="#2D3962"/>
<g opacity="0.47">
<path d="M326.798 371.249C324.961 371.984 324.961 379.517 324.961 379.517C324.961 379.517 330.945 379.889 331.208 378.047C331.292 377.457 330.422 376.176 329.646 374.648C328.732 372.847 327.816 370.842 326.798 371.249Z" fill="white"/>
</g>
<g opacity="0.47">
<path d="M352.527 371.249C354.364 371.984 354.364 379.517 354.364 379.517C354.364 379.517 348.38 379.889 348.117 378.047C348.033 377.457 348.903 376.176 349.679 374.648C350.593 372.847 351.509 370.842 352.527 371.249Z" fill="white"/>
</g>
<path d="M319.982 402.847C319.824 402.847 319.671 402.774 319.574 402.65C319.368 402.39 319.313 402.32 321.711 392.165C321.777 391.887 322.054 391.711 322.334 391.78C322.612 391.845 322.784 392.125 322.719 392.403C321.895 395.895 320.584 401.571 320.498 402.28C320.499 402.297 320.5 402.313 320.5 402.33C320.5 402.616 320.268 402.847 319.982 402.847Z" fill="#2D3962"/>
<path d="M316.087 401.154C316.446 402.598 316.49 404.513 316.476 406.001C316.462 407.489 316.031 409.03 314.997 410.1C314.27 410.853 313.252 411.38 312.832 412.339C312.617 412.831 312.589 413.38 312.495 413.908C312.085 416.226 310.266 418.235 308 418.874C305.734 419.512 302.742 418.389 301.182 416.626C301.182 416.626 303.311 409.765 307.984 405.677C311.925 402.229 316.087 401.154 316.087 401.154Z" fill="#D89741"/>
<path d="M316.392 419.392C316.457 419.392 316.443 419.292 316.379 419.292C316.314 419.292 316.328 419.392 316.392 419.392Z" fill="#56B2A1"/>
<path d="M317.703 415.542C317.543 415.406 317.369 415.307 317.184 415.257C315.836 414.897 314.292 415.46 313.743 416.806C313.419 417.6 313.532 418.564 314.051 419.247C314.408 419.717 314.931 420.042 315.486 420.24C316.577 420.628 318.003 420.432 318.578 419.426C319.117 418.484 318.655 416.352 317.703 415.542Z" fill="#D89741"/>
<path d="M430.032 447.463H1.96802C1.41602 447.463 0.968018 447.016 0.968018 446.463C0.968018 445.91 1.41602 445.463 1.96802 445.463H430.032C430.585 445.463 431.032 445.91 431.032 446.463C431.032 447.016 430.585 447.463 430.032 447.463Z" fill="#2D3962"/>
<path d="M376.769 153.66H332.517C330.902 153.66 329.593 154.969 329.593 156.584V180.346C329.593 181.961 330.902 183.27 332.517 183.27H335.406V188.086C335.406 188.771 336.251 189.094 336.708 188.585L341.478 183.27H376.769C378.384 183.27 379.693 181.961 379.693 180.346V156.584C379.693 154.969 378.384 153.66 376.769 153.66Z" fill="#F4B04E"/>
<path d="M372.037 161.521H337.061C336.717 161.521 336.438 161.242 336.438 160.898C336.438 160.554 336.717 160.275 337.061 160.275H372.037C372.381 160.275 372.66 160.554 372.66 160.898C372.66 161.242 372.381 161.521 372.037 161.521Z" fill="white"/>
<path d="M372.037 169.239H337.061C336.717 169.239 336.438 168.96 336.438 168.616C336.438 168.272 336.717 167.993 337.061 167.993H372.037C372.381 167.993 372.66 168.272 372.66 168.616C372.66 168.961 372.381 169.239 372.037 169.239Z" fill="white"/>
<path d="M364.693 176.916H337.061C336.717 176.916 336.438 176.637 336.438 176.293C336.438 175.949 336.717 175.67 337.061 175.67H364.693C365.037 175.67 365.316 175.949 365.316 176.293C365.316 176.637 365.037 176.916 364.693 176.916Z" fill="white"/>
<path d="M334.272 136.885C334.272 138.038 333.337 138.973 332.184 138.973H303.788C302.635 138.973 301.7 138.038 301.7 136.885V119.346C301.7 118.193 302.635 117.258 303.788 117.258H332.184C333.337 117.258 334.272 118.193 334.272 119.346V136.885Z" fill="#FFD194"/>
<mask id="mask8_133_2145" style="mask-type:luminance" maskUnits="userSpaceOnUse" x="301" y="117" width="34" height="22">
<path d="M334.272 136.885C334.272 138.038 333.337 138.973 332.184 138.973H303.788C302.635 138.973 301.7 138.038 301.7 136.885V119.346C301.7 118.193 302.635 117.258 303.788 117.258H332.184C333.337 117.258 334.272 118.193 334.272 119.346V136.885Z" fill="white"/>
</mask>
<g mask="url(#mask8_133_2145)">
<path d="M333.254 140.615L321.584 127.76L333.232 116.143L332.406 115.138L317.663 129.842L303.311 114.032L302.441 114.99L314.111 127.845L302.463 139.463L303.289 140.467L314.982 128.805L317.621 131.713L320.671 128.671L332.384 141.574L333.254 140.615Z" fill="white"/>
</g>
<path d="M331.038 124.786C335.049 124.786 338.301 121.534 338.301 117.523C338.301 113.512 335.049 110.26 331.038 110.26C327.027 110.26 323.775 113.512 323.775 117.523C323.775 121.534 327.027 124.786 331.038 124.786Z" fill="#56B2A1"/>
<path d="M326.27 118.928H327.285V116.359H326.264V115.823C326.453 115.802 326.685 115.743 326.959 115.647C327.234 115.55 327.481 115.439 327.699 115.313H328.146V118.928H329.072V119.634H326.269L326.27 118.928Z" fill="white"/>
<path d="M330.172 119.511C329.955 119.379 329.789 119.149 329.674 118.822C329.559 118.494 329.501 118.045 329.501 117.474C329.501 116.903 329.559 116.453 329.674 116.126C329.789 115.799 329.955 115.569 330.172 115.437C330.388 115.305 330.66 115.239 330.987 115.239C331.314 115.239 331.587 115.306 331.802 115.441C332.018 115.575 332.184 115.805 332.3 116.13C332.415 116.455 332.473 116.903 332.473 117.475C332.473 118.046 332.415 118.494 332.3 118.82C332.184 119.145 332.018 119.375 331.802 119.509C331.586 119.643 331.314 119.711 330.987 119.711C330.661 119.71 330.388 119.643 330.172 119.511ZM331.363 118.869C331.449 118.779 331.508 118.641 331.539 118.456C331.57 118.271 331.587 118.017 331.587 117.694V117.253C331.587 116.93 331.57 116.676 331.539 116.491C331.508 116.306 331.449 116.169 331.363 116.078C331.276 115.988 331.152 115.942 330.988 115.942C330.824 115.942 330.699 115.987 330.613 116.078C330.527 116.168 330.468 116.306 330.437 116.491C330.405 116.676 330.389 116.929 330.389 117.253V117.694C330.389 118.017 330.405 118.272 330.437 118.456C330.468 118.641 330.527 118.778 330.613 118.869C330.699 118.959 330.824 119.004 330.988 119.004C331.152 119.004 331.276 118.959 331.363 118.869Z" fill="white"/>
<path d="M333.009 119.408C333.009 119.169 333.062 118.953 333.167 118.762C333.271 118.571 333.4 118.404 333.554 118.261C333.707 118.118 333.908 117.957 334.156 117.776C334.37 117.612 334.539 117.476 334.663 117.367C334.787 117.258 334.891 117.138 334.976 117.008C335.08 116.845 335.133 116.66 335.133 116.454C335.133 116.32 335.083 116.201 334.985 116.098C334.886 115.995 334.745 115.944 334.56 115.944C334.144 115.944 333.936 116.144 333.936 116.543V116.801H333.08C333.076 116.788 333.071 116.759 333.064 116.713C333.058 116.667 333.054 116.612 333.054 116.55C333.054 116.113 333.2 115.786 333.492 115.567C333.783 115.348 334.152 115.239 334.597 115.239C334.987 115.239 335.287 115.315 335.497 115.466C335.707 115.617 335.845 115.787 335.909 115.976C335.974 116.165 336.007 116.341 336.007 116.505C336.007 116.795 335.942 117.052 335.812 117.276C335.682 117.501 335.528 117.69 335.349 117.843C335.17 117.996 334.949 118.163 334.685 118.344C334.483 118.483 334.333 118.596 334.231 118.684C334.16 118.747 334.108 118.808 334.074 118.867H336.033V119.636H333.01V119.408H333.009Z" fill="white"/>
<path d="M277.362 185.449H250.494C249.387 185.449 248.49 184.552 248.49 183.445V160.094C248.49 158.987 249.387 158.09 250.494 158.09H277.362C278.469 158.09 279.366 158.987 279.366 160.094V183.445C279.366 184.551 278.469 185.449 277.362 185.449Z" fill="#FFD194"/>
<path d="M273.409 165.603H258.028C257.635 165.603 257.316 165.284 257.316 164.891C257.316 164.498 257.635 164.179 258.028 164.179H273.409C273.802 164.179 274.121 164.498 274.121 164.891C274.122 165.284 273.803 165.603 273.409 165.603Z" fill="white"/>
<path d="M254.973 164.89C254.973 165.468 254.504 165.937 253.926 165.937C253.348 165.937 252.879 165.468 252.879 164.89C252.879 164.312 253.348 163.843 253.926 163.843C254.504 163.843 254.973 164.312 254.973 164.89Z" fill="white"/>
<path d="M273.409 172.707H258.028C257.635 172.707 257.316 172.388 257.316 171.995C257.316 171.602 257.635 171.283 258.028 171.283H273.409C273.802 171.283 274.121 171.602 274.121 171.995C274.122 172.388 273.803 172.707 273.409 172.707Z" fill="white"/>
<path d="M254.973 171.995C254.973 172.573 254.504 173.042 253.926 173.042C253.348 173.042 252.879 172.573 252.879 171.995C252.879 171.417 253.348 170.948 253.926 170.948C254.504 170.948 254.973 171.417 254.973 171.995Z" fill="white"/>
<path d="M273.409 179.812H258.028C257.635 179.812 257.316 179.493 257.316 179.1C257.316 178.707 257.635 178.388 258.028 178.388H273.409C273.802 178.388 274.121 178.707 274.121 179.1C274.122 179.493 273.803 179.812 273.409 179.812Z" fill="white"/>
<path d="M254.973 179.1C254.973 179.678 254.504 180.147 253.926 180.147C253.348 180.147 252.879 179.678 252.879 179.1C252.879 178.522 253.348 178.053 253.926 178.053C254.504 178.053 254.973 178.521 254.973 179.1Z" fill="white"/>
<path d="M321.035 176.2H287.875C286.591 176.2 285.55 175.159 285.55 173.875V147.191C285.55 145.907 286.591 144.866 287.875 144.866H321.035C322.319 144.866 323.36 145.907 323.36 147.191V173.875C323.36 175.159 322.319 176.2 321.035 176.2Z" fill="#97DDCF"/>
<path d="M323.36 153.848V147.191C323.36 145.907 322.319 144.866 321.035 144.866H287.875C286.591 144.866 285.55 145.907 285.55 147.191V153.848C285.55 153.848 322.733 153.848 323.36 153.848Z" fill="#56B2A1"/>
<path d="M297.686 166.855H300V160.991H297.672V159.77C298.104 159.722 298.633 159.588 299.26 159.367C299.888 159.147 300.45 158.893 300.948 158.606H301.969V166.855H304.082V168.464H297.686V166.855Z" fill="white"/>
<path d="M305.914 167.767C305.286 167.187 304.973 166.399 304.973 165.403H306.999C306.999 165.911 307.126 166.308 307.38 166.596C307.634 166.883 307.985 167.027 308.436 167.027C308.876 167.027 309.224 166.876 309.478 166.574C309.732 166.272 309.859 165.829 309.859 165.244C309.859 164.708 309.73 164.301 309.471 164.022C309.212 163.745 308.872 163.605 308.45 163.605C308.163 163.605 307.919 163.668 307.718 163.792C307.517 163.917 307.334 164.084 307.171 164.295L305.303 164.065L305.692 158.604H311.397V160.357H307.43L307.301 162.542C307.53 162.398 307.78 162.281 308.048 162.19C308.317 162.099 308.642 162.053 309.026 162.053C309.869 162.053 310.556 162.324 311.088 162.865C311.62 163.407 311.886 164.2 311.886 165.243C311.886 166.316 311.579 167.15 310.966 167.744C310.353 168.338 309.51 168.635 308.437 168.635C307.382 168.637 306.541 168.347 305.914 167.767Z" fill="white"/>
<path d="M295.063 147.985C294.725 147.985 294.452 147.711 294.452 147.373V144.276C294.452 143.938 294.725 143.664 295.063 143.664C295.401 143.664 295.674 143.938 295.674 144.276V147.373C295.674 147.711 295.401 147.985 295.063 147.985Z" fill="#2D3962"/>
<path d="M304.455 147.985C304.117 147.985 303.844 147.711 303.844 147.373V144.276C303.844 143.938 304.117 143.664 304.455 143.664C304.793 143.664 305.066 143.938 305.066 144.276V147.373C305.066 147.711 304.793 147.985 304.455 147.985Z" fill="#2D3962"/>
<path d="M313.847 147.985C313.509 147.985 313.236 147.711 313.236 147.373V144.276C313.236 143.938 313.509 143.664 313.847 143.664C314.185 143.664 314.458 143.938 314.458 144.276V147.373C314.459 147.711 314.185 147.985 313.847 147.985Z" fill="#2D3962"/>
<path d="M280.203 138.717C284.625 129.467 280.711 118.383 271.461 113.961C262.21 109.538 251.126 113.452 246.704 122.703C242.282 131.953 246.196 143.037 255.446 147.459C264.697 151.881 275.781 147.967 280.203 138.717Z" fill="white"/>
<path d="M263.454 150.567C252.505 150.567 243.596 141.658 243.596 130.708C243.596 119.758 252.505 110.849 263.454 110.849C274.405 110.849 283.314 119.758 283.314 130.708C283.314 141.658 274.405 150.567 263.454 150.567ZM263.454 113.437C253.931 113.437 246.183 121.185 246.183 130.708C246.183 140.232 253.931 147.979 263.454 147.979C272.978 147.979 280.726 140.231 280.726 130.708C280.727 121.184 272.979 113.437 263.454 113.437Z" fill="#56B2A1"/>
<path d="M271.457 132.599H262.85C262.413 132.599 262.059 132.244 262.059 131.808V119.137C262.059 118.7 262.413 118.346 262.85 118.346C263.287 118.346 263.641 118.7 263.641 119.137V131.017H271.457C271.894 131.017 272.248 131.372 272.248 131.808C272.248 132.244 271.894 132.599 271.457 132.599Z" fill="#2D3962"/>
<path d="M40.332 291.168C40.332 291.168 26.506 208.702 40.885 188.362C46.322 180.671 71.005 186.21 71.005 186.21C82.801 198.145 88.843 210.518 93.17 226.731C97.497 242.944 105.393 278.009 106.866 294.725C93.286 294.758 40.332 291.168 40.332 291.168Z" fill="#F4B04E"/>
<path d="M89.5001 281.67C89.5001 281.67 102.978 286.87 103.33 292.048C103.638 296.585 88.1541 292.741 88.1541 292.741L89.5001 281.67Z" fill="#FFCEAB"/>
<path d="M103.1 292.842C102.975 292.842 102.85 292.797 102.75 292.706C101.328 291.4 97.9391 290.197 97.9051 290.186C97.6351 290.091 97.4931 289.795 97.5891 289.526C97.6851 289.257 97.9811 289.116 98.2491 289.21C98.3961 289.262 101.873 290.497 103.45 291.943C103.66 292.136 103.675 292.465 103.481 292.674C103.379 292.785 103.239 292.842 103.1 292.842Z" fill="#2D3962"/>
<path d="M100.675 294.418C100.56 294.418 100.444 294.38 100.348 294.301C99.1 293.281 96.411 292.338 96.384 292.329C96.114 292.235 95.971 291.939 96.065 291.67C96.159 291.399 96.455 291.257 96.724 291.351C96.842 291.392 99.615 292.365 101.003 293.5C101.224 293.681 101.257 294.007 101.076 294.228C100.974 294.354 100.825 294.418 100.675 294.418Z" fill="#2D3962"/>
<path d="M56.2801 222.242C49.5831 246.338 51.8991 246.361 44.8001 269.599C58.9411 274.065 79.8311 274.587 92.5851 282.155C92.2631 284.796 91.3531 292.057 90.6791 292.738C89.6051 293.822 34.2481 298.951 20.6661 284.682C9.68908 273.149 17.6731 204.866 41.9111 187.234C49.5611 181.667 56.2801 222.242 56.2801 222.242Z" fill="#F4B04E"/>
<path d="M73.5211 295.267C73.2351 295.267 73.0031 295.036 73.0031 294.749C73.0031 294.463 73.2341 294.232 73.5211 294.232C76.3181 294.232 87.5881 293.252 89.8201 293.055L91.9621 282.573C83.6341 279.039 73.5381 276.873 63.7681 274.777C56.8901 273.301 50.3941 271.908 44.6451 270.091C44.3741 270.006 44.2231 269.718 44.3061 269.446C48.0631 257.147 49.1951 251.276 50.3931 245.06C51.4941 239.346 52.6331 233.438 55.7841 222.103C55.8601 221.827 56.1451 221.662 56.4211 221.743C56.6961 221.819 56.8581 222.105 56.7811 222.38C53.6421 233.675 52.5071 239.563 51.4101 245.256C50.2231 251.416 49.1011 257.239 45.4471 269.257C51.0301 270.985 57.3291 272.336 63.9871 273.764C73.9571 275.903 84.2671 278.115 92.7611 281.787C92.9861 281.885 93.1121 282.126 93.0631 282.366L90.7601 293.64C90.7141 293.865 90.5271 294.032 90.2991 294.052C89.7411 294.102 76.6601 295.267 73.5211 295.267Z" fill="#2D3962"/>
<path d="M133.619 172.521C130.992 172.344 130.226 175.069 130.135 169.099C130.087 165.958 128.615 162.377 128.339 159.731C128.198 158.383 128.827 157.748 129.226 157.509C129.891 157.111 130.577 157.494 130.577 157.494C130.798 156.428 132.366 156.57 132.692 156.617C133.325 156.708 133.711 157.319 133.711 157.319C133.711 157.319 133.994 156.499 135.417 156.535C136.278 156.557 136.762 156.805 137.021 157.357C137.021 157.357 138.656 156.936 139.171 158.177C139.424 158.787 140.788 162.538 140.921 169.337C141.003 173.526 139.347 172.871 136.824 172.701L133.619 172.521Z" fill="#FFCEAB"/>
<path d="M137.783 164.989C137.465 164.989 137.202 164.736 137.193 164.416C137.105 161.544 136.614 157.894 136.61 157.86C136.564 157.541 136.781 157.242 137.099 157.191C137.421 157.142 137.718 157.35 137.776 157.666C137.78 157.691 138.283 161.397 138.375 164.38C138.385 164.706 138.129 164.979 137.802 164.989C137.796 164.989 137.789 164.989 137.783 164.989Z" fill="#2D3962"/>
<path d="M134.87 164.854C134.552 164.854 134.289 164.601 134.28 164.281C134.191 161.405 133.453 157.612 133.446 157.574C133.383 157.254 133.59 156.943 133.909 156.879C134.229 156.813 134.539 157.021 134.605 157.341C134.612 157.378 135.37 161.274 135.462 164.245C135.472 164.571 135.216 164.844 134.889 164.854C134.883 164.853 134.877 164.854 134.87 164.854Z" fill="#2D3962"/>
<path d="M131.899 164.899C131.581 164.899 131.318 164.646 131.309 164.326C131.219 161.378 130.488 157.618 130.457 157.46C130.396 157.147 130.591 156.835 130.901 156.763C131.212 156.689 131.52 156.868 131.604 157.175C131.608 157.192 131.614 157.216 131.617 157.233C131.649 157.396 132.397 161.248 132.49 164.291C132.5 164.617 132.243 164.89 131.917 164.9C131.911 164.898 131.905 164.899 131.899 164.899Z" fill="#2D3962"/>
<path d="M125.916 163.611C124.764 164.502 126.323 166.782 127.823 168.639C128.533 169.519 129.378 170.764 130.099 171.088C131.162 171.566 130.795 167.227 130.795 167.227C130.795 167.227 128.23 161.822 125.916 163.611Z" fill="#FFCEAB"/>
<path d="M129.759 166.637C129.54 166.637 129.329 166.515 129.227 166.305C129.219 166.289 128.456 164.742 127.36 163.914C127.099 163.718 127.048 163.347 127.244 163.086C127.441 162.826 127.812 162.773 128.072 162.97C129.399 163.971 130.255 165.713 130.29 165.787C130.433 166.08 130.31 166.433 130.017 166.576C129.934 166.618 129.846 166.637 129.759 166.637Z" fill="#2D3962"/>
<path d="M127.377 172.043C127.68 179.336 122.621 212.671 119.012 212.671C110.719 212.671 88.009 196.188 73.28 188.824L79.242 226.698C86.299 229.709 116.762 244.776 128.627 239.595C150.944 229.851 142.912 169.661 142.912 169.661L127.377 172.043Z" fill="#F4B04E"/>
<path d="M97.0031 246.207C96.7431 246.207 96.5191 246.011 96.4891 245.747C92.4781 209.647 73.1051 189.385 72.9101 189.185C72.7101 188.98 72.7151 188.652 72.9191 188.453C73.1231 188.253 73.4511 188.257 73.6511 188.462C73.8491 188.665 93.4651 209.161 97.5181 245.632C97.5491 245.916 97.3451 246.172 97.0601 246.204C97.0411 246.206 97.0221 246.207 97.0031 246.207Z" fill="#2D3962"/>
<path d="M44.8091 169.228C44.8091 169.228 38.6491 169.024 38.3671 160.456C38.3671 160.456 42.7101 161.884 44.5051 161.847C44.5051 161.847 44.6901 169.527 44.8091 169.228Z" fill="#2D3962"/>
<path d="M87.799 131.251C88.654 134.817 90.314 141.224 90.838 144.848C91.832 151.715 92.542 156.318 91.747 163.246C91.301 167.136 90.036 171.035 87.547 174.276C82.789 180.471 69.501 179.596 69.501 179.596L70.029 187.367C70.029 187.367 57.885 192.376 46.053 186.958L44.233 163.243C44.233 163.243 39.275 163.252 36.172 160.963C33.137 158.724 33.832 149.876 40.877 149.887C47.4 149.897 48.137 150.728 48.137 150.728L54.774 133.226L87.799 131.251Z" fill="#FFCEAB"/>
<path d="M39.3901 156.476C39.2501 156.476 39.1111 156.42 39.0081 156.308C38.8151 156.098 38.8291 155.77 39.0401 155.577C40.7811 153.981 44.1191 153.551 44.2601 153.533C44.5511 153.496 44.8031 153.699 44.8381 153.983C44.8731 154.267 44.6721 154.525 44.3881 154.561C44.3571 154.565 41.2361 154.969 39.7391 156.341C39.6411 156.431 39.5151 156.476 39.3901 156.476Z" fill="#2D3962"/>
<path d="M42.6571 158.708C42.4591 158.708 42.2701 158.594 42.1841 158.402C41.7531 157.44 41.3901 156.223 41.1061 154.782C41.0511 154.501 41.2331 154.229 41.5141 154.174C41.7941 154.117 42.0671 154.302 42.1221 154.582C42.4571 156.281 42.8541 157.366 43.1281 157.978C43.2451 158.239 43.1281 158.545 42.8681 158.662C42.8001 158.694 42.7281 158.708 42.6571 158.708Z" fill="#2D3962"/>
<path d="M72.0451 150.706C72.1191 151.62 72.953 152.298 73.909 152.222C74.865 152.146 75.579 151.343 75.506 150.429C75.432 149.515 74.5981 148.837 73.6421 148.913C72.6861 148.99 71.9721 149.792 72.0451 150.706Z" fill="#2D3962"/>
<path d="M83.542 150.952C84.27 151.544 85.366 151.457 85.989 150.757C86.612 150.057 86.528 149.009 85.8 148.417C85.072 147.825 83.976 147.912 83.353 148.613C82.729 149.312 82.814 150.359 83.542 150.952Z" fill="#2D3962"/>
<path d="M78.2701 161.7C77.7321 161.7 77.1831 161.633 76.6441 161.497C75.5401 161.219 74.5691 160.688 73.8371 159.962C73.6341 159.761 73.6321 159.433 73.8331 159.23C74.0341 159.027 74.3621 159.025 74.5651 159.227C75.1571 159.814 75.9851 160.264 76.8961 160.493C77.8981 160.745 78.9321 160.72 79.8091 160.423C80.0781 160.333 80.3741 160.476 80.4651 160.747C80.5571 161.017 80.4121 161.311 80.1411 161.403C79.5591 161.601 78.9221 161.7 78.2701 161.7Z" fill="#2D3962"/>
<path d="M69.5521 182.43L57.8781 179.533C57.8781 179.533 58.0561 178.044 58.4171 178.181C61.7831 179.459 69.4051 179.629 69.4051 179.629L69.5521 182.43Z" fill="#2D3962"/>
<path d="M75.5071 143.774C74.3281 142.895 71.2351 143.799 70.3681 144.256C70.3681 144.256 69.7711 145.129 70.5311 145.913C71.4161 146.826 74.3001 146.046 75.3771 145.901C75.4651 145.889 75.5561 145.876 75.6271 145.826C75.7141 145.765 75.7561 145.662 75.7901 145.565C75.9201 145.195 76.0191 144.798 75.9291 144.419C75.8641 144.141 75.7161 143.93 75.5071 143.774Z" fill="#2D3962"/>
<path d="M87.038 142.986C85.878 142.085 82.767 142.928 81.89 143.369C81.89 143.369 81.275 144.23 82.018 145.029C82.884 145.959 85.783 145.236 86.863 145.111C86.951 145.101 87.042 145.09 87.115 145.041C87.204 144.982 87.247 144.88 87.284 144.783C87.422 144.416 87.529 144.021 87.447 143.64C87.387 143.36 87.243 143.146 87.038 142.986Z" fill="#2D3962"/>
<path d="M37.886 126.529C33.036 134.356 33.969 145.495 36.192 151.652C36.192 151.652 43.291 148.329 48.796 151.758C50.606 152.886 49.932 158.29 55.099 157.749C59.868 157.249 58.013 145.914 57.498 136.895C57.498 136.895 82.702 137.89 87.592 131.275C89.29 128.978 89.479 124.528 84.319 120.495C76.594 114.458 41.74 120.309 37.886 126.529Z" fill="#2D3962"/>
<path d="M57.9071 190.586C55.4651 190.586 53.3801 190.261 51.7141 189.846C47.2831 188.743 44.8161 186.827 44.7131 186.746C44.4881 186.569 44.4501 186.244 44.6271 186.019C44.8031 185.794 45.1291 185.756 45.3541 185.932C45.4491 186.007 55.0461 193.317 70.0931 186.907C70.3581 186.794 70.6611 186.917 70.7721 187.18C70.8841 187.443 70.7621 187.747 70.4991 187.859C65.6841 189.911 61.4251 190.586 57.9071 190.586Z" fill="#2D3962"/>
</svg>
