<svg width="491" height="345" viewBox="0 0 491 345" fill="none" xmlns="http://www.w3.org/2000/svg">
<path d="M96.235 97.3078H29.53C27.132 97.3078 25.188 95.3638 25.188 92.9658V82.4278C25.188 65.6048 39.608 53.2878 53.828 67.2568C66.044 55.5408 80.463 66.8058 80.463 77.7708C90.273 74.4538 98.692 80.2938 100.522 92.2558C100.928 94.9058 98.915 97.3078 96.235 97.3078Z" fill="#BEDCE0"/>
<path d="M53.01 271.782L40.238 343.841H47.919L67.011 271.782H53.01Z" fill="#BEDCE0"/>
<path d="M65.1851 278.672L50.3571 286.748L53.0101 271.782H67.0111L65.1851 278.672Z" fill="#A4CACF"/>
<path d="M79.784 271.782L67.011 343.841H74.693L93.785 271.782H79.784Z" fill="#BEDCE0"/>
<path d="M91.959 278.672L77.131 286.748L79.784 271.782H93.785L91.959 278.672Z" fill="#A4CACF"/>
<path d="M150.034 271.782L162.807 343.841H155.125L136.034 271.782H150.034Z" fill="#BEDCE0"/>
<path d="M137.859 278.672L152.687 286.748L150.034 271.782H136.034L137.859 278.672Z" fill="#A4CACF"/>
<path d="M123.261 271.782L136.034 343.841H128.352L109.26 271.782H123.261Z" fill="#BEDCE0"/>
<path d="M111.086 278.672L125.914 286.748L123.261 271.782H109.26L111.086 278.672Z" fill="#A4CACF"/>
<path d="M120.312 264.94H54.156L32.172 179.447C31.612 177.27 33.256 175.15 35.504 175.15H94.556C96.126 175.15 97.497 176.213 97.888 177.733L120.312 264.94Z" fill="#BEDCE0"/>
<path d="M45.7791 232.363L115.312 245.495L120.312 264.94H54.1571L45.7791 232.363Z" fill="#A4CACF"/>
<path d="M155.17 271.782H47.92C47.92 260.814 56.811 251.922 67.78 251.922H135.311C146.278 251.922 155.17 260.813 155.17 271.782Z" fill="#BEDCE0"/>
<path d="M134.138 252.721L129.339 316.443L136.405 332.807L147.393 343.816L136.476 343.833C133.906 343.837 131.42 342.916 129.473 341.238L121.998 334.795L122.012 343.801L119.065 343.806L116.641 329.111C116.441 327.897 116.491 326.656 116.787 325.462L119.511 314.494L114.176 251.949L134.138 252.721Z" fill="#DE6767"/>
<path d="M119.064 343.805L122.011 343.801L121.997 334.795L129.472 341.238C131.419 342.916 133.905 343.837 136.475 343.833L147.392 343.816L136.404 332.807L132.867 324.617L126.041 329.221L117.874 321.078L116.785 325.461C116.488 326.655 116.439 327.897 116.639 329.11L119.064 343.805Z" fill="#1B2536"/>
<path d="M73.9381 252.726L65.5771 316.44L55.1281 332.815L41.8621 343.841H52.7791C55.3491 343.841 58.0261 342.916 60.3201 341.235L69.1291 334.78L67.2551 343.786H70.2031L75.6631 329.087C76.1141 327.873 76.3211 326.631 76.2711 325.438L75.8111 314.474L94.0671 251.921L73.9381 252.726Z" fill="#DE6767"/>
<path d="M70.204 343.787H67.256L69.13 334.781L60.321 341.236C58.027 342.917 55.35 343.842 52.78 343.842H41.863L55.129 332.816L60.358 324.62L66.235 329.213L76.087 321.058L76.271 325.439C76.321 326.632 76.114 327.874 75.663 329.088L70.204 343.787Z" fill="#1B2536"/>
<path d="M124.479 88.616C124.745 94.167 128.552 96.439 132.667 100.246C136.781 104.053 136.702 112.516 132.36 116.273C126.895 121.001 97.46 118.114 92.998 117.685C86.612 117.071 81.727 112.541 84.094 104.544C85.875 98.526 96.7391 92.475 97.5011 85.999L124.479 88.616Z" fill="#28364F"/>
<path d="M150.637 140.284L142.366 121.496C140.057 116.251 135.55 112.293 130.051 110.68L120.726 107.945H100.065L90.7401 110.68C85.2411 112.293 80.7341 116.251 78.4251 121.496L70.1541 140.284H60.5751L62.1591 151.942C63.0101 158.208 68.3611 162.881 74.6851 162.881C79.6321 162.881 84.1241 159.996 86.1811 155.498L90.0501 147.038L92.6291 155.389L82.4761 179.215H138.314L128.162 155.39L130.741 147.039L134.61 155.499C136.667 159.997 141.159 162.882 146.106 162.882C152.43 162.882 157.781 158.209 158.632 151.943L160.216 140.285L150.637 140.284Z" fill="#6E3C3C"/>
<path d="M83.4871 122.338L90.0501 147.039" stroke="#1B2536" stroke-width="0.6759" stroke-miterlimit="10"/>
<path d="M72.9791 141.062L81.2491 153.016" stroke="#1B2536" stroke-width="0.6759" stroke-miterlimit="10"/>
<path d="M137.305 122.338L130.741 147.039" stroke="#1B2536" stroke-width="0.6759" stroke-miterlimit="10"/>
<path d="M147.812 141.062L139.543 153.016" stroke="#1B2536" stroke-width="0.6759" stroke-miterlimit="10"/>
<path d="M100.775 115.926H120.016L110.396 151.706L100.775 115.926Z" fill="white"/>
<path d="M100.065 107.945L112.224 154.776L101.42 141.735C99.211 139.068 98.499 135.465 99.529 132.159L100.785 128.126L97.176 122.89C94.48 118.978 94.829 113.725 98.019 110.204L100.065 107.945Z" fill="#D9956A"/>
<path d="M120.726 107.945L108.567 154.776L119.371 141.735C121.58 139.068 122.292 135.465 121.262 132.159L120.006 128.126L123.615 122.89C126.311 118.978 125.962 113.725 122.772 110.204L120.726 107.945Z" fill="#D9956A"/>
<path d="M116.059 104.334L115.517 96.522H110.396H105.275L104.733 104.334C104.648 105.555 103.844 106.607 102.688 107.009L99.998 107.945L102.792 118.88H110.396H118L120.794 107.945L118.104 107.009C116.948 106.607 116.143 105.554 116.059 104.334Z" fill="#DE6767"/>
<path d="M115.971 103.064L115.517 96.521H110.396H105.275L105.003 100.437C106.74 102.313 109.221 103.609 112.533 103.609C113.803 103.609 114.94 103.405 115.971 103.064Z" fill="#28364F"/>
<path d="M121.086 86.3439C121.065 80.7479 118.093 75.5249 113.153 72.3949L110.396 70.6489L107.639 72.3949C102.699 75.5249 99.7271 80.7479 99.7061 86.3439C99.7011 87.6049 99.6911 88.8519 99.6711 89.9709C99.5841 94.9659 102.81 101.761 110.396 101.761C117.982 101.761 121.208 94.9649 121.121 89.9709C121.101 88.8519 121.09 87.6049 121.086 86.3439Z" fill="#DE6767"/>
<path d="M107.301 92.8979C107.301 94.0289 106.384 94.9459 105.253 94.9459C104.122 94.9459 103.205 94.0289 103.205 92.8979C103.205 91.7669 104.122 90.8499 105.253 90.8499C106.384 90.8499 107.301 91.7669 107.301 92.8979Z" fill="#D65353"/>
<path d="M115.539 94.9459C116.67 94.9459 117.587 94.0289 117.587 92.8979C117.587 91.7668 116.67 90.8499 115.539 90.8499C114.408 90.8499 113.491 91.7668 113.491 92.8979C113.491 94.0289 114.408 94.9459 115.539 94.9459Z" fill="#D65353"/>
<path d="M100.203 86.614C100.203 86.614 106.18 81.824 106.958 76.052C106.958 76.052 113.467 86.115 121.819 88.616H124.48C124.48 88.616 125.135 68.926 109.906 68.929C100.488 68.931 96.888 80.719 97.502 86L100.203 86.614Z" fill="#28364F"/>
<path d="M101.07 87.1299C102.583 89.0959 102.526 91.6769 100.944 92.8949C99.3611 94.1129 96.8511 93.508 95.3381 91.542C93.8251 89.576 93.8821 86.995 95.4641 85.777C97.0471 84.559 99.5571 85.1639 101.07 87.1299Z" fill="#DE6767"/>
<path d="M95.9281 87.8831C95.9281 87.8831 98.7941 85.7131 100.718 90.4211" stroke="#6E3C3C" stroke-width="0.5" stroke-miterlimit="10"/>
<path d="M97.8112 89.848L98.2041 87.384" stroke="#6E3C3C" stroke-width="0.5" stroke-miterlimit="10"/>
<path d="M119.722 87.1299C118.209 89.0959 118.266 91.6769 119.849 92.8949C121.432 94.1129 123.942 93.508 125.455 91.542C126.968 89.576 126.911 86.995 125.329 85.777C123.745 84.559 121.235 85.1639 119.722 87.1299Z" fill="#DE6767"/>
<path d="M124.864 87.8831C124.864 87.8831 121.998 85.7131 120.074 90.4211" stroke="#6E3C3C" stroke-width="0.5" stroke-miterlimit="10"/>
<path d="M122.981 89.848L122.588 87.384" stroke="#6E3C3C" stroke-width="0.5" stroke-miterlimit="10"/>
<path d="M105.893 86.842C105.09 86.842 104.44 87.493 104.44 88.295C104.44 88.436 104.467 88.57 104.504 88.699L105.525 88.499L104.911 89.36C105.17 89.599 105.513 89.748 105.893 89.748C106.696 89.748 107.346 89.097 107.346 88.295C107.346 87.493 106.695 86.842 105.893 86.842Z" fill="#28364F"/>
<path d="M114.899 86.842C115.702 86.842 116.352 87.493 116.352 88.295C116.352 88.436 116.326 88.57 116.288 88.699L115.267 88.499L115.881 89.36C115.622 89.599 115.279 89.748 114.899 89.748C114.096 89.748 113.446 89.097 113.446 88.295C113.446 87.493 114.096 86.842 114.899 86.842Z" fill="#28364F"/>
<path d="M103.652 85.877C103.652 85.877 106.067 84.403 107.991 85.877" stroke="#28364F" stroke-miterlimit="10"/>
<path d="M117.14 85.877C117.14 85.877 114.725 84.403 112.801 85.877" stroke="#28364F" stroke-miterlimit="10"/>
<path d="M110.414 86.574L111.413 91.445H109.416" stroke="#6E3C3C" stroke-width="0.5" stroke-miterlimit="10"/>
<path d="M106.885 93.3689H113.908C113.908 93.3689 113.318 97.7899 110.397 97.7899C107.476 97.7899 106.885 93.3689 106.885 93.3689Z" fill="#6E3C3C"/>
<path d="M110.396 95.303C109.362 95.303 108.427 95.558 107.743 95.968C108.274 96.93 109.108 97.79 110.396 97.79C111.685 97.79 112.519 96.929 113.049 95.968C112.365 95.558 111.43 95.303 110.396 95.303Z" fill="#943232"/>
<path d="M138.315 179.216L134.023 255.115C125.544 257.817 114.245 255.144 102.209 256.112C90.173 257.08 81.576 258.554 72.979 257.817L82.477 179.216H138.315Z" fill="#6E3C3C"/>
<path d="M74.806 242.701L135.056 236.847L136.278 215.242H78.124L74.806 242.701Z" fill="#1B2536"/>
<path d="M177.972 233.312H52.362C47.539 233.312 43.629 229.402 43.629 224.578V147.487C43.629 142.664 47.539 138.754 52.362 138.754H177.972C182.795 138.754 186.705 142.664 186.705 147.487V224.578C186.705 229.402 182.795 233.312 177.972 233.312Z" fill="#4A75C9"/>
<path d="M69.9771 204.275H61.1941V215.242H69.9771V204.275Z" fill="#BEDCE0"/>
<path d="M89.809 190.711H81.026V215.242H89.809V190.711Z" fill="#BEDCE0"/>
<path d="M109.642 180.705H100.859V215.242H109.642V180.705Z" fill="#BEDCE0"/>
<path d="M129.474 175.15H120.691V215.242H129.474V175.15Z" fill="#BEDCE0"/>
<path d="M149.306 161.255H140.523V215.242H149.306V161.255Z" fill="#BEDCE0"/>
<path d="M169.139 185.667H160.356V215.242H169.139V185.667Z" fill="#BEDCE0"/>
<path d="M69.9771 180.14H61.1941V215.242H69.9771V180.14Z" stroke="#28364F" stroke-width="0.5971" stroke-miterlimit="10"/>
<path d="M89.809 185.667H81.026V215.242H89.809V185.667Z" stroke="#28364F" stroke-width="0.5481" stroke-miterlimit="10"/>
<path d="M109.642 166.181H100.859V215.243H109.642V166.181Z" stroke="#28364F" stroke-width="0.7059" stroke-miterlimit="10"/>
<path d="M129.474 161.964H120.691V215.242H129.474V161.964Z" stroke="#28364F" stroke-width="0.7356" stroke-miterlimit="10"/>
<path d="M149.306 152.917H140.523V215.242H149.306V152.917Z" stroke="#28364F" stroke-width="0.7956" stroke-miterlimit="10"/>
<path d="M169.139 171.303H160.356V215.242H169.139V171.303Z" stroke="#28364F" stroke-width="0.6681" stroke-miterlimit="10"/>
<path d="M52.347 215.242H177.986" stroke="#28364F" stroke-width="0.5481" stroke-miterlimit="10"/>
<path d="M449.253 271.782L462.026 343.841H454.344L435.252 271.782H449.253Z" fill="#BEDCE0"/>
<path d="M437.078 278.672L451.906 286.748L449.253 271.782H435.252L437.078 278.672Z" fill="#A4CACF"/>
<path d="M422.48 271.782L435.252 343.841H427.571L408.479 271.782H422.48Z" fill="#BEDCE0"/>
<path d="M410.305 278.672L425.132 286.748L422.48 271.782H408.479L410.305 278.672Z" fill="#A4CACF"/>
<path d="M352.229 271.782L339.456 343.841H347.138L366.23 271.782H352.229Z" fill="#BEDCE0"/>
<path d="M364.404 278.672L349.576 286.748L352.229 271.782H366.23L364.404 278.672Z" fill="#A4CACF"/>
<path d="M379.003 271.782L366.23 343.841H373.912L393.003 271.782H379.003Z" fill="#BEDCE0"/>
<path d="M391.178 278.672L376.35 286.748L379.003 271.782H393.003L391.178 278.672Z" fill="#A4CACF"/>
<path d="M381.951 264.94H448.107L470.091 179.447C470.651 177.27 469.007 175.15 466.759 175.15H407.707C406.137 175.15 404.766 176.213 404.375 177.733L381.951 264.94Z" fill="#BEDCE0"/>
<path d="M456.484 232.363L386.951 245.495L381.951 264.94H448.107L456.484 232.363Z" fill="#A4CACF"/>
<path d="M347.094 271.782H454.344C454.344 260.814 445.453 251.922 434.485 251.922H366.954C355.985 251.922 347.094 260.813 347.094 271.782Z" fill="#BEDCE0"/>
<path d="M0 343.787H490.519" stroke="#28364F" stroke-width="1.3993" stroke-miterlimit="10"/>
<path d="M417.043 318.917L416.814 329.92C416.79 331.089 416.987 332.253 417.395 333.35L419.964 340.252C420.602 341.965 419.335 343.788 417.508 343.788H391.095C389.546 343.788 388.939 341.777 390.23 340.92L401.953 333.137C403.619 332.031 404.58 330.129 404.481 328.131L404.026 318.918H417.043V318.917Z" fill="#946351"/>
<path d="M403.257 331.919C402.891 332.383 402.458 332.8 401.952 333.136L390.229 340.919C388.938 341.776 389.545 343.787 391.094 343.787H417.507C419.334 343.787 420.601 341.964 419.963 340.251L418.06 335.139L411.371 336.205C409.572 336.492 407.801 335.763 406.605 334.389C405.561 333.19 404.238 332.394 403.257 331.919Z" fill="#28364F"/>
<path d="M381.244 313.863L383.537 324.626C383.781 325.77 384.239 326.858 384.887 327.832L388.967 333.964C389.979 335.485 389.163 337.55 387.384 337.968L361.671 344.009C360.163 344.363 359.112 342.545 360.173 341.415L369.805 331.157C371.174 329.699 371.674 327.628 371.121 325.706L368.571 316.841L381.244 313.863Z" fill="#946351"/>
<path d="M370.797 329.673C370.546 330.208 370.221 330.713 369.805 331.157L360.173 341.415C359.112 342.545 360.163 344.363 361.671 344.009L387.384 337.968C389.163 337.55 389.979 335.486 388.967 333.964L385.946 329.423L379.678 331.991C377.993 332.681 376.102 332.377 374.623 331.313C373.331 330.384 371.86 329.912 370.797 329.673Z" fill="#28364F"/>
<path d="M400.809 82.8748C400.796 82.6958 405.867 75.8068 407.095 72.1228C408.323 68.4388 405.575 66.3508 400.809 66.8418C400.809 66.8418 402.735 60.5788 396.902 60.7008C391.068 60.8238 389.287 62.1098 386.217 60.6988C383.147 59.2878 378.848 60.5168 378.173 64.0168C377.498 67.5168 381.506 73.8118 384.744 77.2188C389.41 82.1318 400.809 82.8748 400.809 82.8748Z" fill="#1B2536"/>
<path d="M377.231 164.151H410.024L404.75 95.8228H386.002L377.231 164.151Z" fill="#D4B5A5"/>
<path d="M360.632 109.446L338.913 139.261L315.988 145.156V168.245L336.5 163.356C343.734 161.632 350.298 157.812 355.371 152.374L370.354 136.313L379.757 98.4807L374.377 99.9547C368.851 101.469 364.005 104.816 360.632 109.446Z" fill="#415780"/>
<path d="M336.063 139.993L333.515 164.151L323.689 166.409L326.142 142.545L336.063 139.993Z" fill="#28364F"/>
<path d="M355.37 152.374L369.258 137.487L367.571 115.68L351.288 156.149C352.733 154.997 354.099 153.737 355.37 152.374Z" fill="#28364F"/>
<path d="M421.771 168.245L419.56 321.189H398.622L393.104 192.234H389.102L376.084 247.255L383.93 313.291L363.803 317.996L350.774 262.639C348.401 252.558 348.62 242.041 351.409 232.067L369.257 168.245H421.771Z" fill="#415780"/>
<path d="M360.51 199.337L388.529 194.503L389.103 192.091H393.105L393.174 193.702L421.472 188.819L421.771 168.245H369.258L360.51 199.337Z" fill="#28364F"/>
<path d="M416.777 178.524L415.16 321.189" stroke="#1B2536" stroke-width="0.6175" stroke-miterlimit="10"/>
<path d="M384.279 190.477L370.681 246.191L380.251 314.151" stroke="#1B2536" stroke-width="0.6175" stroke-miterlimit="10"/>
<path d="M393.105 167.856V192.234" stroke="#1B2536" stroke-width="0.6175" stroke-miterlimit="10"/>
<path d="M388.427 168.838V178.44C388.427 181.58 390.102 184.482 392.822 186.052L393.105 186.215" stroke="#1B2536" stroke-width="0.6175" stroke-miterlimit="10"/>
<path d="M379.339 190.761L400.709 189.533" stroke="#1B2536" stroke-width="0.6175" stroke-miterlimit="10"/>
<path d="M413.993 164.151H372.216V170.046H413.993V164.151Z" fill="#6E4C2E"/>
<path d="M395.763 164.151H385.769V170.046H395.763V164.151Z" fill="#1B2536"/>
<path d="M397.515 69.4199C397.515 69.4199 394.997 76.6049 400.524 78.8769L401.445 91.8339L392.48 97.2379L387.997 93.9219V90.0529C387.997 90.0529 380.383 88.5179 383.392 77.2189L383.146 71.8769C383.146 71.8769 391.989 73.1049 397.515 69.4199Z" fill="#946351"/>
<path d="M405.637 82.1858C404.423 84.4408 401.805 85.3878 399.789 84.3028C397.773 83.2178 397.124 80.5098 398.337 78.2558C399.551 76.0008 402.169 75.0538 404.185 76.1388C406.201 77.2238 406.851 79.9318 405.637 82.1858Z" fill="#946351"/>
<path d="M399.469 81.9399C398.916 78.5009 403 75.5839 404.75 78.8999" stroke="#422424" stroke-width="0.655" stroke-miterlimit="10"/>
<path d="M402.652 80.5179L401.106 77.9839" stroke="#422424" stroke-width="0.655" stroke-miterlimit="10"/>
<path d="M388.468 90.1958C390.945 90.9328 394.916 90.7078 397.72 88.3948" stroke="#422424" stroke-width="0.655" stroke-miterlimit="10"/>
<path d="M402.686 94.2139L398.637 174.769C398.305 181.375 403.571 186.912 410.185 186.912H427.666L421.607 161.53L428.423 119.717C429.442 113.468 426.415 107.255 420.867 104.206L402.686 94.2139Z" fill="#415780"/>
<path d="M415.221 130.09L421.771 159.545L424.186 144.733L415.221 130.09Z" fill="#28364F"/>
<path d="M386.073 96.7498L381.176 176.063C380.799 182.161 375.744 186.913 369.635 186.913H359.546L368.389 156.783L366.472 115.749C366.104 107.884 371.24 100.815 378.834 98.7348L386.073 96.7498Z" fill="#415780"/>
<path d="M382.688 99.0188L380.231 102.124C377.339 105.778 376.499 110.649 377.998 115.061L379.892 120.635L376.658 126.839C374.884 130.243 374.615 134.233 375.918 137.844L380.875 151.584" stroke="#28364F" stroke-width="0.655" stroke-miterlimit="10"/>
<path d="M404.823 97.8979L406.897 101.57C408.926 105.163 409.232 109.477 407.73 113.32L404.823 120.756L407.396 125.094C409.706 128.989 409.946 133.773 408.039 137.88L401.446 152.073" stroke="#28364F" stroke-width="0.655" stroke-miterlimit="10"/>
<path d="M366.26 111.423L367.571 139.295" stroke="#1B2536" stroke-width="0.6175" stroke-miterlimit="10"/>
<path d="M377.198 166.041L366.216 170.655L367.183 172.957L378.165 168.343L377.198 166.041Z" fill="white"/>
<path d="M415.99 170.622L405.008 166.009L404.041 168.311L415.023 172.924L415.99 170.622Z" fill="white"/>
<path d="M390.177 101.273L392.48 97.2378L395.306 101.273L394.384 104.361L397.147 150.723L391.497 160.303L386.073 150.723L391.19 104.361L390.177 101.273Z" fill="white"/>
<path d="M439.926 210.143H437.021C433.29 210.143 429.731 211.708 427.209 214.458L418.476 223.98H458.472L449.739 214.458C447.217 211.708 443.657 210.143 439.926 210.143Z" stroke="#D65353" stroke-width="2" stroke-miterlimit="10"/>
<path d="M468.113 221.442H408.835V241.747H468.113V221.442Z" fill="#D65353"/>
<path d="M468.113 241.747H408.835V264.015H468.113V241.747Z" fill="#1B2536"/>
<path d="M457.94 236.752H454.01V255.297H457.94V236.752Z" stroke="white" stroke-width="0.655" stroke-miterlimit="10"/>
<path d="M422.938 236.752H419.008V255.297H422.938V236.752Z" stroke="white" stroke-width="0.655" stroke-miterlimit="10"/>
<path d="M386.508 77.0858L387.39 77.3508C387.422 77.2418 387.444 77.1288 387.444 77.0088C387.444 76.3308 386.894 75.7808 386.216 75.7808C385.538 75.7808 384.988 76.3308 384.988 77.0088C384.988 77.6868 385.538 78.2368 386.216 78.2368C386.596 78.2368 386.931 78.0608 387.156 77.7898L386.508 77.0858Z" fill="#1B2536"/>
<path d="M392.869 77.0858L393.751 77.3508C393.783 77.2418 393.805 77.1288 393.805 77.0088C393.805 76.3308 393.255 75.7808 392.577 75.7808C391.899 75.7808 391.349 76.3308 391.349 77.0088C391.349 77.6868 391.899 78.2368 392.577 78.2368C392.957 78.2368 393.292 78.0608 393.517 77.7898L392.869 77.0858Z" fill="#1B2536"/>
<path d="M388.693 75.2949L389 77.2399L388.493 79.6789C388.332 80.4529 388.923 81.1789 389.713 81.1789H391.348" stroke="#422424" stroke-width="0.655" stroke-miterlimit="10"/>
<path d="M388.041 82.8129C388.041 82.8129 390.61 83.7679 393.336 81.9399" stroke="#422424" stroke-width="0.655" stroke-miterlimit="10"/>
<path d="M390.304 73.9909C390.304 73.9909 392.391 73.5439 394.179 73.9909" stroke="#1B2536" stroke-miterlimit="10"/>
<path d="M384.279 73.9909C384.279 73.9909 386.366 73.5439 388.154 73.9909" stroke="#1B2536" stroke-miterlimit="10"/>
<path d="M392.48 97.2378L402.469 91.2058L405.573 95.2128L396.021 102.294L392.48 97.2378Z" fill="#B3988B"/>
<path d="M392.48 97.2378L389.379 102.672L383.914 97.2378L386.769 93.1228L392.48 97.2378Z" fill="#B3988B"/>
<path d="M433.868 200.401L434.098 203.082L432.111 207.377C431.642 208.391 432.382 209.55 433.5 209.55L433.288 211.681C433.14 213.168 434.308 214.458 435.803 214.458H442.533C444.082 214.458 445.266 213.078 445.031 211.547L443.754 203.224L443.877 200.399H433.868V200.401Z" fill="#946351"/>
<path d="M433.417 117.424L446.875 150.634C449.213 156.403 450.204 162.63 449.772 168.84L447.48 201.814H430.941L430.122 166.935L415.221 130.091L419.445 103.426L422.434 105.069C427.408 107.802 431.286 112.165 433.417 117.424Z" fill="#415780"/>
<path d="M331.38 236.752H177.248V138.397C177.248 133.574 181.158 129.664 185.981 129.664H322.647C327.47 129.664 331.38 133.574 331.38 138.397V236.752Z" fill="#415780"/>
<path d="M322.647 343.841H185.981C181.158 343.841 177.248 339.931 177.248 335.108V236.753H331.38V335.108C331.38 339.931 327.47 343.841 322.647 343.841Z" fill="#6E9296"/>
<path d="M214.499 176.57H189.787V224.339H227.294V189.365L214.499 176.57Z" fill="#1B2536"/>
<path d="M212.671 174.677H187.959V222.447H225.466V187.472L212.671 174.677Z" fill="white"/>
<path d="M212.671 174.677V187.472H225.466L212.671 174.677Z" fill="#D9B59E"/>
<path d="M204.53 185.276H192.615V187.472H204.53V185.276Z" fill="#415780"/>
<path d="M220.81 191.024H192.615V192.122H220.81V191.024Z" fill="#415780"/>
<path d="M220.81 194.906H192.615V196.004H220.81V194.906Z" fill="#415780"/>
<path d="M220.81 198.788H192.615V199.886H220.81V198.788Z" fill="#415780"/>
<path d="M220.81 202.67H192.615V203.768H220.81V202.67Z" fill="#415780"/>
<path d="M220.81 206.551H192.615V207.649H220.81V206.551Z" fill="#415780"/>
<path d="M204.53 210.433H192.615V211.531H204.53V210.433Z" fill="#415780"/>
<path d="M261.187 176.57H236.474V224.339H273.982V189.365L261.187 176.57Z" fill="#1B2536"/>
<path d="M259.359 174.677H234.646V222.447H272.154V187.472L259.359 174.677Z" fill="white"/>
<path d="M259.359 174.677V187.472H272.154L259.359 174.677Z" fill="#D9B59E"/>
<path d="M251.217 185.276H239.302V187.472H251.217V185.276Z" fill="#415780"/>
<path d="M267.497 191.024H239.302V192.122H267.497V191.024Z" fill="#415780"/>
<path d="M267.497 194.906H239.302V196.004H267.497V194.906Z" fill="#415780"/>
<path d="M267.497 198.788H239.302V199.886H267.497V198.788Z" fill="#415780"/>
<path d="M267.497 202.67H239.302V203.768H267.497V202.67Z" fill="#415780"/>
<path d="M267.497 206.551H239.302V207.649H267.497V206.551Z" fill="#415780"/>
<path d="M251.217 210.433H239.302V211.531H251.217V210.433Z" fill="#415780"/>
<path d="M307.874 176.57H283.162V224.339H320.669V189.365L307.874 176.57Z" fill="#1B2536"/>
<path d="M306.046 174.677H281.333V222.447H318.841V187.472L306.046 174.677Z" fill="white"/>
<path d="M306.046 174.677V187.472H318.841L306.046 174.677Z" fill="#D9B59E"/>
<path d="M297.905 185.276H285.99V187.472H297.905V185.276Z" fill="#415780"/>
<path d="M314.185 191.024H285.99V192.122H314.185V191.024Z" fill="#415780"/>
<path d="M314.185 194.906H285.99V196.004H314.185V194.906Z" fill="#415780"/>
<path d="M314.185 198.788H285.99V199.886H314.185V198.788Z" fill="#415780"/>
<path d="M314.185 202.67H285.99V203.768H314.185V202.67Z" fill="#415780"/>
<path d="M314.185 206.551H285.99V207.649H314.185V206.551Z" fill="#415780"/>
<path d="M297.905 210.433H285.99V211.531H297.905V210.433Z" fill="#415780"/>
<path d="M315.669 274.023H196.135C193.374 274.023 191.135 271.784 191.135 269.023V256.653C191.135 253.892 193.374 251.653 196.135 251.653H315.669C318.43 251.653 320.669 253.892 320.669 256.653V269.023C320.669 271.784 318.43 274.023 315.669 274.023Z" fill="#496163"/>
<path d="M314.081 271.782H194.547C191.785 271.782 189.547 269.544 189.547 266.782V254.412C189.547 251.651 191.785 249.412 194.547 249.412H314.081C316.842 249.412 319.081 251.651 319.081 254.412V266.782C319.081 269.543 316.842 271.782 314.081 271.782Z" fill="white"/>
<path d="M210.582 267.8C214.563 266.056 216.378 261.414 214.634 257.432C212.889 253.451 208.248 251.636 204.266 253.38C200.284 255.125 198.47 259.766 200.214 263.748C201.958 267.73 206.6 269.544 210.582 267.8Z" fill="#D9B59E"/>
<path d="M220.39 256.112H309.082" stroke="#28364F" stroke-width="0.75" stroke-miterlimit="10" stroke-linecap="round" stroke-linejoin="round"/>
<path d="M220.39 260.597H309.082" stroke="#28364F" stroke-width="0.75" stroke-miterlimit="10" stroke-linecap="round" stroke-linejoin="round"/>
<path d="M220.39 265.081H309.082" stroke="#28364F" stroke-width="0.75" stroke-miterlimit="10" stroke-linecap="round" stroke-linejoin="round"/>
<path d="M315.669 302.602H196.135C193.374 302.602 191.135 300.363 191.135 297.602V285.232C191.135 282.471 193.374 280.232 196.135 280.232H315.669C318.43 280.232 320.669 282.471 320.669 285.232V297.602C320.669 300.364 318.43 302.602 315.669 302.602Z" fill="#496163"/>
<path d="M314.081 300.361H194.547C191.785 300.361 189.547 298.123 189.547 295.361V282.991C189.547 280.23 191.785 277.991 194.547 277.991H314.081C316.842 277.991 319.081 280.23 319.081 282.991V295.361C319.081 298.123 316.842 300.361 314.081 300.361Z" fill="white"/>
<path d="M210.582 296.379C214.564 294.635 216.378 289.993 214.634 286.011C212.89 282.029 208.248 280.215 204.266 281.959C200.285 283.703 198.47 288.345 200.214 292.327C201.959 296.309 206.6 298.123 210.582 296.379Z" fill="#D9B59E"/>
<path d="M220.39 284.692H309.082" stroke="#28364F" stroke-width="0.75" stroke-miterlimit="10" stroke-linecap="round" stroke-linejoin="round"/>
<path d="M220.39 289.176H309.082" stroke="#28364F" stroke-width="0.75" stroke-miterlimit="10" stroke-linecap="round" stroke-linejoin="round"/>
<path d="M220.39 293.661H309.082" stroke="#28364F" stroke-width="0.75" stroke-miterlimit="10" stroke-linecap="round" stroke-linejoin="round"/>
<path d="M315.669 331.182H196.135C193.374 331.182 191.135 328.943 191.135 326.182V313.812C191.135 311.051 193.374 308.812 196.135 308.812H315.669C318.43 308.812 320.669 311.051 320.669 313.812V326.182C320.669 328.943 318.43 331.182 315.669 331.182Z" fill="#496163"/>
<path d="M314.081 328.94H194.547C191.785 328.94 189.547 326.702 189.547 323.94V311.57C189.547 308.809 191.785 306.57 194.547 306.57H314.081C316.842 306.57 319.081 308.809 319.081 311.57V323.94C319.081 326.702 316.842 328.94 314.081 328.94Z" fill="white"/>
<path d="M210.583 324.959C214.565 323.215 216.379 318.573 214.635 314.591C212.891 310.61 208.249 308.795 204.267 310.539C200.286 312.283 198.471 316.925 200.215 320.907C201.959 324.889 206.601 326.703 210.583 324.959Z" fill="#D9B59E"/>
<path d="M220.39 313.271H309.082" stroke="#28364F" stroke-width="0.75" stroke-miterlimit="10" stroke-linecap="round" stroke-linejoin="round"/>
<path d="M220.39 317.756H309.082" stroke="#28364F" stroke-width="0.75" stroke-miterlimit="10" stroke-linecap="round" stroke-linejoin="round"/>
<path d="M220.39 322.24H309.082" stroke="#28364F" stroke-width="0.75" stroke-miterlimit="10" stroke-linecap="round" stroke-linejoin="round"/>
<path d="M338.208 269.117H297.56C295.016 269.117 292.953 267.054 292.953 264.51V236.143C292.953 233.599 295.016 231.536 297.56 231.536H338.208C340.752 231.536 342.815 233.599 342.815 236.143V264.51C342.815 267.054 340.753 269.117 338.208 269.117Z" fill="#D65353"/>
<path d="M338.149 235.857H297.62V263.613H338.149V235.857Z" fill="white"/>
<path d="M314.978 239.705H334.628" stroke="#415780" stroke-width="0.8713" stroke-miterlimit="10"/>
<path d="M314.978 243.472H334.628" stroke="#415780" stroke-width="0.8713" stroke-miterlimit="10"/>
<path d="M311.512 247.788L309.625 241.472C309.043 239.524 307.251 238.189 305.218 238.189H287.892C285.584 238.189 284.272 240.06 284.961 242.368L291.704 264.936C292.394 267.244 294.824 269.115 297.132 269.115H338.636C340.944 269.115 342.256 267.244 341.567 264.936L337.424 251.069C336.842 249.121 335.05 247.786 333.017 247.786H311.512V247.788Z" fill="#EBBC3B"/>
<path d="M474.936 43.6289H430.505C425.682 43.6289 421.771 47.5389 421.771 52.3619V67.9689C421.771 68.4939 421.522 68.9869 421.099 69.2979L412.252 75.8049C411.546 76.3239 411.913 77.4439 412.79 77.4439H420.122C421.033 77.4439 421.771 78.1829 421.771 79.0939V89.1649C421.771 93.9879 425.681 97.8979 430.505 97.8979H474.936C479.759 97.8979 483.669 93.9879 483.669 89.1649V52.3629C483.669 47.5389 479.759 43.6289 474.936 43.6289Z" stroke="#BEDCE0" stroke-width="1.1437" stroke-miterlimit="10"/>
<path d="M464.265 55.3359L468.809 59.8799L475.113 53.5759" stroke="#4A75C9" stroke-width="1.144" stroke-miterlimit="10" stroke-linecap="round" stroke-linejoin="round"/>
<path d="M458.861 59.465H431.433C430.438 59.465 429.632 58.659 429.632 57.664C429.632 56.669 430.438 55.863 431.433 55.863H458.861C459.856 55.863 460.662 56.669 460.662 57.664C460.662 58.658 459.856 59.465 458.861 59.465Z" fill="#EBBC3B"/>
<path d="M464.265 69.3718L468.809 73.9158L475.113 67.6108" stroke="#4A75C9" stroke-width="1.144" stroke-miterlimit="10" stroke-linecap="round" stroke-linejoin="round"/>
<path d="M458.861 73.4999H431.433C430.438 73.4999 429.632 72.6929 429.632 71.6989C429.632 70.7039 430.438 69.8979 431.433 69.8979H458.861C459.856 69.8979 460.662 70.7039 460.662 71.6989C460.662 72.6939 459.856 73.4999 458.861 73.4999Z" fill="#EBBC3B"/>
<path d="M464.265 83.407L468.809 87.952L475.113 81.647" stroke="#4A75C9" stroke-width="1.144" stroke-miterlimit="10" stroke-linecap="round" stroke-linejoin="round"/>
<path d="M458.861 87.5358H431.433C430.438 87.5358 429.632 86.7298 429.632 85.7348C429.632 84.7398 430.438 83.9338 431.433 83.9338H458.861C459.856 83.9338 460.662 84.7398 460.662 85.7348C460.662 86.7298 459.856 87.5358 458.861 87.5358Z" fill="#EBBC3B"/>
<path d="M341.04 39.3719H413.762C416.376 39.3719 418.495 37.2529 418.495 34.6389V23.1499C418.495 4.80986 402.775 -8.61815 387.272 6.61085C373.954 -6.16215 358.234 6.11985 358.234 18.0739C347.539 14.4579 338.361 20.8249 336.366 33.8659C335.925 36.7529 338.119 39.3719 341.04 39.3719Z" fill="#BEDCE0"/>
<path d="M314.501 162.508H177.835C173.012 162.508 169.102 158.598 169.102 153.775V64.1529C169.102 59.3299 173.012 55.4189 177.835 55.4189H314.501C319.324 55.4189 323.234 59.3289 323.234 64.1529V153.775C323.234 158.597 319.324 162.508 314.501 162.508Z" fill="#EBBC3B"/>
<path d="M218.415 147.748C239.835 147.748 257.2 130.383 257.2 108.963C257.2 87.5426 239.835 70.178 218.415 70.178C196.995 70.178 179.63 87.5426 179.63 108.963C179.63 130.383 196.995 147.748 218.415 147.748Z" fill="white"/>
<path d="M256.493 101.6C253.052 83.702 237.317 70.179 218.415 70.179V108.964L256.493 101.6Z" fill="#D65353"/>
<path d="M257.2 108.963C257.2 106.444 256.951 103.984 256.493 101.599L218.415 108.963L222.233 147.559C241.861 145.641 257.2 129.095 257.2 108.963Z" fill="#4A75C9"/>
<path d="M218.415 108.963L181.813 96.1331C180.405 100.15 179.631 104.465 179.631 108.963C179.631 130.383 196.996 147.748 218.416 147.748C219.705 147.748 220.978 147.682 222.234 147.559L218.415 108.963Z" fill="#6E9296"/>
<path d="M181.813 96.133L218.415 108.963L188.429 84.366C185.58 87.835 183.328 91.811 181.813 96.133Z" fill="#415780"/>
<path d="M270.989 82.9199C270.989 85.2489 269.101 87.1369 266.772 87.1369C264.443 87.1369 262.555 85.2489 262.555 82.9199C262.555 80.5909 264.443 78.7029 266.772 78.7029C269.101 78.7029 270.989 80.5909 270.989 82.9199Z" fill="#D65353"/>
<path d="M273.728 82.9199H306.286" stroke="white" stroke-width="0.8416" stroke-miterlimit="10"/>
<path d="M270.989 95.9418C270.989 98.2708 269.101 100.158 266.772 100.158C264.443 100.158 262.555 98.2698 262.555 95.9418C262.555 93.6128 264.443 91.7249 266.772 91.7249C269.101 91.7249 270.989 93.6128 270.989 95.9418Z" fill="#4A75C9"/>
<path d="M273.728 95.9419H306.286" stroke="white" stroke-width="0.8416" stroke-miterlimit="10"/>
<path d="M270.989 108.963C270.989 111.292 269.101 113.179 266.772 113.179C264.443 113.179 262.555 111.291 262.555 108.963C262.555 106.634 264.443 104.746 266.772 104.746C269.101 104.747 270.989 106.634 270.989 108.963Z" fill="#6E9296"/>
<path d="M273.728 108.963H306.286" stroke="white" stroke-width="0.8416" stroke-miterlimit="10"/>
<path d="M270.989 121.985C270.989 124.314 269.101 126.201 266.772 126.201C264.443 126.201 262.555 124.313 262.555 121.985C262.555 119.656 264.443 117.768 266.772 117.768C269.101 117.768 270.989 119.656 270.989 121.985Z" fill="#415780"/>
<path d="M273.728 121.985H306.286" stroke="white" stroke-width="0.8416" stroke-miterlimit="10"/>
<path d="M270.989 135.007C270.989 137.336 269.101 139.224 266.772 139.224C264.443 139.224 262.555 137.336 262.555 135.007C262.555 132.678 264.443 130.79 266.772 130.79C269.101 130.79 270.989 132.678 270.989 135.007Z" fill="white"/>
<path d="M273.728 135.007H306.286" stroke="white" stroke-width="0.8416" stroke-miterlimit="10"/>
<path d="M60.342 134.58L69.573 133.932C70.494 133.867 71.301 134.543 71.399 135.461L72.023 141.311C72.152 142.524 71.202 143.581 69.982 143.581H61.845C60.824 143.581 59.958 142.83 59.813 141.819L59.014 136.223C58.897 135.393 59.507 134.638 60.342 134.58Z" fill="#DE6767"/>
<path d="M61.38 135.841L62.881 143.58" stroke="#6E3C3C" stroke-width="0.5" stroke-miterlimit="10"/>
<path d="M64.618 135.841L66.12 143.58" stroke="#6E3C3C" stroke-width="0.5" stroke-miterlimit="10"/>
<path d="M67.8571 135.841L69.3581 143.58" stroke="#6E3C3C" stroke-width="0.5" stroke-miterlimit="10"/>
<path d="M160.45 134.58L151.219 133.932C150.298 133.867 149.491 134.543 149.393 135.461L148.769 141.311C148.64 142.524 149.59 143.581 150.81 143.581H158.947C159.968 143.581 160.834 142.83 160.979 141.819L161.778 136.223C161.895 135.393 161.285 134.638 160.45 134.58Z" fill="#DE6767"/>
<path d="M159.412 135.841L157.911 143.58" stroke="#6E3C3C" stroke-width="0.5" stroke-miterlimit="10"/>
<path d="M156.173 135.841L154.672 143.58" stroke="#6E3C3C" stroke-width="0.5" stroke-miterlimit="10"/>
<path d="M152.935 135.841L151.433 143.58" stroke="#6E3C3C" stroke-width="0.5" stroke-miterlimit="10"/>
<path d="M323.959 61.4219L318.517 66.8638L348.159 96.5061L353.601 91.0642L323.959 61.4219Z" fill="#4A75C9"/>
<path d="M318.521 66.8619L321.485 69.8259C323.829 68.7939 326.028 67.3249 327.948 65.4039L323.964 61.4199L318.521 66.8619Z" fill="#1B2536"/>
<path d="M334.919 72.3831L329.478 77.825L348.158 96.5058L353.6 91.064L334.919 72.3831Z" fill="#1B2536"/>
<path d="M307.666 71.8119C319.4 71.8119 328.913 62.2993 328.913 50.5649C328.913 38.8305 319.4 29.3179 307.666 29.3179C295.932 29.3179 286.419 38.8305 286.419 50.5649C286.419 62.2993 295.932 71.8119 307.666 71.8119Z" fill="#4A75C9"/>
<path d="M318.931 39.2998C325.152 45.5218 325.152 55.6088 318.931 61.8298C312.709 68.0518 302.622 68.0518 296.401 61.8298C290.18 55.6078 290.18 45.5208 296.401 39.2998C302.622 33.0778 312.709 33.0778 318.931 39.2998Z" fill="white"/>
<path d="M298.767 59.4639C298.365 59.0619 297.996 58.64 297.66 58.2" stroke="#BEDCE0" stroke-width="1.7467" stroke-miterlimit="10"/>
<path d="M296.051 55.419C294.144 50.85 295.049 45.385 298.767 41.667" stroke="#BEDCE0" stroke-width="1.7467" stroke-miterlimit="10"/>
<path d="M180.563 69.6698H144.153C142.726 69.6698 141.353 70.2128 140.313 71.1878L132.281 78.7148C131.236 79.6938 129.527 78.9528 129.527 77.5218V26.6568C129.527 21.8338 133.437 17.9238 138.26 17.9238H180.563C185.386 17.9238 189.296 21.8338 189.296 26.6568V60.9358C189.297 65.7598 185.387 69.6698 180.563 69.6698Z" fill="#6E9296"/>
<path d="M177.802 32.0389H141.022C140.055 32.0389 139.27 31.2549 139.27 30.2869C139.27 29.3199 140.054 28.5349 141.022 28.5349H177.801C178.768 28.5349 179.553 29.3189 179.553 30.2869C179.553 31.2549 178.769 32.0389 177.802 32.0389Z" stroke="white" stroke-width="0.6815" stroke-miterlimit="10"/>
<path d="M177.802 41.046H141.022C140.055 41.046 139.27 40.262 139.27 39.294C139.27 38.327 140.054 37.542 141.022 37.542H177.801C178.768 37.542 179.553 38.326 179.553 39.294C179.553 40.261 178.769 41.046 177.802 41.046Z" stroke="white" stroke-width="0.6815" stroke-miterlimit="10"/>
<path d="M177.802 50.0519H141.022C140.055 50.0519 139.27 49.2679 139.27 48.2999C139.27 47.3319 140.054 46.5479 141.022 46.5479H177.801C178.768 46.5479 179.553 47.3319 179.553 48.2999C179.553 49.2679 178.769 50.0519 177.802 50.0519Z" stroke="white" stroke-width="0.6815" stroke-miterlimit="10"/>
<path d="M177.802 59.058H141.022C140.055 59.058 139.27 58.274 139.27 57.306C139.27 56.339 140.054 55.554 141.022 55.554H177.801C178.768 55.554 179.553 56.338 179.553 57.306C179.553 58.274 178.769 59.058 177.802 59.058Z" stroke="white" stroke-width="0.6815" stroke-miterlimit="10"/>
</svg>
