<svg width="661" height="439" viewBox="0 0 661 439" fill="none" xmlns="http://www.w3.org/2000/svg">
<path d="M126.234 296.309C129.102 295.856 131.966 295.408 134.825 294.982C200.198 285.232 269.478 287.282 329.003 316.011C353.65 327.906 378.327 344.653 405.583 342.188C425.527 340.384 442.909 328.447 459.28 316.914C499.174 288.81 540.706 260.096 588.62 250.845C605.432 247.599 623.174 246.691 638.239 238.552C653.304 230.414 664.677 211.697 657.553 196.126C651.928 183.83 637.751 178.558 626.386 171.231C595.48 151.307 582.343 112.333 554.423 88.404C535.186 71.917 507.413 59.4361 482.007 60.8991C452.98 62.5701 425.291 74.019 396.063 73.874C338.773 73.589 296.521 30.486 245.265 12.246C230.125 6.85805 212.67 5.37305 197.192 10.256C173.617 17.695 162.886 39.9481 153.711 61.0091C144.563 82.0071 139.364 103.818 125.396 122.428C99.4811 156.954 56.5121 166.344 25.5871 194.756C9.84006 209.223 -2.27594 231.083 1.72506 253.065C6.46606 279.116 32.8911 295.761 57.3351 299.974C80.1171 303.901 103.298 299.934 126.234 296.309Z" fill="#E8ECF9"/>
<path d="M71.4751 111.053L78.5651 118.143" stroke="#A0B3EA" stroke-width="1.5" stroke-miterlimit="10" stroke-linejoin="round"/>
<path d="M78.5651 111.053L71.4751 118.143" stroke="#A0B3EA" stroke-width="1.5" stroke-miterlimit="10" stroke-linejoin="round"/>
<path d="M651.081 331.652L658.171 338.742" stroke="#A0B3EA" stroke-width="1.5" stroke-miterlimit="10" stroke-linejoin="round"/>
<path d="M658.171 331.652L651.081 338.742" stroke="#A0B3EA" stroke-width="1.5" stroke-miterlimit="10" stroke-linejoin="round"/>
<path d="M160.84 322.628L167.93 329.718" stroke="#A0B3EA" stroke-width="1.5" stroke-miterlimit="10" stroke-linejoin="round"/>
<path d="M167.93 322.628L160.84 329.718" stroke="#A0B3EA" stroke-width="1.5" stroke-miterlimit="10" stroke-linejoin="round"/>
<path d="M467.913 1.11102L475.003 8.20202" stroke="#A0B3EA" stroke-width="1.5" stroke-miterlimit="10" stroke-linejoin="round"/>
<path d="M475.003 1.11102L467.913 8.20202" stroke="#A0B3EA" stroke-width="1.5" stroke-miterlimit="10" stroke-linejoin="round"/>
<path d="M354.136 44.185L361.226 51.275" stroke="#A0B3EA" stroke-width="1.5" stroke-miterlimit="10" stroke-linejoin="round"/>
<path d="M361.226 44.185L354.136 51.275" stroke="#A0B3EA" stroke-width="1.5" stroke-miterlimit="10" stroke-linejoin="round"/>
<path d="M288.526 9.49402H317.984" stroke="#A0B3EA" stroke-width="1.5" stroke-miterlimit="10" stroke-linejoin="round"/>
<path d="M326.228 9.49402H349.093" stroke="#A0B3EA" stroke-width="1.5" stroke-miterlimit="10" stroke-linejoin="round"/>
<path d="M325.352 196.266H292.896C288.354 196.266 284.672 192.584 284.672 188.042C284.672 183.5 288.354 179.818 292.896 179.818H325.352C329.894 179.818 333.576 183.5 333.576 188.042C333.576 192.585 329.894 196.266 325.352 196.266Z" stroke="#A0B3EA" stroke-width="1.5" stroke-miterlimit="10" stroke-linejoin="round"/>
<path d="M614.519 76.225H598.434C595.252 76.225 592.672 78.805 592.672 81.987C592.672 85.169 595.252 87.749 598.434 87.749H614.519C617.701 87.749 620.28 85.169 620.28 81.987C620.28 78.805 617.701 76.225 614.519 76.225Z" stroke="#A0B3EA" stroke-width="1.5" stroke-miterlimit="10" stroke-linejoin="round"/>
<path d="M397.31 107.966H382.514C376.66 107.966 371.914 112.712 371.914 118.566C371.914 124.42 376.66 129.166 382.514 129.166H397.31C403.164 129.166 407.91 124.42 407.91 118.566C407.91 112.712 403.165 107.966 397.31 107.966Z" stroke="#A0B3EA" stroke-width="1.5" stroke-miterlimit="10" stroke-linejoin="round"/>
<path d="M576.477 28.315H594.492" stroke="#A0B3EA" stroke-width="1.5" stroke-miterlimit="10" stroke-linejoin="round"/>
<path d="M39.7051 89.502H76.1771" stroke="#A0B3EA" stroke-width="1.5" stroke-miterlimit="10" stroke-linejoin="round"/>
<path d="M315.819 302.89H83.824C75.937 302.89 69.193 297.14 67.843 289.264L45.173 157.04C43.513 147.357 50.867 138.497 60.563 138.497H286.217C294.915 138.497 302.351 144.838 303.841 153.523L327.116 289.278C328.335 296.386 322.936 302.89 315.819 302.89Z" fill="#E3CDC5"/>
<path d="M86.852 280.671L65.873 158.309C65.022 153.343 68.793 148.799 73.766 148.799H286.992C291.684 148.799 295.695 152.219 296.499 156.904L317.721 280.683" stroke="#B28C80" stroke-miterlimit="10"/>
<path d="M397.096 302.89H280.838C277.295 302.89 274.265 300.307 273.659 296.769L263.638 238.323C262.807 233.475 266.489 229.039 271.344 229.039H374.32C383.706 229.039 391.732 235.882 393.338 245.254L402.171 296.775C402.719 299.968 400.294 302.89 397.096 302.89Z" fill="#E3CDC5"/>
<path d="M377.449 296.775L368.616 245.254C367.009 235.881 358.983 229.039 349.598 229.039H291.963" stroke="#B28C80" stroke-miterlimit="10"/>
<path d="M378.482 302.89H96.371V283.185H370.34C373.1 283.185 375.459 285.175 375.923 287.896L378.482 302.89Z" stroke="#B28C80" stroke-miterlimit="10"/>
<path d="M263.674 371.17L278.602 312.31C280.03 306.68 283.995 302.891 288.458 302.891H389.324C394.006 302.891 398.11 307.055 399.353 313.065L411.369 371.171" stroke="#D8B6AF" stroke-width="3" stroke-miterlimit="10"/>
<path d="M382.089 302.89H83.824" stroke="#D8B6AF" stroke-width="3" stroke-miterlimit="10"/>
<path d="M180.993 302.89H64.735C61.192 302.89 58.162 300.307 57.556 296.769L47.535 238.323C46.704 233.475 50.386 229.039 55.241 229.039H158.217C167.603 229.039 175.629 235.882 177.235 245.254L186.068 296.775C186.616 299.968 184.191 302.89 180.993 302.89Z" fill="#E3CDC5"/>
<path d="M180.993 302.89H64.735C61.192 302.89 58.162 300.307 57.556 296.769L47.535 238.323C46.704 233.475 50.386 229.039 55.241 229.039H158.217C167.603 229.039 175.629 235.882 177.235 245.254L186.068 296.775C186.616 299.968 184.191 302.89 180.993 302.89Z" stroke="#B28C80" stroke-miterlimit="10"/>
<path d="M156.271 302.89C159.469 302.89 161.893 299.968 161.346 296.775L152.513 245.254C150.906 235.881 142.88 229.039 133.495 229.039H57.636" stroke="#B28C80" stroke-miterlimit="10"/>
<path d="M47.417 371.17L62.345 312.31C63.773 306.68 67.738 302.891 72.201 302.891H173.067C177.749 302.891 181.853 307.055 183.096 313.065L195.112 371.171" stroke="#B28C80" stroke-width="3" stroke-miterlimit="10"/>
<path d="M21.316 371.17H437.771" stroke="#A0B3EA" stroke-width="1.5" stroke-miterlimit="10"/>
<path d="M252.504 211.721L263.519 222.601C263.519 222.601 315.362 233.657 325.108 236.677C339.728 241.207 352.802 250.046 349.85 275.846C346.015 309.365 337.869 356.517 337.869 356.517L298.048 345.645L304.297 279.812C304.297 279.812 243.296 271.216 230.874 264.039C218.452 256.863 214.226 222.601 214.226 222.601" fill="#361E14"/>
<path d="M304.628 279.671C310.512 277.108 316.225 274.09 321.71 270.646" stroke="black" stroke-miterlimit="10" stroke-linejoin="round"/>
<path d="M336.766 354.306L344.583 369.983C344.583 369.983 357.796 377.058 362.412 379.558C360.222 380.101 297.015 380.854 297.03 380.455C297.152 377.217 297.818 375.313 297.67 371.062C297.6 369.039 294.03 356.452 294.03 356.452" fill="#D37F59"/>
<path d="M297.273 371.062L344.158 369.13C344.158 369.13 364.71 380.593 367.866 383.049C371.023 385.506 373.292 388.729 373.415 391.848C369.694 391.848 295.875 391.848 295.875 391.848C295.875 391.848 296.519 378.94 297.273 371.062Z" fill="#D1B0A1"/>
<path d="M296.191 386.086H370.973" stroke="#9E796A" stroke-miterlimit="10" stroke-linejoin="round"/>
<path d="M296.896 375.481C296.896 375.481 305.306 377.457 309.124 386.086" stroke="#9E796A" stroke-miterlimit="10" stroke-linejoin="round"/>
<path d="M347.601 371.062L338.799 375.481" stroke="#9E796A" stroke-miterlimit="10" stroke-linejoin="round"/>
<path d="M353.516 374.142L344.714 378.561" stroke="#9E796A" stroke-miterlimit="10" stroke-linejoin="round"/>
<path d="M186.986 235.243C186.986 235.243 192.766 284.117 216.912 284.117C241.059 284.117 263.518 284.117 263.518 284.117L291.27 366.936L339.726 359.781C339.726 359.781 312.26 274.296 306.687 259.872C303.489 251.594 296.777 243.825 276.704 239.963C256.631 236.101 242.746 235.242 242.746 235.242L227.048 214.836" fill="#361E14"/>
<path d="M263.518 284.118H275.997" stroke="black" stroke-miterlimit="10" stroke-linejoin="round"/>
<path d="M287.038 354.306L335.507 346.69" stroke="#5B392D" stroke-miterlimit="10" stroke-linejoin="round"/>
<path d="M299.987 270.177C300.312 278.622 299.659 287.111 298.047 295.382" stroke="black" stroke-miterlimit="10" stroke-linejoin="round"/>
<path d="M304.358 279.892C304.389 284.453 304.64 289.013 305.111 293.545" stroke="black" stroke-miterlimit="10" stroke-linejoin="round"/>
<path d="M337.965 354.306C329.664 328.637 310.692 270.235 306.688 259.873C303.49 251.595 296.778 243.826 276.705 239.964C256.632 236.102 245.784 235.243 245.784 235.243L232.426 214.837" stroke="black" stroke-miterlimit="10" stroke-linejoin="round"/>
<path d="M258.936 391.848H380.707" stroke="#A0B3EA" stroke-width="1.5" stroke-miterlimit="10"/>
<path d="M312.947 139.377C312.947 139.377 318.602 129.711 319.036 129.444C319.402 129.219 340.867 122.247 344.511 120.888C345.161 120.645 345.806 120.387 346.446 120.111C346.909 119.912 347.622 119.746 347.938 119.28C348.532 118.407 348.228 118.023 347.641 117.504C345.599 115.699 341.02 117.289 338.609 117.442C336.474 117.577 334.234 117.176 334.234 117.176C334.234 117.176 343.612 116.779 348.15 115.139C349.246 114.743 353.369 113.854 352.607 111.963C352.465 111.61 352.271 111.086 351.129 110.564C350.313 110.191 349.73 110.205 349.73 110.205C349.73 110.205 352.346 109.616 352.31 108.828C352.242 107.363 349.594 106.407 348.793 106.421C344.361 106.501 337.581 106.868 337.581 106.868C337.581 106.868 341.58 105.822 342.976 105.199C343.843 104.812 345.091 104.516 345.763 103.792C345.874 103.672 345.983 103.538 346.03 103.374C346.434 101.97 343.988 101.451 343.19 101.543C340.143 101.896 337.209 102.7 334.233 103.412C330.914 104.206 323.451 103.135 323.451 103.135C323.451 103.135 325.144 101.101 325.802 100.454C326.455 99.812 327.08 99.132 327.538 98.335C328.527 96.616 327.766 94.631 326.061 95.41C321.513 97.487 316.538 99.303 312.067 101.546C308.137 103.517 304.361 105.851 301.046 108.775C297.622 111.795 295.114 115.659 292.558 119.417C291.197 121.417 289.861 123.436 288.561 125.477" fill="#D37F59"/>
<path d="M338.308 106.696C336.143 107.001 330.204 107.554 330.204 107.554" stroke="black" stroke-miterlimit="10" stroke-linejoin="round"/>
<path d="M350.032 110.189C347.836 110.519 344.912 111.316 341.891 111.56C337.214 111.938 332.756 111.56 332.756 111.56" stroke="black" stroke-miterlimit="10" stroke-linejoin="round"/>
<path d="M334.441 117.099C331.343 117.196 328.378 116.661 325.318 116.305C322.973 116.032 320.605 115.954 318.247 116.071C316.557 116.155 313.676 115.977 312.246 117.078" stroke="black" stroke-miterlimit="10" stroke-linejoin="round"/>
<path d="M288.676 122.91L294.806 114.375L322.003 129.105L313.526 142.505" fill="#FFEADF"/>
<path d="M208.329 118.919C208.329 118.919 222.254 116.08 227.897 117.561C233.539 119.041 241.719 125.851 250.483 133.105C259.247 140.359 269.002 148.799 269.002 148.799L291.235 118.211L320.328 134.004C320.328 134.004 297.148 176.657 292.036 182.991C287.829 188.203 277.651 199.872 262.607 189.657C247.562 179.442 231.433 165.971 231.433 165.971" fill="#CE9989"/>
<path d="M315.424 135.302C315.424 136.019 314.851 136.6 314.144 136.6C313.437 136.6 312.864 136.019 312.864 135.302C312.864 134.585 313.437 134.004 314.144 134.004C314.851 134.004 315.424 134.585 315.424 135.302Z" stroke="#AA7265" stroke-miterlimit="10" stroke-linejoin="round"/>
<path d="M313.294 130.186L307.624 139.075" stroke="#AA7265" stroke-miterlimit="10" stroke-linejoin="round"/>
<path d="M155.18 129.863L177.197 120.124C177.197 120.124 182.659 123.915 195.492 124.646C203.992 125.13 206.335 121.159 207.539 120.124C208.743 119.089 219.647 124.737 219.647 124.737L266.77 219.926C262.174 235.777 186.877 236.676 186.877 236.676L155.18 129.863Z" fill="#FFEADF"/>
<path d="M169.442 123.749C177.536 129.805 190 132.066 199.416 131.349C205.844 130.86 210.347 128.777 212.36 122.293" stroke="black" stroke-miterlimit="10" stroke-linejoin="round"/>
<path d="M152.594 143.869C180.743 143.936 210.447 145.746 236.959 136.73" stroke="white" stroke-miterlimit="10"/>
<path d="M159.552 165.72C187.701 165.787 217.405 167.597 243.917 158.581" stroke="white" stroke-miterlimit="10"/>
<path d="M166.84 187.2C194.989 187.267 224.693 189.077 251.205 180.061" stroke="white" stroke-miterlimit="10"/>
<path d="M172.044 205.019C200.193 205.086 229.897 206.896 256.409 197.88" stroke="white" stroke-miterlimit="10"/>
<path d="M181.12 221.916C210.016 222.021 240.508 224.87 267.723 210.681" stroke="white" stroke-miterlimit="10"/>
<path d="M203.686 119.224C211.25 129.053 216.913 140.223 222.332 151.413C234.478 176.496 256.065 232.093 257.532 232.688C258.928 233.254 277.308 228.175 284.175 225.858C284.175 225.858 278.925 217.624 271.081 203.711C263.237 189.798 241.274 143.091 236.96 136.73C232.646 130.369 219.115 118.212 219.115 118.212L203.686 119.224Z" fill="#CE9989"/>
<path d="M222.13 140.606C223.793 143.834 225.395 147.096 226.975 150.36C239.121 175.443 262.174 231.634 262.174 231.634" stroke="#AA7265" stroke-miterlimit="10" stroke-linejoin="round"/>
<path d="M217.413 141.516C218.711 141.054 232.217 139.445 231.395 135.551C230.675 132.14 219.414 120.028 217.661 118.211" stroke="#AA7265" stroke-miterlimit="10" stroke-linejoin="round"/>
<path d="M269.001 148.799L260.378 160.962" stroke="black" stroke-miterlimit="10" stroke-linejoin="round"/>
<path d="M246.774 155.424C246.25 155.674 236.11 159.105 236.11 159.105C236.11 159.105 240.93 166.048 242.776 166.36C244.622 166.672 251.099 164.153 251.099 164.153" stroke="#AA7265" stroke-miterlimit="10" stroke-linejoin="round"/>
<path d="M236.11 159.105C236.11 159.105 245.249 178.84 247.771 179.143C250.293 179.446 257.405 176.723 257.405 176.723" stroke="#AA7265" stroke-miterlimit="10" stroke-linejoin="round"/>
<path d="M264.69 190.952C264.69 190.952 242.775 148.928 241.426 141.767" stroke="black" stroke-miterlimit="10" stroke-linejoin="round"/>
<path d="M284.175 127.923L315.424 143.304" stroke="#AA7265" stroke-miterlimit="10" stroke-linejoin="round"/>
<path d="M156.912 125.467L172.853 121.893C172.853 121.893 188.999 145.388 202.326 174.814C212.54 197.367 228.336 240.154 227.887 242.636C227.438 245.118 192.427 252.754 188.239 251.525C186.008 250.871 171.651 209.887 168.953 205.308C166.255 200.73 145.054 157.294 145.054 157.294L156.912 125.467Z" fill="#CE9989"/>
<path d="M158.113 125.198C158.113 125.198 164.435 147.434 168.251 148.799C172.067 150.164 187.542 145.843 187.542 145.843" stroke="#AA7265" stroke-miterlimit="10" stroke-linejoin="round"/>
<path d="M181.058 147.457C181.058 147.457 201.142 188.741 207.54 204.11C213.938 219.479 222.283 244.067 222.283 244.067" stroke="#AA7265" stroke-miterlimit="10" stroke-linejoin="round"/>
<path d="M201.027 188.591C199.982 190.379 181.333 196.007 179.478 195.334C176.798 194.362 169.804 173.876 169.804 173.876L194.763 167.233C194.763 167.233 202.073 186.803 201.027 188.591Z" fill="#CE9989" stroke="#AA7265" stroke-miterlimit="10" stroke-linejoin="round"/>
<path d="M194.763 167.234L169.804 173.877C169.804 173.877 174.764 183.215 176.669 183.688C178.725 184.198 197.547 179.484 198.482 178.104C199.416 176.723 194.763 167.234 194.763 167.234Z" fill="#CE9989" stroke="#AA7265" stroke-miterlimit="10" stroke-linejoin="round"/>
<path d="M185.875 114.381C179.775 110.896 174.084 105.177 171.936 98.284C169.157 89.368 173.334 79.986 181.449 75.752C187.555 72.566 194.236 71.856 200.341 75.156C204.889 77.614 207.327 82.444 209.099 87.055C210.515 90.739 211.889 94.441 213.128 98.189C215.107 104.174 214.788 112.039 209.023 115.834C202.214 120.316 193.291 118.618 185.875 114.381Z" fill="#D37F59"/>
<path d="M196.785 95.514C197.077 96.534 196.734 97.53 196.02 97.741C195.306 97.951 194.49 97.295 194.198 96.275C193.906 95.255 194.249 94.259 194.963 94.048C195.678 93.838 196.494 94.495 196.785 95.514Z" fill="black"/>
<path d="M208.833 92.861C209.125 93.881 208.782 94.877 208.068 95.088C207.354 95.298 206.538 94.642 206.246 93.622C205.954 92.602 206.297 91.605 207.011 91.395C207.725 91.185 208.541 91.841 208.833 92.861Z" fill="black"/>
<path d="M189.389 93.686C191.034 91.448 193.729 90.041 196.483 89.983" stroke="black" stroke-miterlimit="10" stroke-linejoin="round"/>
<path d="M203.353 88.494C205.155 87.748 207.191 87.181 209.023 87.849" stroke="black" stroke-miterlimit="10" stroke-linejoin="round"/>
<path d="M177.61 103.808L174.357 121.738C174.357 121.738 181.356 126.002 192.651 127.423C201.778 128.571 205.702 125.696 205.702 125.696L207.018 113.95" fill="#D37F59"/>
<path d="M201.735 89.392C202.695 91.555 203.928 93.665 205.416 95.688C206.008 96.493 206.661 97.369 206.423 98.238C206.237 98.916 205.518 99.463 204.673 99.808C203.828 100.152 202.858 100.323 201.902 100.49" stroke="black" stroke-miterlimit="10" stroke-linejoin="round"/>
<path d="M201.027 104.284C202.149 108.783 210.386 111.108 208.713 102.822L201.027 104.284Z" fill="white"/>
<path d="M191.752 116.504C196.916 118.564 202.267 118.759 207.079 116.845" stroke="black" stroke-miterlimit="10" stroke-linejoin="round"/>
<path d="M210.16 77.869C210.069 77.769 209.988 77.661 209.924 77.54C209.577 76.88 209.865 76.061 210.253 75.425C210.641 74.788 211.14 74.178 211.238 73.436C211.424 72.016 210.071 70.871 208.748 70.37C207.425 69.868 205.927 69.66 204.881 68.698C203.669 67.583 203.405 65.781 202.619 64.327C201.779 62.773 200.28 61.6 198.583 61.17C196.737 60.702 194.786 61.094 192.965 61.654C190.762 62.331 188.633 63.255 186.629 64.402C184.891 65.396 183.204 66.577 181.257 67.024C180.032 67.305 178.752 67.282 177.535 67.595C176.129 67.956 174.874 68.747 173.644 69.526C169.846 71.933 167.85 75.587 166.434 79.829C166.195 80.544 165.974 81.276 165.572 81.912C165.115 82.635 164.45 83.192 163.87 83.817C160.852 87.066 159.884 93.972 161.497 98.086C162.038 99.466 162.905 100.692 163.857 101.82C165.635 103.928 167.976 105.613 170.098 107.419C172.344 109.331 173.728 111.709 175.607 113.97C175.678 114.055 175.764 114.148 175.874 114.146C175.982 114.143 176.064 114.05 176.129 113.963C177.482 112.171 178.198 109.953 178.514 107.72C178.935 104.742 178.29 101.656 179.204 98.781C180.041 96.148 181.034 93.507 181.689 90.81C181.857 90.117 182.016 89.407 182.385 88.8C183.861 86.368 187.942 86.572 189.167 84C189.422 83.464 189.567 82.796 190.091 82.527C190.372 82.383 190.701 82.392 191.015 82.388C193.651 82.357 196.251 81.124 197.964 79.093C199.291 79.883 200.867 80.236 202.399 80.086C203.219 80.006 204.222 79.705 204.951 80.191C205.54 80.584 206.066 81.601 206.47 82.183C206.819 82.687 209.331 86.176 208.991 86.68C209.964 85.242 210.953 83.77 211.422 82.092C211.754 80.904 211.761 79.488 210.928 78.587C210.688 78.329 210.392 78.124 210.16 77.869Z" fill="#272224"/>
<path d="M189.773 82.444C190.226 82.099 190.362 81.484 190.523 80.933C190.904 79.63 191.597 78.422 192.527 77.442" stroke="#473F42" stroke-miterlimit="10" stroke-linejoin="round"/>
<path d="M197.983 79.086C198.87 77.68 199.616 76.182 200.206 74.623" stroke="#473F42" stroke-miterlimit="10" stroke-linejoin="round"/>
<path d="M204.512 79.69C205.915 79.613 207.287 79.053 208.351 78.123" stroke="#473F42" stroke-miterlimit="10" stroke-linejoin="round"/>
<path d="M197.874 68.788C197.86 70.468 196.922 72.11 195.49 72.957C194.618 73.473 194.289 74.371 193.855 75.295" stroke="#473F42" stroke-miterlimit="10" stroke-linejoin="round"/>
<path d="M165.378 82.168C169.47 81.319 173.842 81.932 177.553 83.874" stroke="#473F42" stroke-miterlimit="10" stroke-linejoin="round"/>
<path d="M170.774 87.748C170.164 89.24 169.7 90.813 169.627 92.427C169.515 94.869 170.307 97.283 171.485 99.415C172.663 101.548 174.219 103.437 175.766 105.312" stroke="#473F42" stroke-miterlimit="10" stroke-linejoin="round"/>
<path d="M165.996 98.711C166.807 100.892 168.528 102.708 170.645 103.618" stroke="#473F42" stroke-miterlimit="10" stroke-linejoin="round"/>
<path d="M174.913 98.571C171.913 100.077 171.996 104.883 173.424 107.442C174.318 109.043 175.879 110.3 177.435 111.196C179.349 112.298 180.908 112.483 183.034 111.864C183.644 111.686 184.267 111.498 184.777 111.115C187.683 108.936 183.502 103.873 182.214 101.916C181.474 100.792 180.649 99.691 179.555 98.918C178.037 97.845 176.521 97.764 174.913 98.571Z" fill="#D37F59"/>
<path d="M175.898 103.631C178.684 104.068 180.364 104.99 183.058 105.832" stroke="black" stroke-miterlimit="10" stroke-linejoin="round"/>
<path d="M174.014 99.031C175.004 98.121 176.445 97.785 177.757 98.044C179.069 98.303 180.242 99.12 181.058 100.193" stroke="black" stroke-miterlimit="10" stroke-linejoin="round"/>
<path d="M178.724 111.869C179.446 112.178 180.22 112.359 181.002 112.401C182.122 112.462 183.279 112.228 184.217 111.604C185.158 110.978 185.843 109.969 186.082 108.854" stroke="black" stroke-miterlimit="10" stroke-linejoin="round"/>
<path d="M182.694 214.837C191.686 218.609 201.869 222.684 207.101 227.99C210.166 231.099 213.029 234.835 214.074 239.206C214.883 242.59 215.081 244.395 215.476 247.86C215.567 248.654 215.557 250.519 215.204 251.227C214.851 251.935 213.702 251.519 213.702 251.519C213.702 251.519 213.853 255.228 213.02 255.507C211.47 256.027 210.518 254.988 210.028 254.534C208.045 255.231 207.103 255.826 205.55 254.084C205.671 254.547 204.837 254.994 204.364 254.984C203.891 254.974 201.858 254.826 201.489 254.534C199.331 252.825 197.646 250.508 195.445 248.833C193.82 247.596 192.023 246.195 190.198 245.316C188.288 244.397 186.191 244.019 184.17 243.474C180.303 242.431 176.484 240.649 173.793 237.542C172.94 236.557 172.208 235.449 171.245 234.584C170.272 233.711 169.104 233.123 167.951 232.544" fill="#D37F59"/>
<path d="M205.55 254.084C205.625 253.519 202.327 248.525 201.172 247.087C199.109 244.519 194.763 241.207 194.763 241.207" stroke="black" stroke-miterlimit="10" stroke-linejoin="round"/>
<path d="M210.028 254.534C210.028 254.534 207.38 246.917 205.56 243.614C203.74 240.311 199.54 236.677 199.54 236.677" stroke="black" stroke-miterlimit="10" stroke-linejoin="round"/>
<path d="M213.702 251.519C213.702 251.519 212.423 243.342 211.098 240.738C209.773 238.134 203.653 231.005 203.653 231.005" stroke="black" stroke-miterlimit="10" stroke-linejoin="round"/>
<path d="M168.732 238.978L176.426 243.372L192.756 219.151L181.025 213.251" fill="#FFEADF"/>
<path d="M156.912 125.467C156.912 125.467 155.522 125.68 152.389 126.657C142.11 129.863 135.893 140.894 131.634 151.075C127.37 161.265 123.308 171.546 119.778 182.024C115.278 195.379 107.21 213.262 120.97 224.047C124.825 227.069 130.383 229.471 136.049 231.295C149.702 235.692 170.101 242.636 170.101 242.636L188.238 216.448L158.105 201.683L170.101 161.329" fill="#CE9989"/>
<path d="M175.223 235.243L164.385 231.296" stroke="#AA7265" stroke-miterlimit="10" stroke-linejoin="round"/>
<path d="M168.251 238.222C168.958 238.222 169.531 237.641 169.531 236.924C169.531 236.207 168.958 235.626 168.251 235.626C167.544 235.626 166.971 236.207 166.971 236.924C166.971 237.641 167.544 238.222 168.251 238.222Z" stroke="#AA7265" stroke-miterlimit="10" stroke-linejoin="round"/>
<path d="M177.922 211.721L159.146 238.872" stroke="#AA7265" stroke-miterlimit="10" stroke-linejoin="round"/>
<path d="M161.296 190.952L167.941 168.601" stroke="black" stroke-miterlimit="10" stroke-linejoin="round"/>
<path d="M169.532 207.305L188.239 216.449" stroke="black" stroke-miterlimit="10" stroke-linejoin="round"/>
<path d="M158.113 201.545C154.014 200.582 147.808 199.298 143.608 199.56C141.257 199.706 138.885 200.055 136.723 201.004" stroke="black" stroke-miterlimit="10" stroke-linejoin="round"/>
<path d="M218.055 88.345L234.923 77.913" stroke="black" stroke-miterlimit="10" stroke-linejoin="round"/>
<path d="M222.118 96.928L242.598 91.264" stroke="black" stroke-miterlimit="10" stroke-linejoin="round"/>
<path d="M223.479 105.293L242.546 107.696" stroke="black" stroke-miterlimit="10" stroke-linejoin="round"/>
<path d="M96.1721 344.189C95.9341 321.248 89.8781 298.62 90.2881 275.681C90.7361 250.629 99.1501 225.787 113.969 205.765C114.514 205.028 115.301 204.211 116.174 204.461C116.68 204.606 117.021 205.075 117.297 205.53C118.865 208.112 119.593 211.122 120.135 214.106C122.704 228.252 121.517 243.084 116.732 256.622C121.7 259.201 124.953 264.574 125.747 270.187C126.541 275.8 125.078 281.58 122.41 286.56C121.762 287.769 121.018 289.079 121.267 290.433C121.446 291.406 122.109 292.198 122.655 293.017C124.974 296.497 125.349 301.043 124.437 305.142C123.525 309.242 121.444 312.973 119.152 316.471C114.483 323.599 108.818 330.053 102.381 335.577" fill="#628E6A"/>
<path d="M100.525 340.212C99.5201 335.622 101.96 331.044 104.422 327.062C110.482 317.26 117.32 307.809 125.989 300.301C134.658 292.793 145.327 287.302 156.678 286.373C158.058 286.26 159.612 286.275 160.607 287.254C162.12 288.743 161.354 291.333 160.309 293.191C157.893 297.491 154.473 301.203 150.41 303.934C149.472 304.565 148.446 305.206 147.986 306.249C147.633 307.051 147.674 307.966 147.637 308.844C147.35 315.716 141.14 321.774 134.374 321.782C135.305 325.662 131.787 329.065 128.531 331.298C123.09 335.029 117.306 338.244 111.28 340.887" fill="#7EA882"/>
<path d="M114.946 323.118C124.777 310.118 138.291 300.03 153.435 294.385" stroke="black" stroke-miterlimit="10" stroke-linejoin="round"/>
<path d="M67.4301 339.932C63.1761 331.985 53.1291 324.012 48.8961 318.884C44.6641 313.756 41.5771 305.807 50.6121 304.074C38.6731 301.655 28.8701 291.832 27.1141 280.527C26.7561 278.223 26.7221 275.788 27.7361 273.662C28.7501 271.536 31.0211 269.807 33.5081 269.911C30.5641 263.564 28.8321 256.728 28.4191 249.82C28.2971 247.78 28.4121 245.457 30.0541 244.108C31.3561 243.038 33.2891 242.912 34.9801 243.269C37.1561 243.728 39.0911 244.866 40.9231 246.056C56.7411 256.336 68.1031 271.874 75.0631 288.671C82.0241 305.467 84.8321 323.536 85.9451 341.519" fill="#7EA882"/>
<path d="M41.5771 257.418C56.5341 278.429 68.4501 301.673 76.8221 326.173" stroke="black" stroke-miterlimit="10" stroke-linejoin="round"/>
<path d="M91.555 346.885C85.363 341.988 80.0341 335.708 75.9661 328.515C75.2251 327.204 74.5171 325.842 74.1651 324.338C73.8141 322.835 73.8551 321.156 74.5521 319.815C75.2491 318.474 76.691 317.579 78.033 317.929C77.171 316.217 76.1911 314.58 75.1071 313.038C73.5731 310.855 71.817 308.841 70.616 306.407C68.435 301.986 67.229 295.8 69.922 291.3C70.571 290.215 71.4541 289.263 71.7881 288.009C72.1231 286.753 71.8521 285.404 71.5641 284.134C69.3861 274.504 66.3401 265.139 64.3131 255.467C62.2861 245.795 61.299 235.621 63.295 225.94C63.588 224.519 63.966 223.068 64.795 221.948C65.624 220.828 67.014 220.12 68.239 220.589C68.91 220.846 69.4471 221.411 69.9551 221.967C84.5991 238.016 93.146 260.141 97.075 282.748C101.004 305.355 100.633 328.615 99.6061 351.624" fill="#628E6A"/>
<path d="M91.7411 259.119C96.7511 279.313 100.393 308.5 101.216 324.645" stroke="black" stroke-miterlimit="10" stroke-linejoin="round"/>
<path d="M92.661 341.52C88.281 338.385 84.21 334.661 81.401 330.024C78.592 325.387 77.134 319.749 78.173 314.408C78.917 310.583 81.939 306.504 85.717 307.175C86.063 307.236 86.421 307.337 86.759 307.238C87.416 307.047 87.652 306.244 87.809 305.567C89.306 299.086 93.103 293.18 98.341 289.185C101.617 286.686 106.45 285.021 109.62 287.658C116.262 293.185 113.325 305.663 112.866 313.021C114.482 311.993 119.956 311.479 121.451 312.682C122.946 313.885 123.933 315.707 124.324 317.604C125.963 325.541 119.9 335.987 112.851 340.353" fill="#7EA882"/>
<path d="M114.112 312.408C115.65 312.119 117.21 311.829 118.77 311.949C120.33 312.069 121.917 312.649 122.949 313.844C124.289 315.396 124.457 317.649 124.345 319.71C123.996 326.157 121.506 332.465 117.374 337.369" stroke="black" stroke-miterlimit="10" stroke-linejoin="round"/>
<path d="M86.686 307.253C90.278 306.937 93.789 308.809 96.322 311.418C98.855 314.027 100.574 317.32 102.249 320.566" stroke="black" stroke-miterlimit="10" stroke-linejoin="round"/>
<path d="M104.866 326.173C106.135 329.368 106.938 332.817 107.229 336.325" stroke="black" stroke-miterlimit="10" stroke-linejoin="round"/>
<path d="M116.68 256.31C113.885 257.652 111.617 259.943 109.844 262.511C108.07 265.079 106.748 267.933 105.436 270.772" stroke="black" stroke-miterlimit="10" stroke-linejoin="round"/>
<path d="M137.396 335.703C137.396 335.703 139.526 371.907 122.814 391.847H68.486C51.774 371.906 53.904 335.703 53.904 335.703H137.396Z" fill="#FFF8DC"/>
<mask id="mask0_132_1530" style="mask-type:luminance" maskUnits="userSpaceOnUse" x="53" y="335" width="85" height="57">
<path d="M137.396 335.703C137.396 335.703 139.526 371.907 122.814 391.847H68.486C51.774 371.906 53.904 335.703 53.904 335.703H137.396Z" fill="white"/>
</mask>
<g mask="url(#mask0_132_1530)">
<path d="M42.16 343.467C47.286 341.989 52.951 343.52 57.095 347.502C59.603 349.912 60.476 352.879 64.122 353.244C66.295 353.462 68.479 352.942 70.656 353.076C72.834 353.21 75.189 354.212 76.195 356.519C76.829 357.972 76.829 359.716 77.402 361.204C78.515 364.091 81.367 365.23 83.592 366.975C86.069 368.917 88.115 372.066 88.692 375.59C89.156 378.43 87.832 381.137 85.8 382.527C81.739 385.305 72.041 384.021 65.83 382.752C60.999 381.765 55.351 380.92 51.438 385.267" stroke="#F2E3B3" stroke-width="1.5" stroke-miterlimit="10"/>
<path d="M65.296 327.619C67.154 331.167 69.026 334.738 71.364 337.804C73.702 340.87 76.559 343.436 79.823 344.527C84.681 346.15 90.088 344.431 94.7 346.944C98.289 348.9 100.745 353.07 103.739 356.238C105.979 358.609 108.64 360.481 111.539 360.987C114.438 361.493 117.589 360.482 119.615 357.824C123.31 352.978 122.379 344.449 126.157 339.706C128.173 337.175 131.315 336.058 132.682 332.914C133.306 331.477 133.463 329.802 133.608 328.174C134.026 323.479 134.43 318.599 133.204 314.133" stroke="#F2E3B3" stroke-width="1.5" stroke-miterlimit="10"/>
<path d="M143.164 345.948C138.581 345.899 134.093 349.737 132.098 355.411C131.165 358.063 130.751 361.022 129.772 363.642C127.523 369.661 122.672 372.962 117.92 374.718C110.321 377.527 101.62 378.462 96.393 386.648C89.754 397.045 99.847 407.587 107.834 410.43C112.729 412.172 117.875 412.101 122.906 411.414C127.618 410.771 132.341 409.577 136.679 406.963C141.017 404.35 144.971 400.221 147.417 394.644" stroke="#F2E3B3" stroke-width="1.5" stroke-miterlimit="10"/>
</g>
<path d="M142.784 391.848H57.6361" stroke="#A0B3EA" stroke-width="1.5" stroke-miterlimit="10"/>
<path d="M172.044 391.848H154.661" stroke="#A0B3EA" stroke-width="1.5" stroke-miterlimit="10"/>
<path d="M518.374 410.865C512.397 383.444 512.273 347.373 513.263 319.721C513.803 304.64 514.124 286.914 527.574 275.697C529.198 274.342 531.066 273.065 533.344 272.674C537.035 272.041 540.923 273.959 543.178 276.561C545.434 279.163 546.404 282.335 547.326 285.42C556.55 270.928 565.208 255.369 576.238 242.683C588.646 228.412 603.902 216.034 621.763 206.49C623.904 205.346 626.359 204.195 628.909 204.642C632.855 205.334 635.088 209.213 635.133 212.57C635.46 236.79 616.552 270.016 593.893 293.369C600.882 297.419 603.453 305.271 602.313 312.131C601.173 318.99 597.002 325.122 592.906 331.073C576.468 354.958 560.03 378.842 543.592 402.727" fill="#9AB79C"/>
<path d="M628.721 215.243C582.546 266.173 546.24 326.017 522.399 390.497" stroke="black" stroke-miterlimit="10" stroke-linejoin="round"/>
<path d="M525.841 405.891C546.991 362.335 580.696 323.502 622.963 293.993C627.263 290.991 631.726 288.056 636.673 285.998C638.861 285.088 642.251 283.472 644.721 283.609C653.941 284.119 645.259 307.406 643.228 311.617C637.385 323.727 628.092 334.235 618.791 344.257C624.384 343.55 628.049 349.686 627.525 354.612C626.722 362.175 620.486 368.637 613.03 372.522C605.574 376.407 596.954 378.142 588.492 379.822C589.684 388.478 583.158 396.826 574.745 401.492C566.332 406.158 556.289 407.888 546.507 409.529" fill="#9AB79C"/>
<path d="M503.747 406.545C489.722 377.765 489.529 344.359 491.308 312.394C491.786 303.796 492.395 295.147 494.527 286.804C496.658 278.46 500.41 270.363 506.448 264.223C507.168 263.49 508.003 262.748 509.027 262.661C511.075 262.487 512.298 264.847 512.9 266.813C515.674 275.872 517.845 285.321 518.451 294.745C519.126 305.245 519.067 315.793 518.271 326.285C519.208 324.959 521.085 324.53 522.647 324.972C524.21 325.414 525.48 326.575 526.438 327.887C529.531 332.123 530.485 337.58 531.029 342.679C531.629 348.299 532.094 354.012 532.317 359.66C532.639 367.84 532.079 376.054 530.654 384.115C529.224 392.201 526.495 399.845 524.352 407.745" fill="#628E6A"/>
<path d="M593.881 316.866C562.69 350.017 539.446 389.365 526.24 431.369" stroke="black" stroke-miterlimit="10" stroke-linejoin="round"/>
<path d="M618.934 344.03C614.944 344.152 611.014 345.539 607.971 347.898" stroke="black" stroke-miterlimit="10" stroke-linejoin="round"/>
<path d="M588.314 379.694C586.163 376.279 580.876 377.206 577.902 378.818C575.363 380.193 573.325 382.341 571.558 384.625" stroke="black" stroke-miterlimit="10" stroke-linejoin="round"/>
<path d="M637.315 292.934C598.371 319.566 569.979 357.411 547.879 396.501" stroke="black" stroke-miterlimit="10" stroke-linejoin="round"/>
<path d="M502.034 292.004C498.621 332.202 504.174 372.56 509.714 412.521" stroke="black" stroke-miterlimit="10" stroke-linejoin="round"/>
<path d="M585.738 403.277H478.985V437.654H585.738V403.277Z" fill="#FFF8DC"/>
<path d="M397.478 400.374C392.022 413.176 379.775 420.022 371.535 424.965C373.745 425.51 435.565 426.265 435.498 425.865C434.954 422.617 434.46 419.857 434.046 415.593C433.849 413.564 435.274 401.789 435.274 401.789" fill="#C67761"/>
<path d="M434.737 420.052C434.737 420.052 410.793 419.942 396.104 418.511C389.452 417.863 387.737 412.405 385.686 414.506C379.107 421.245 367.634 426.19 364.874 428.654C362.114 431.118 361.252 437.293 362.406 437.293C366.04 437.293 404.615 437.293 406.692 437.293C409.359 436.003 412.461 433.613 412.461 433.613H419.205L419.497 437.293C429.761 437.293 436.191 437.293 436.191 437.293C436.191 437.293 436.508 427.955 434.737 420.052Z" fill="#1E1A1C"/>
<path d="M522.058 298.635C522.058 298.635 455.504 298.451 436.483 298.635C423.298 298.762 408.575 303.484 403.432 329.155C398.289 354.826 392.136 409.962 392.136 409.962L436.779 413.176L451.577 354.876C451.577 354.876 493.128 361.124 516.884 359.285C532.134 358.104 542.277 333.318 539.897 316.081" fill="#1B1B38"/>
<path d="M451.577 354.876H443.403" stroke="black" stroke-miterlimit="10" stroke-linejoin="round"/>
<path d="M393.89 394.98L440.115 400.031" stroke="#252549" stroke-miterlimit="10"/>
<path d="M363.209 400.374C355.782 413.176 341.799 420.022 332.349 424.965C334.654 425.51 400.903 426.265 400.88 425.865C400.695 422.617 400.504 419.857 400.583 415.593C400.621 413.564 403.596 401.789 403.596 401.789" fill="#EFA084"/>
<path d="M400.776 420.052C400.776 420.052 375.095 419.942 359.507 418.511C352.448 417.863 351.277 412.405 348.819 414.506C340.931 421.245 328.012 426.19 324.747 428.654C321.483 431.118 319.8 437.293 321.037 437.293C324.937 437.293 366.333 437.293 368.562 437.293C371.583 436.003 375.205 433.613 375.205 433.613H382.442L382.303 437.293C393.317 437.293 402.293 437.293 402.293 437.293C402.293 437.293 401.706 427.955 400.776 420.052Z" fill="#42393D"/>
<path d="M402.036 433.614L321.796 432.829" stroke="#1E1A1C" stroke-miterlimit="10"/>
<path d="M497.679 298.635C497.679 298.635 431.148 298.451 412.104 298.635C398.904 298.762 383.601 303.484 375.306 329.155C367.011 354.826 354.088 409.962 354.088 409.962L401.899 415.051L420.292 354.876C420.292 354.876 502.035 361.124 526.017 359.285C541.412 358.104 559.12 322.517 558.856 305.28" fill="#252549"/>
<path d="M420.292 354.876H412.118" stroke="black" stroke-miterlimit="10" stroke-linejoin="round"/>
<path d="M362.57 410.865C362.57 410.865 382.316 335.339 384.992 329.156C387.667 322.973 396.831 305.249 413.514 306.769C430.197 308.288 498.391 308.175 498.391 308.175L511.735 298.636" stroke="#434360" stroke-miterlimit="10"/>
<path d="M357.681 394.98L406.385 400.374" stroke="#434360" stroke-miterlimit="10"/>
<path d="M530.179 184.285L528.851 202.161L564.022 203.428L562.806 179.417" fill="#EFA084"/>
<path d="M523.15 159.559C520.235 164.42 516.804 169.874 516.524 175.7C516.229 181.845 520.712 185.81 526.445 186.993C535.735 188.909 545.95 186.172 553.098 179.952C562.889 171.431 565.38 153.352 552.971 145.732C548.046 142.708 541.999 142.909 536.604 144.444C531.343 145.941 528.16 150.714 525.677 155.252C524.978 156.532 524.093 157.987 523.15 159.559Z" fill="#EFA084"/>
<path d="M567.915 143.874C566.712 142.541 565.307 141.41 563.706 140.584C562.101 139.756 560.318 139.236 558.888 138.131C557.449 137.019 556.428 134.91 554.749 134.159C553.705 133.692 552.217 133.813 551.088 133.711C548.086 133.44 545.05 134.045 543.878 137.19C543.778 137.457 543.672 137.768 543.405 137.87C543.154 137.967 542.879 137.831 542.642 137.703C539.199 135.856 535.172 135.118 531.299 135.625C530.677 135.706 530.041 135.826 529.515 136.168C527.9 137.217 528.131 139.61 528.554 141.489C526.592 140.647 524.025 141.855 523.424 143.904C522.936 145.569 523.668 147.409 524.882 148.648C526.097 149.887 527.724 150.627 529.348 151.24C533.728 152.894 538.379 153.825 543.058 153.985C541.085 156.144 540.079 159.155 540.357 162.067C540.635 164.979 542.194 167.744 544.54 169.491C545.348 170.092 546.272 170.608 546.79 171.471C547.46 172.588 547.285 173.998 547.088 175.286C546.744 177.538 546.4 179.79 546.056 182.041C545.94 182.799 545.832 183.613 546.167 184.303C546.745 185.494 548.301 185.749 549.623 185.839C554.644 186.181 559.699 186.507 564.654 185.489C566.4 185.131 568.167 184.236 568.96 182.639C569.279 181.996 569.42 181.282 569.539 180.575C570.044 177.582 570.241 174.471 571.538 171.726C572.099 170.539 572.859 169.441 573.271 168.195C574.363 164.893 573.879 160.104 573.351 156.725C572.65 152.239 571.002 147.295 567.915 143.874Z" fill="#643021"/>
<path d="M528.851 141.857C531.175 142.604 533.618 142.982 536.059 142.973" stroke="#3D1D18" stroke-miterlimit="10"/>
<path d="M543.206 137.744C546.037 138.875 549.113 139.387 552.157 139.233" stroke="#3D1D18" stroke-miterlimit="10"/>
<path d="M541.467 143.082C546.754 143.889 552.25 144.777 556.631 147.844" stroke="#3D1D18" stroke-miterlimit="10"/>
<path d="M569.161 161.512C569.343 163.778 569.517 166.117 568.788 168.27C568.232 169.913 567.184 171.339 566.445 172.908C565.486 174.944 565.057 177.227 565.212 179.473" stroke="#3D1D18" stroke-miterlimit="10"/>
<path d="M561.672 158.696C561.807 160.577 561.877 162.525 561.2 164.285C560.378 166.422 558.544 168.045 557.695 170.171C556.976 171.97 557.022 173.971 557.079 175.908" stroke="#3D1D18" stroke-miterlimit="10"/>
<path d="M545.907 158.143C544.83 161.998 545.853 166.372 548.529 169.349" stroke="#3D1D18" stroke-miterlimit="10"/>
<path d="M543.123 153.959C550.079 149.957 558.527 149.759 566.548 150.018" stroke="#3D1D18" stroke-miterlimit="10"/>
<path d="M544.994 165.191C548.163 165.905 549.314 170.392 548.642 173.098C548.221 174.791 547.094 176.316 545.878 177.505C544.383 178.967 542.983 179.496 540.852 179.407C540.241 179.382 539.614 179.348 539.043 179.109C535.789 177.748 538.376 172.085 539.072 169.97C539.472 168.755 539.956 167.544 540.774 166.575C541.909 165.23 543.295 164.809 544.994 165.191Z" fill="#EFA084"/>
<path d="M545.372 170.12C542.897 171.163 541.574 172.405 539.289 173.804" stroke="black" stroke-miterlimit="10" stroke-linejoin="round"/>
<path d="M542.219 165.351C541.068 165.892 540.187 166.92 539.704 168.105" stroke="black" stroke-miterlimit="10" stroke-linejoin="round"/>
<path d="M545.878 177.505C545.287 177.957 543.59 179.223 542.875 179.442C541.851 179.755 540.718 179.802 539.688 179.437C538.655 179.071 537.761 178.289 537.254 177.307" stroke="black" stroke-miterlimit="10" stroke-linejoin="round"/>
<path d="M529.839 187.792C532.471 187.653 535.084 187.164 537.588 186.34" stroke="black" stroke-miterlimit="10" stroke-linejoin="round"/>
<path d="M525.042 157.395C523.648 159.97 520.496 162.607 518.862 163.41C517.581 164.04 517.095 164.544 517.649 165.933C518.106 167.079 519.07 168.045 520.264 168.451" fill="#EFA084"/>
<path d="M525.042 157.395C523.648 159.97 520.496 162.607 518.862 163.41C517.581 164.04 517.095 164.544 517.649 165.933C518.106 167.079 519.07 168.045 520.264 168.451" stroke="black" stroke-miterlimit="10" stroke-linejoin="round"/>
<path d="M524.342 171.934H518.68C518.68 171.934 518.47 176.757 521.196 176.338C523.923 175.919 524.342 171.934 524.342 171.934Z" fill="white"/>
<path d="M529.871 155.947C531.337 156.315 532.667 157.153 533.703 158.254C534.739 159.355 535.486 160.71 535.956 162.147" stroke="black" stroke-miterlimit="10" stroke-linejoin="round"/>
<path d="M530.411 163.043C529.929 164.016 528.984 164.53 528.299 164.191C527.614 163.852 527.45 162.788 527.931 161.815C528.413 160.842 529.358 160.328 530.043 160.667C530.728 161.006 530.893 162.07 530.411 163.043Z" fill="black"/>
<path d="M506.017 200.849C506.017 200.849 498.553 186.199 492.997 179.473C489.544 175.293 486.312 172.315 482.085 168.86C480.049 167.195 477.985 165.298 475.746 163.872C474.678 163.192 474.356 162.726 473.438 163.905C472.811 164.71 472.916 166.065 473.196 166.959C474.33 170.57 480.268 175.811 480.268 175.811C478.689 176.293 475.617 177.682 474.649 178.629C473.718 179.54 473.345 181.155 473.508 182.428C472.196 182.631 471.103 183.275 470.587 184.427C470.332 184.997 470.188 185.601 470.231 186.228C470.246 186.447 470.466 187.804 470.793 187.814C469.637 187.779 468.652 188.709 468.347 189.74C468.042 190.77 468.266 191.867 468.549 192.904C469.375 195.92 471.554 198.137 474.001 199.111C474.685 199.383 475.477 199.49 476.182 199.272C476.888 199.054 477.472 198.409 477.386 197.725C479.43 202.181 480.198 208.236 484.158 211.406C486.098 212.959 490.082 213.936 490.979 216.158" fill="#EFA084"/>
<path d="M473.508 182.427C473.508 182.427 474.716 187.913 475.987 189.441C477.258 190.968 479.9 191.929 481.701 191.39C483.502 190.851 484.344 187.321 484.344 187.321C484.344 187.321 481.67 185.475 481.623 185.277C481.576 185.079 480.121 180.016 480.121 180.016" stroke="black" stroke-miterlimit="10" stroke-linejoin="round"/>
<path d="M479.893 175.874C481.789 177.27 483.328 179.106 484.335 181.173" stroke="black" stroke-miterlimit="10" stroke-linejoin="round"/>
<path d="M470.576 187.603C471.432 190.058 474.639 199.298 478.696 195.629C479.852 194.583 480.633 192.982 481.145 191.564" stroke="black" stroke-miterlimit="10" stroke-linejoin="round"/>
<path d="M495.67 186.151C493.862 183.841 490.957 182.367 487.92 181.574C484.883 180.781 481.684 180.603 478.517 180.431C478.274 180.418 478.015 180.408 477.801 180.514C477.554 180.637 477.424 180.889 477.355 181.133C476.837 182.959 478.817 184.517 480.678 185.366C482.024 185.981 483.433 186.488 484.883 186.88C485.342 187.004 485.827 187.128 486.162 187.433C486.425 187.673 486.565 187.999 486.686 188.319C487.584 190.676 487.913 193.178 488.556 195.603C489.199 198.028 490.221 200.467 492.214 202.198" fill="#EFA084"/>
<path d="M495.67 186.151C493.862 183.841 490.957 182.367 487.92 181.574C484.883 180.781 481.684 180.603 478.517 180.431C478.274 180.418 478.015 180.408 477.801 180.514C477.554 180.637 477.424 180.889 477.355 181.133C476.837 182.959 478.817 184.517 480.678 185.366C482.024 185.981 483.433 186.488 484.883 186.88C485.342 187.004 485.827 187.128 486.162 187.433C486.425 187.673 486.565 187.999 486.686 188.319C487.584 190.676 487.913 193.178 488.556 195.603C489.199 198.028 490.221 200.467 492.214 202.198" stroke="black" stroke-miterlimit="10"/>
<path d="M485.566 210.243C485.566 210.243 508.988 267.116 519.923 273.711C532.369 281.218 547.745 265.405 547.745 265.405L534.852 232.81L528.604 233.778L503.31 195.748" fill="#EFA084"/>
<path d="M532.631 203.412H566.864C566.864 203.412 572.167 223.978 571.461 247.76C570.372 284.431 547.417 331.222 547.417 331.222C547.417 331.222 471.962 298.681 471.96 298.635C471.958 298.589 502.195 242.673 505 234.001C507.806 225.33 532.631 203.412 532.631 203.412Z" fill="white"/>
<path d="M491.296 232.484L474.478 246.71L447.544 226.209L430.041 239.208C430.041 239.208 451.173 264.737 460.558 271.966C469.734 279.035 480.075 283.451 490.933 278.778C502.179 273.938 515.637 258.391 515.637 258.391" fill="#EFA084"/>
<path d="M436.564 246.71C431.734 240.226 424.62 235.421 420.956 228.239C419.293 224.981 418.439 221.404 417.599 217.868C417.142 215.943 416.682 213.989 416.758 212.031C416.812 210.635 417.138 209.275 417.463 207.925C418.137 205.123 418.811 202.321 419.485 199.52C419.632 198.91 419.793 198.272 420.219 197.819C420.759 197.246 421.698 197.096 422.421 197.467C423.144 197.838 423.59 198.699 423.467 199.486C423.963 198.529 424.459 197.572 424.955 196.615C425.216 196.111 425.648 195.525 426.211 195.669C426.487 195.739 426.691 195.973 426.866 196.201C427.64 197.213 428.218 198.371 428.555 199.588C429.771 199.505 430.897 200.472 431.401 201.601C431.905 202.731 431.925 203.993 431.936 205.214C433.223 204.848 434.375 206.255 434.829 207.542C435.323 208.94 435.38 210.476 436.09 211.787C437.563 214.508 440.465 215.906 442.963 217.633C445.324 219.265 447.663 221.22 449.232 223.719C450.795 226.209 451.06 229.481 453.431 231.453" fill="#EFA084"/>
<path d="M475.851 218.365L431.865 227.073L395.792 173.462L439.779 164.754L475.851 218.365Z" fill="#8696DB"/>
<path d="M469.759 214.564L433.09 221.823L401.143 174.696L437.812 167.437L469.759 214.564Z" fill="white"/>
<path d="M463.287 209.38L448.822 212.243" stroke="#E8ECF9" stroke-miterlimit="10"/>
<path d="M458.748 203.01L429.819 208.737" stroke="#E8ECF9" stroke-miterlimit="10"/>
<path d="M454.21 196.639L425.28 202.366" stroke="#E8ECF9" stroke-miterlimit="10"/>
<path d="M449.671 190.269L420.742 195.996" stroke="#E8ECF9" stroke-miterlimit="10"/>
<path d="M445.133 183.898L416.203 189.625" stroke="#E8ECF9" stroke-miterlimit="10"/>
<path d="M440.594 177.528L411.665 183.255" stroke="#E8ECF9" stroke-miterlimit="10"/>
<path d="M433.108 173.591L417.329 176.715" stroke="#E8ECF9" stroke-miterlimit="10"/>
<path d="M434.957 164.998C434.312 164.04 433.16 163.554 432.052 163.773L428.522 164.472L427.988 163.679C427.578 163.069 426.844 162.759 426.138 162.899L407.263 166.636C406.483 166.79 406.131 167.687 406.585 168.361L406.854 168.761L402.406 169.641C401.181 169.883 400.628 171.291 401.341 172.351L403.74 175.936L437.77 169.199L434.957 164.998Z" fill="#3F3B63"/>
<path d="M535.275 203.496C526.227 202.772 516.93 206.403 509.589 212.244C500.707 219.311 476.507 244.399 476.507 244.399L508.274 275.395L528.472 252.915" fill="white"/>
<path d="M521.877 204.848C521.877 204.848 527.787 197.18 533.746 196.809C538.548 196.51 564.975 195.176 564.975 195.176L568.563 210.812" fill="white"/>
<path d="M558.417 203.412L535.705 203.975C533.098 204.04 530.51 204.337 527.971 204.862L523.089 205.873" stroke="black" stroke-miterlimit="10" stroke-linejoin="round"/>
<path d="M508.275 275.394L528.472 252.914" stroke="black" stroke-miterlimit="10" stroke-linejoin="round"/>
<path d="M423.757 222.527C423.712 221.238 423.627 219.942 423.622 218.654C423.618 217.64 423.971 216.947 424.239 215.985C424.87 213.72 425.374 211.42 426.132 209.195C426.357 208.534 426.6 207.845 427.078 207.392C428.139 206.386 429.375 207.468 429.865 208.663C430.233 209.561 430.314 210.559 430.365 211.534C430.469 213.532 429.685 216.049 430.368 217.522C430.727 218.295 431.578 218.923 432.172 219.507C433.401 220.714 434.586 221.948 435.642 223.311C437.991 226.343 439.652 229.434 440.206 233.273" fill="#EFA084"/>
<path d="M423.757 222.527C423.712 221.238 423.627 219.942 423.622 218.654C423.618 217.64 423.971 216.947 424.239 215.985C424.87 213.72 425.374 211.42 426.132 209.195C426.357 208.534 426.6 207.845 427.078 207.392C428.139 206.386 429.375 207.468 429.865 208.663C430.233 209.561 430.314 210.559 430.365 211.534C430.469 213.532 429.685 216.049 430.368 217.522C430.727 218.295 431.578 218.923 432.172 219.507C433.401 220.714 434.586 221.948 435.642 223.311C437.991 226.343 439.652 229.434 440.206 233.273" stroke="black" stroke-miterlimit="10"/>
<path d="M485.867 234.84L518.374 264.154" stroke="black" stroke-miterlimit="10" stroke-linejoin="round"/>
<path d="M516.372 154.317L507.973 141.101" stroke="black" stroke-miterlimit="10" stroke-linejoin="round"/>
<path d="M510.583 159.961L498.009 149.484" stroke="black" stroke-miterlimit="10" stroke-linejoin="round"/>
<path d="M506.782 166.219L492.47 162.571" stroke="black" stroke-miterlimit="10" stroke-linejoin="round"/>
<path d="M617.761 437.357L602.064 376.292C600.563 370.451 596.393 366.52 591.701 366.52H485.639C480.716 366.52 476.4 370.84 475.093 377.075L462.458 437.357" stroke="#C6A497" stroke-width="3" stroke-miterlimit="10" stroke-linejoin="round"/>
<path d="M529.677 365.192H579.479C587.772 365.192 594.864 359.227 596.283 351.056L620.12 213.88C621.866 203.835 614.133 194.642 603.937 194.642H560.802C551.657 194.642 543.836 201.22 542.271 210.231L517.797 351.071C516.516 358.445 522.192 365.192 529.677 365.192Z" fill="#FFD18D"/>
<path d="M606.476 195.175H573.653C564.972 195.175 557.549 201.419 556.063 209.972L532.832 343.66" stroke="#E8A656" stroke-miterlimit="10" stroke-linejoin="round"/>
<path d="M447.082 365.192H573.319V344.749H457.127C453.737 344.749 450.813 347.13 450.128 350.45L447.082 365.192Z" fill="#FFD18D"/>
<path d="M580.738 437.357L565.041 376.292C563.54 370.451 559.37 366.52 554.678 366.52H448.616C443.693 366.52 439.377 370.84 438.07 377.075L425.435 437.357" stroke="#8C614D" stroke-width="3" stroke-miterlimit="10" stroke-linejoin="round"/>
<path d="M445.624 365.192H567.871C571.597 365.192 574.782 362.512 575.42 358.841L585.957 298.206C586.831 293.176 582.959 288.574 577.855 288.574H469.575C459.706 288.574 451.267 295.673 449.577 305.397L440.289 358.848C439.712 362.161 442.262 365.192 445.624 365.192Z" fill="#FFD18D"/>
<path d="M528.657 288.575H542.646" stroke="#E8A656" stroke-miterlimit="10" stroke-linejoin="round"/>
<path d="M287.297 437.654H624.812" stroke="#A0B3EA" stroke-width="1.5" stroke-miterlimit="10"/>
<path d="M328.578 46.121H251.29C247.32 46.121 244.102 49.339 244.102 53.309V79.422C244.102 83.392 247.32 86.61 251.29 86.61H259.325L254.651 96.062C254.187 97 255.165 97.997 256.112 97.551L279.349 86.61H328.577C332.547 86.61 335.765 83.392 335.765 79.422V53.31C335.766 49.34 332.548 46.121 328.578 46.121Z" fill="#F4AA78"/>
<path d="M253.492 73.94C268.315 73.94 280.331 61.9238 280.331 47.101C280.331 32.2783 268.315 20.262 253.492 20.262C238.669 20.262 226.653 32.2783 226.653 47.101C226.653 61.9238 238.669 73.94 253.492 73.94Z" fill="#FFD18D"/>
<path d="M267.004 41.249C267.004 34.021 260.954 28.161 253.492 28.161C246.029 28.161 239.98 34.021 239.98 41.249C239.98 44.257 241.031 47.027 242.792 49.237C243.709 50.511 248.272 56.892 248.272 57.726V58.892C248.272 59.589 248.85 60.154 249.563 60.154H252.878H254.107H257.422C258.135 60.154 258.713 59.589 258.713 58.892V57.726C258.713 56.892 263.276 50.512 264.193 49.237C265.954 47.027 267.004 44.257 267.004 41.249Z" fill="#FFEAC5"/>
<path d="M255.959 60.154C256.004 55.787 255.896 51.167 258.155 47.228C258.498 46.63 259.335 45.531 260.173 46.067C260.423 46.227 260.547 46.515 260.627 46.795C261.086 48.399 260.516 50.091 259.659 51.471C258.941 52.627 257.558 54.587 255.928 54.345C254.693 54.162 253.729 52.878 253.19 51.48C252.227 48.984 251.576 45.843 251.518 43.076C251.463 40.41 252.139 37.863 253.516 37.863H253.465C254.842 37.863 255.518 40.41 255.463 43.076C255.406 45.842 254.754 48.984 253.791 51.48C253.19 53.037 251.636 55.023 249.714 53.982C247.571 52.822 246.177 49.875 246.158 47.577C246.152 46.919 246.369 45.801 247.318 46.012C247.737 46.105 248.056 46.43 248.324 46.757C251.176 50.238 251.003 55.014 251.017 59.213C251.018 59.527 251.019 59.841 251.022 60.154" stroke="white" stroke-miterlimit="10"/>
<path d="M257.936 63.097H249.048C248.235 63.097 247.577 62.438 247.577 61.626C247.577 60.813 248.236 60.155 249.048 60.155H257.936C258.749 60.155 259.407 60.814 259.407 61.626C259.407 62.438 258.749 63.097 257.936 63.097Z" stroke="white" stroke-miterlimit="10"/>
<path d="M257.936 66.04H249.048C248.235 66.04 247.577 65.381 247.577 64.569C247.577 63.756 248.236 63.098 249.048 63.098H257.936C258.749 63.098 259.407 63.757 259.407 64.569C259.407 65.381 258.749 66.04 257.936 66.04Z" stroke="white" stroke-miterlimit="10"/>
<path d="M325.034 55.34H292.197" stroke="white" stroke-miterlimit="10" stroke-linejoin="round"/>
<path d="M325.034 64.5681H292.197" stroke="white" stroke-miterlimit="10" stroke-linejoin="round"/>
<path d="M325.034 73.797H276.309" stroke="white" stroke-miterlimit="10" stroke-linejoin="round"/>
<path d="M403.918 98.429H455.973C459.328 98.429 462.048 101.149 462.048 104.504V131.452C462.048 134.807 459.328 137.527 455.973 137.527H449.183L453.133 145.515C453.525 146.307 452.698 147.15 451.898 146.773L432.26 137.527H403.919C400.564 137.527 397.844 134.807 397.844 131.452V104.504C397.843 101.149 400.563 98.429 403.918 98.429Z" fill="white"/>
<path d="M405.583 109.12H431.928" stroke="#C5CFEA" stroke-width="1.5" stroke-miterlimit="10" stroke-linejoin="round"/>
<path d="M405.583 118.348H438.419" stroke="#C5CFEA" stroke-width="1.5" stroke-miterlimit="10" stroke-linejoin="round"/>
<path d="M405.583 127.577H454.307" stroke="#C5CFEA" stroke-width="1.5" stroke-miterlimit="10" stroke-linejoin="round"/>
<path d="M523.372 90.9364C527.122 68.3216 511.83 46.9484 489.215 43.198C466.6 39.4476 445.227 54.7402 441.477 77.355C437.726 99.9697 453.019 121.343 475.634 125.093C498.248 128.844 519.622 113.551 523.372 90.9364Z" fill="#F9BAAF"/>
<path d="M482.443 118.356C463.576 118.356 448.226 103.006 448.226 84.138C448.226 65.27 463.576 49.92 482.443 49.92C501.311 49.92 516.661 65.27 516.661 84.138C516.661 103.006 501.311 118.356 482.443 118.356ZM482.443 55.214C466.494 55.214 453.519 68.189 453.519 84.138C453.519 100.087 466.494 113.062 482.443 113.062C498.393 113.062 511.368 100.087 511.368 84.138C511.368 68.189 498.392 55.214 482.443 55.214Z" fill="#E89287"/>
<path d="M482.443 105.024C470.926 105.024 461.557 95.6551 461.557 84.1381C461.557 72.6221 470.926 63.2521 482.443 63.2521C493.96 63.2521 503.329 72.6211 503.329 84.1381C503.329 95.6551 493.959 105.024 482.443 105.024ZM482.443 68.5461C473.845 68.5461 466.85 75.5411 466.85 84.1381C466.85 92.7361 473.845 99.7311 482.443 99.7311C491.041 99.7311 498.036 92.7361 498.036 84.1381C498.036 75.5401 491.041 68.5461 482.443 68.5461Z" fill="#E89287"/>
<path d="M482.443 93.368C477.355 93.368 473.214 89.228 473.214 84.139C473.214 79.05 477.354 74.91 482.443 74.91C487.532 74.91 491.672 79.05 491.672 84.139C491.672 89.227 487.531 93.368 482.443 93.368ZM482.443 80.202C480.273 80.202 478.507 81.968 478.507 84.138C478.507 86.309 480.273 88.074 482.443 88.074C484.613 88.074 486.379 86.308 486.379 84.138C486.378 81.968 484.613 80.202 482.443 80.202Z" fill="#E89287"/>
<path d="M537.633 28.948L485.161 81.42" stroke="#C16861" stroke-width="1.5" stroke-miterlimit="10"/>
<path d="M483.802 74.623L482.443 84.138L491.958 82.779L483.802 74.623Z" fill="#C16861"/>
<path d="M538.155 22.926L537.697 28.884L543.655 28.426" stroke="#C16861" stroke-width="1.5" stroke-miterlimit="10"/>
<path d="M603.548 38.829H556.112C553.361 38.829 551.131 41.059 551.131 43.81V61.905C551.131 64.656 553.361 66.886 556.112 66.886H561.68L558.442 73.435C558.121 74.085 558.799 74.776 559.454 74.467L575.556 66.886H603.548C606.299 66.886 608.529 64.656 608.529 61.905V43.81C608.529 41.059 606.299 38.829 603.548 38.829Z" fill="#EFF2F9"/>
<path d="M596.484 55.527C597.632 55.527 598.562 54.5967 598.562 53.449C598.562 52.3014 597.632 51.371 596.484 51.371C595.336 51.371 594.406 52.3014 594.406 53.449C594.406 54.5967 595.336 55.527 596.484 55.527Z" fill="#9B9BCE"/>
<path d="M577.753 53.449C577.753 54.596 578.683 55.527 579.831 55.527C580.979 55.527 581.909 54.597 581.909 53.449C581.909 52.301 580.979 51.371 579.831 51.371C578.683 51.371 577.753 52.301 577.753 53.449Z" fill="#9B9BCE"/>
<path d="M561.099 53.449C561.099 54.596 562.029 55.527 563.177 55.527C564.325 55.527 565.255 54.597 565.255 53.449C565.255 52.301 564.325 51.371 563.177 51.371C562.029 51.371 561.099 52.301 561.099 53.449Z" fill="#9B9BCE"/>
<path d="M653.806 124.308H586.929C583.051 124.308 579.906 127.452 579.906 131.331V156.842C579.906 160.721 583.05 163.865 586.929 163.865H594.779L590.213 173.099C589.76 174.015 590.716 174.989 591.64 174.554L614.342 163.866H653.806C657.684 163.866 660.829 160.722 660.829 156.843V131.332C660.828 127.452 657.684 124.308 653.806 124.308Z" fill="#C6D4F4"/>
<path d="M630.486 144.494C630.486 145.642 631.416 146.572 632.564 146.572C633.711 146.572 634.642 145.642 634.642 144.494C634.642 143.346 633.712 142.416 632.564 142.416C631.416 142.417 630.486 143.347 630.486 144.494Z" fill="white"/>
<path d="M613.832 144.494C613.832 145.642 614.762 146.572 615.91 146.572C617.058 146.572 617.988 145.642 617.988 144.494C617.988 143.346 617.058 142.416 615.91 142.416C614.763 142.417 613.832 143.347 613.832 144.494Z" fill="white"/>
<path d="M597.179 144.494C597.179 145.642 598.109 146.572 599.257 146.572C600.405 146.572 601.335 145.642 601.335 144.494C601.335 143.346 600.405 142.416 599.257 142.416C598.109 142.417 597.179 143.347 597.179 144.494Z" fill="white"/>
<path d="M59.8711 38.268H131.006C134.557 38.268 137.435 41.146 137.435 44.697V68.051C137.435 71.602 134.557 74.48 131.006 74.48H123.82L128 82.933C128.415 83.772 127.54 84.663 126.694 84.265L105.912 74.48H59.8721C56.3211 74.48 53.4431 71.602 53.4431 68.051V44.696C53.4421 41.146 56.3201 38.268 59.8711 38.268Z" fill="#C6D4F4"/>
<path d="M82.6401 58.764C83.7878 58.764 84.7181 57.8337 84.7181 56.686C84.7181 55.5384 83.7878 54.608 82.6401 54.608C81.4925 54.608 80.5621 55.5384 80.5621 56.686C80.5621 57.8337 81.4925 58.764 82.6401 58.764Z" fill="#9B9BCE"/>
<path d="M101.372 56.686C101.372 57.833 100.442 58.764 99.2941 58.764C98.1461 58.764 97.2161 57.834 97.2161 56.686C97.2161 55.538 98.1461 54.608 99.2941 54.608C100.441 54.608 101.372 55.539 101.372 56.686Z" fill="#9B9BCE"/>
<path d="M118.025 56.686C118.025 57.833 117.095 58.764 115.947 58.764C114.799 58.764 113.869 57.834 113.869 56.686C113.869 55.538 114.799 54.608 115.947 54.608C117.095 54.608 118.025 55.539 118.025 56.686Z" fill="#9B9BCE"/>
</svg>
