<svg width="452" height="305" viewBox="0 0 452 305" fill="none" xmlns="http://www.w3.org/2000/svg">
<path opacity="0.2" d="M396.958 265.719C397.047 263.42 397.093 261.114 397.093 258.8C397.093 235.216 392.486 212.366 383.401 190.887C374.614 170.112 362.023 151.443 345.978 135.397C329.933 119.352 311.263 106.761 290.488 97.973C269.009 88.888 246.159 84.282 222.575 84.282C198.991 84.282 176.141 88.888 154.662 97.973C133.887 106.76 115.218 119.351 99.172 135.397C83.127 151.442 70.536 170.112 61.749 190.887C52.664 212.366 48.057 235.216 48.057 258.8C48.057 261.114 48.103 263.42 48.192 265.719H396.958Z" fill="white"/>
<path opacity="0.15" d="M225.843 304.139C350.32 304.139 451.228 297.317 451.228 288.901C451.228 280.485 350.32 273.663 225.843 273.663C101.366 273.663 0.458008 280.485 0.458008 288.901C0.458008 297.317 101.366 304.139 225.843 304.139Z" fill="#1A3647"/>
<path d="M301.295 280.755H142.617V231.795C142.617 219.821 152.324 210.114 164.298 210.114H279.615C291.589 210.114 301.296 219.821 301.296 231.795L301.295 280.755Z" fill="#FFA82B"/>
<path d="M290.851 20.716V255.326C290.851 263.874 283.921 270.803 275.374 270.803H168.538C164.692 270.803 161.173 269.4 158.465 267.079C155.158 264.238 153.061 260.027 153.061 255.325V20.715C153.061 12.167 159.991 5.23798 168.538 5.23798H275.374C279.261 5.23798 282.816 6.67096 285.534 9.03796C288.792 11.877 290.851 16.055 290.851 20.716Z" fill="#264149"/>
<path opacity="0.2" d="M290.851 20.716V255.326C290.851 263.874 283.921 270.803 275.374 270.803H168.538C164.692 270.803 161.173 269.4 158.465 267.079C158.462 267.076 158.462 267.074 158.462 267.074L165.315 253.158L181.421 220.45L195.999 190.85L212.211 157.927L215.638 150.973L220.369 141.363L223.523 134.959L228.254 125.349L231.408 118.945L236.142 109.335L240.457 100.57L244.848 91.652L252.815 75.475L256.868 67.246L261.599 57.636L264.753 51.232L264.99 50.753L278.62 23.076L285.53 9.04298V9.03998C288.792 11.877 290.851 16.055 290.851 20.716Z" fill="black"/>
<path d="M278.664 23.807V252.235C278.664 255.742 275.794 258.618 272.281 258.618H171.637C170.301 258.618 169.064 258.204 168.037 257.498C166.355 256.354 165.247 254.418 165.247 252.235V23.807C165.247 20.294 168.117 17.424 171.636 17.424H186.579C189.01 17.424 191.014 19.2179 191.434 21.6109C191.44 21.6419 191.446 21.679 191.453 21.71C192.078 24.963 195.047 27.233 198.356 27.233H245.758C247.632 27.233 249.339 26.466 250.582 25.229C251.819 23.992 252.586 22.2909 252.586 20.4109V20.38C252.58 18.766 253.811 17.424 255.425 17.424H272.279C274.611 17.424 276.664 18.692 277.771 20.572C278.342 21.525 278.664 22.632 278.664 23.807Z" fill="#FDFDFD"/>
<path d="M264.996 157.925H177.634V220.449H264.996V157.925Z" fill="#A7DFF8"/>
<path d="M264.994 203.905L260.747 196.752L246.677 173.056L218.537 220.449H264.994V203.905Z" fill="#060E16"/>
<path d="M212.713 220.449H177.634L195.173 192.185L212.713 163.92L230.253 192.185L247.793 220.449H212.713Z" fill="#264149"/>
<path d="M201.342 182.245L212.713 190.757L224.084 182.245L212.713 163.92L201.342 182.245Z" fill="white"/>
<path d="M237.099 189.187L246.677 196.752L256.254 189.187L246.677 173.056L237.099 189.187Z" fill="white"/>
<path d="M264.994 109.335H177.634V118.944H264.994V109.335Z" fill="#F66B3B"/>
<path d="M264.994 125.349H177.634V134.958H264.994V125.349Z" fill="#F66B3B"/>
<path d="M264.994 41.6219H177.634V51.231H264.994V41.6219Z" fill="#F66B3B"/>
<path d="M264.994 57.6349H177.634V67.244H264.994V57.6349Z" fill="#F66B3B"/>
<path d="M264.994 141.363H177.634V150.972H264.994V141.363Z" fill="#F66B3B"/>
<path d="M229.119 100.729H213.864C211.103 100.729 208.864 98.4899 208.864 95.7289V80.4739C208.864 77.7129 211.103 75.4739 213.864 75.4739H229.119C231.881 75.4739 234.119 77.7129 234.119 80.4739V95.7289C234.119 98.4899 231.88 100.729 229.119 100.729Z" fill="#A7DFF8"/>
<path d="M259.995 100.729H244.741C241.98 100.729 239.741 98.4899 239.741 95.7289V80.4739C239.741 77.7129 241.98 75.4739 244.741 75.4739H259.995C262.756 75.4739 264.995 77.7129 264.995 80.4739V95.7289C264.995 98.4899 262.757 100.729 259.995 100.729Z" fill="#A7DFF8"/>
<path d="M201.756 75.4999H195.979C195.042 76.4759 194.084 77.4309 193.111 78.3709C191.366 80.4129 189.577 82.4129 187.687 84.3159C184.48 87.5439 180.969 90.5259 177.864 93.8669V99.3919C177.864 100.144 178.474 100.754 179.226 100.754H201.757C202.509 100.754 203.119 100.144 203.119 99.3919V76.8609C203.118 76.1099 202.508 75.4999 201.756 75.4999Z" fill="#A7DFF8"/>
<path d="M264.215 23.641C264.215 24.859 263.228 25.846 262.01 25.846C260.792 25.846 259.805 24.859 259.805 23.641C259.805 22.423 260.792 21.436 262.01 21.436C263.228 21.436 264.215 22.424 264.215 23.641Z" fill="#255560"/>
<path d="M272.434 23.641C272.434 24.859 271.447 25.846 270.229 25.846C269.011 25.846 268.024 24.859 268.024 23.641C268.024 22.423 269.011 21.436 270.229 21.436C271.447 21.436 272.434 22.424 272.434 23.641Z" fill="#255560"/>
<path opacity="0.3" d="M278.664 23.807V252.235C278.664 255.742 275.794 258.618 272.281 258.618H171.637C170.301 258.618 169.064 258.204 168.037 257.498L277.773 20.572C278.342 21.525 278.664 22.632 278.664 23.807Z" fill="white"/>
<path d="M242.733 19.356H201.178C200.471 19.356 199.892 18.777 199.892 18.07V17.192C199.892 16.485 200.471 15.906 201.178 15.906H242.733C243.44 15.906 244.019 16.485 244.019 17.192V18.07C244.019 18.777 243.44 19.356 242.733 19.356Z" fill="#41636D"/>
<path d="M301.294 247.117V291.884H142.617V247.117C142.617 244.437 144.788 242.266 147.468 242.266H296.442C297.197 242.266 297.91 242.438 298.545 242.745C300.172 243.526 301.294 245.191 301.294 247.117Z" fill="#FFD43E"/>
<path d="M301.295 267.074H142.618V291.883H301.295V267.074Z" fill="#FFA82B"/>
<path d="M384.915 291.554C384.425 291.767 383.883 291.884 383.308 291.884H347.478C344.512 291.884 342.447 288.768 343.452 285.81L343.52 285.606L345.108 280.935L345.132 280.867L347.129 274.992L347.2 274.79L348.151 271.99L348.924 269.724L351.013 263.582L352.361 259.613L352.734 258.512L353.388 256.592L354.358 253.735L354.824 252.368L356.548 247.299L358.539 241.456L358.64 241.156L360.536 235.577L360.555 235.517L361.367 233.136C362.13 230.897 364.134 229.914 365.992 230.178V230.181C367.452 230.393 368.819 231.377 369.416 233.137L370.228 235.518L370.247 235.578L372.143 241.157L372.247 241.457L374.235 247.3L375.959 252.369L376.425 253.736L377.397 256.593L378.048 258.513L378.421 259.614L379.772 263.583L381.861 269.725L382.632 271.991L383.585 274.791L383.653 274.993L385.652 280.868L385.674 280.936L387.262 285.607L387.333 285.811C388.143 288.193 386.958 290.68 384.915 291.554Z" fill="#F66B3B"/>
<path d="M399.871 291.884H330.914C330.914 289.55 331.639 287.387 332.874 285.606C333.25 285.064 333.675 284.557 334.141 284.093C336.136 282.098 338.89 280.866 341.932 280.866H388.853C392.606 280.866 395.918 282.741 397.908 285.606C399.145 287.387 399.871 289.549 399.871 291.884Z" fill="#F66B3B"/>
<path d="M372.245 241.453H358.539L358.64 241.155L360.536 235.577H370.248L372.144 241.155L372.245 241.453Z" fill="#FDFDFD"/>
<path d="M378.422 259.61H352.362L352.736 258.51L353.388 256.591L354.359 253.733H376.425L377.396 256.591L378.048 258.51L378.422 259.61Z" fill="#FDFDFD"/>
<path d="M385.653 280.866H345.132L347.131 274.989H383.653L385.653 280.866Z" fill="#EAEAEA"/>
<path d="M383.654 274.99H347.129L347.2 274.789L348.151 271.988H382.632L383.586 274.789L383.654 274.99Z" fill="#DC573B"/>
<path d="M399.871 291.884H330.914C330.914 289.55 331.639 287.387 332.874 285.606H397.908C399.145 287.387 399.871 289.549 399.871 291.884Z" fill="#DC573B"/>
<path d="M323.968 202.085H312.8V271.043H323.968V202.085Z" fill="#264149"/>
<path d="M323.968 269.223C322.287 268.384 320.392 267.913 318.384 267.913C316.376 267.913 314.481 268.384 312.8 269.223C308.682 271.277 305.854 275.529 305.854 280.443C305.854 287.364 311.462 292.973 318.384 292.973C325.305 292.973 330.914 287.365 330.914 280.443C330.914 275.529 328.086 271.277 323.968 269.223ZM321.789 286.34H314.979L311.574 280.443L314.979 274.546H321.789L325.194 280.443L321.789 286.34Z" fill="#264149"/>
<path d="M325.193 180.828L322.259 185.908L326.135 192.622L322.259 199.336H314.507L310.631 192.622L314.507 185.908L311.573 180.828L304.763 192.622L311.573 204.416H325.192L332.002 192.622L325.193 180.828Z" fill="#264149"/>
<path opacity="0.2" d="M330.914 280.443C330.914 287.364 325.306 292.973 318.384 292.973V286.34H321.789L325.194 280.443L321.789 274.546H318.384V199.337H322.26L326.136 192.623L322.26 185.909L325.194 180.829L332.004 192.623L325.194 204.417H323.968V269.223C328.086 271.277 330.914 275.529 330.914 280.443Z" fill="black"/>
<path d="M126.174 162.404L122.175 168.993V209.47H117.468V168.993L113.467 162.404L119.822 146.167L126.174 162.404Z" fill="#264149"/>
<path opacity="0.2" d="M126.174 162.404L122.175 168.993V209.47H119.822V146.167L126.174 162.404Z" fill="black"/>
<path d="M128.057 291.834H111.584V227.355L119.821 220.06L128.057 227.355V291.834Z" fill="#F66B3B"/>
<path d="M111.584 209.666V220.962L119.821 228.257L128.057 220.962V209.666H111.584Z" fill="#F66B3B"/>
<path d="M129.94 208.842H109.702V212.137H129.94V208.842Z" fill="#FFA82B"/>
<path d="M118.08 212.137H115.248V291.834H118.08V212.137Z" fill="#DC573B"/>
<path d="M124.414 212.137H121.582V291.834H124.414V212.137Z" fill="#DC573B"/>
<path opacity="0.2" d="M288.926 87.094C285.554 85.759 282.062 85.236 278.665 85.433C273.675 85.719 268.889 87.56 264.997 90.657C261.802 93.196 259.209 96.581 257.599 100.648C257.588 100.675 257.577 100.702 257.569 100.73C256.458 103.557 255.924 106.469 255.902 109.335C255.872 112.664 256.539 115.935 257.817 118.945C258.798 121.263 260.14 123.429 261.802 125.349C262.761 126.458 263.829 127.487 264.994 128.416C266.814 129.865 268.878 131.072 271.153 131.973C273.621 132.951 276.154 133.493 278.665 133.637C282.925 133.877 287.123 132.975 290.852 131.109V87.957C290.228 87.642 289.585 87.356 288.926 87.094Z" fill="black"/>
<path opacity="0.7" d="M280.039 125.239C291.441 125.239 300.685 115.995 300.685 104.593C300.685 93.1905 291.441 83.947 280.039 83.947C268.637 83.947 259.393 93.1905 259.393 104.593C259.393 115.995 268.637 125.239 280.039 125.239Z" fill="#A7DFF8"/>
<path d="M288.926 82.153C276.532 77.245 262.507 83.313 257.599 95.707C252.693 108.101 258.762 122.126 271.153 127.032C283.547 131.94 297.572 125.872 302.48 113.478C307.385 101.084 301.319 87.062 288.926 82.153ZM299.235 112.195C295.043 122.777 283.023 127.98 272.438 123.788C261.853 119.599 256.653 107.576 260.842 96.993C265.034 86.408 277.054 81.205 287.64 85.397C298.225 89.589 303.425 101.61 299.235 112.195Z" fill="#264149"/>
<path opacity="0.5" d="M278.28 87.251C282.009 88.728 283.835 92.948 282.358 96.677C280.881 100.406 276.661 102.232 272.932 100.755C269.203 99.278 267.377 95.058 268.854 91.329C270.331 87.6 274.551 85.774 278.28 87.251Z" fill="white"/>
<path d="M301.221 109.999L299.188 115.132L310.291 119.528L312.324 114.396L301.221 109.999Z" fill="#264149"/>
<path d="M311.116 109.452L306.032 122.295L308.736 123.365L313.82 110.523L311.116 109.452Z" fill="#FFD43E"/>
<path d="M351.057 125.267L345.973 138.109L348.677 139.18L353.761 126.337L351.057 125.267Z" fill="#FFD43E"/>
<path d="M313.028 112.617L309.587 121.304L346.829 136.051L350.269 127.364L313.028 112.617Z" fill="#264149"/>
<path opacity="0.2" d="M348.505 131.703L350.225 127.359L313.005 112.621L311.284 116.966L351.228 132.782V132.781L348.505 131.703Z" fill="black"/>
<path d="M311.149 109.474L308.606 115.894L311.31 116.965L313.853 110.544L311.149 109.474Z" fill="#FFA82B"/>
<path d="M351.09 125.284L348.548 131.705L351.252 132.775L353.794 126.355L351.09 125.284Z" fill="#FFA82B"/>
<path opacity="0.2" d="M182.863 88.9299C182.253 86.6859 179.84 79.211 173.869 74.662C171.562 72.902 168.721 71.581 165.248 71.167C164.33 71.058 163.366 71.012 162.355 71.039L153.061 65.0959V75.744L157.403 78.52L157.52 78.5959C157.52 78.5959 158.127 80.0209 159.329 81.6629C160.531 83.3049 162.325 85.163 164.698 86.032C164.886 86.1 165.071 86.165 165.248 86.223C166.076 86.498 166.814 86.67 167.484 86.768C167.484 86.768 167.484 86.768 167.487 86.768C173.981 87.716 173.844 81.53 182.585 89.192C182.729 89.317 182.879 89.448 183.029 89.584C183.029 89.581 183.029 89.5809 183.029 89.5809C183.021 89.5379 182.967 89.3089 182.863 88.9299Z" fill="black"/>
<path d="M152.775 62.122L150.225 66.107L147.942 69.681L94.739 35.654C92.712 34.36 92.078 31.707 93.265 29.642C93.3 29.582 93.336 29.519 93.377 29.459C94.712 27.37 97.485 26.762 99.571 28.097L152.775 62.122Z" fill="#FFD43E"/>
<path d="M147.942 69.68L159.225 76.893L161.506 73.329L164.058 69.337L152.775 62.121L150.226 66.107L147.942 69.68Z" fill="#264149"/>
<path d="M159.222 76.893C159.222 76.893 161.651 82.593 166.401 84.329C167.455 84.715 168.372 84.945 169.186 85.064C169.186 85.064 169.186 85.064 169.189 85.064C175.793 86.028 175.54 79.619 184.731 87.881C184.731 87.878 184.731 87.878 184.731 87.878C184.667 87.587 182.55 78.274 175.57 72.96C172.651 70.733 168.882 69.209 164.058 69.337L161.506 73.326L159.222 76.893Z" fill="#FDFDFD"/>
<path d="M169.189 85.0639C175.793 86.0279 175.54 79.619 184.731 87.881C184.731 87.878 184.731 87.878 184.731 87.878C184.667 87.587 182.55 78.274 175.57 72.96C172.207 73.075 171.709 78.585 171.997 81.005C172.001 81.061 172.008 81.115 172.016 81.166C172.412 83.952 169.313 85.0219 169.189 85.0639Z" fill="#A7DFF8"/>
<path d="M150.225 66.107L147.942 69.681L94.739 35.654C92.712 34.36 92.078 31.707 93.265 29.642L150.225 66.107Z" fill="#FFA82B"/>
<path opacity="0.2" d="M159.222 76.8929C159.222 76.8929 161.651 82.5929 166.401 84.3289C167.455 84.7149 168.372 84.9449 169.186 85.0639C169.186 85.0639 169.186 85.0639 169.189 85.0639C175.793 86.0279 175.54 79.6189 184.731 87.8809C184.731 87.8779 184.731 87.8779 184.731 87.8779C184.617 87.6619 181.659 82.1559 177.98 81.2699C176.67 80.9539 174.423 81.1029 171.997 81.0049C167.47 80.8279 162.322 79.7969 161.506 73.3289V73.3259L159.222 76.8929Z" fill="black"/>
<path opacity="0.2" d="M161.505 73.3279L159.225 76.8929L147.943 69.6809L150.225 66.1069L161.505 73.3279Z" fill="black"/>
<path d="M402.727 116.431V291.695H423.256V116.431H402.727ZM412.989 128.087C410.789 128.087 409.003 126.301 409.003 124.098C409.003 121.898 410.789 120.112 412.989 120.112C415.192 120.112 416.978 121.898 416.978 124.098C416.979 126.301 415.193 128.087 412.989 128.087Z" fill="#FFD43E"/>
<path d="M409.149 133.008H404.638V134.049H409.149V133.008Z" fill="#243042"/>
<path d="M409.149 139.034H404.638V140.075H409.149V139.034Z" fill="#243042"/>
<path d="M409.149 145.06H404.638V146.101H409.149V145.06Z" fill="#243042"/>
<path d="M409.149 151.087H404.638V152.128H409.149V151.087Z" fill="#243042"/>
<path d="M409.149 157.113H404.638V158.154H409.149V157.113Z" fill="#243042"/>
<path d="M409.149 163.139H404.638V164.18H409.149V163.139Z" fill="#243042"/>
<path d="M409.149 169.165H404.638V170.206H409.149V169.165Z" fill="#243042"/>
<path d="M409.149 175.191H404.638V176.232H409.149V175.191Z" fill="#243042"/>
<path d="M409.149 181.217H404.638V182.258H409.149V181.217Z" fill="#243042"/>
<path d="M409.149 187.243H404.638V188.284H409.149V187.243Z" fill="#243042"/>
<path d="M409.149 193.269H404.638V194.31H409.149V193.269Z" fill="#243042"/>
<path d="M409.149 199.295H404.638V200.336H409.149V199.295Z" fill="#243042"/>
<path d="M409.149 205.321H404.638V206.362H409.149V205.321Z" fill="#243042"/>
<path d="M409.149 211.348H404.638V212.389H409.149V211.348Z" fill="#243042"/>
<path d="M409.149 216.742H404.638V217.783H409.149V216.742Z" fill="#243042"/>
<path d="M409.149 222.768H404.638V223.809H409.149V222.768Z" fill="#243042"/>
<path d="M409.149 228.795H404.638V229.836H409.149V228.795Z" fill="#243042"/>
<path d="M409.149 234.821H404.638V235.862H409.149V234.821Z" fill="#243042"/>
<path d="M409.149 240.847H404.638V241.888H409.149V240.847Z" fill="#243042"/>
<path d="M409.149 246.873H404.638V247.914H409.149V246.873Z" fill="#243042"/>
<path d="M409.149 252.899H404.638V253.94H409.149V252.899Z" fill="#243042"/>
<path d="M409.149 258.925H404.638V259.966H409.149V258.925Z" fill="#243042"/>
<path d="M409.149 264.951H404.638V265.992H409.149V264.951Z" fill="#243042"/>
<path d="M409.149 270.977H404.638V272.018H409.149V270.977Z" fill="#243042"/>
<path d="M409.149 277.003H404.638V278.044H409.149V277.003Z" fill="#243042"/>
<path d="M409.149 283.03H404.638V284.071H409.149V283.03Z" fill="#243042"/>
<path d="M386.276 50.816V70.222C386.276 75.375 382.095 79.553 376.945 79.553H340.94L339.783 80.004L322.228 86.863L326.621 76.69C325 75.015 324.013 72.731 324.013 70.222V50.816C324.013 45.666 328.191 41.485 333.344 41.485H376.946C380.478 41.485 383.556 43.451 385.14 46.35C385.864 47.678 386.276 49.199 386.276 50.816Z" fill="white"/>
<path d="M379.46 49.057H332.243V52.43H379.46V49.057Z" fill="#A7DFF8"/>
<path d="M379.46 55.48H332.243V58.853H379.46V55.48Z" fill="#A7DFF8"/>
<path d="M379.46 61.904H332.243V65.277H379.46V61.904Z" fill="#A7DFF8"/>
<path d="M379.46 68.327H332.243V71.7H379.46V68.327Z" fill="#A7DFF8"/>
<path opacity="0.1" d="M386.276 50.816V70.222C386.276 75.375 382.095 79.553 376.945 79.553H340.94L339.783 80.004C338.892 78.577 338.383 76.89 338.383 75.087V55.684C338.383 55.614 338.383 55.548 338.386 55.481C338.407 54.409 338.61 53.382 338.968 52.43C339.444 51.149 340.195 50 341.146 49.055C342.833 47.383 345.154 46.35 347.714 46.35H385.139C385.864 47.678 386.276 49.199 386.276 50.816Z" fill="black"/>
<path d="M405.664 57.956V77.36C405.664 82.513 401.485 86.692 396.332 86.692H360.33L341.615 94.003L346.008 83.828C344.389 82.152 343.4 79.869 343.4 77.36V57.956C343.4 52.803 347.579 48.624 352.732 48.624H396.333C401.485 48.624 405.664 52.803 405.664 57.956Z" fill="white"/>
<path d="M398.848 56.1949H351.631V59.5679H398.848V56.1949Z" fill="#A7DFF8"/>
<path d="M398.848 62.619H351.631V65.992H398.848V62.619Z" fill="#A7DFF8"/>
<path d="M398.848 69.0419H351.631V72.4149H398.848V69.0419Z" fill="#A7DFF8"/>
<path d="M398.848 75.465H351.631V78.838H398.848V75.465Z" fill="#A7DFF8"/>
<path d="M143.078 112.18C146.035 99.3316 138.017 86.5184 125.168 83.5611C112.32 80.6038 99.5066 88.6221 96.5492 101.471C93.5919 114.319 101.61 127.132 114.459 130.09C127.307 133.047 140.12 125.029 143.078 112.18Z" fill="#FDFDFD"/>
<path d="M132.951 109.376L119.844 122.483L119.823 122.462L106.626 109.262C103.526 106.162 103.526 101.088 106.626 97.989C108.179 96.436 110.222 95.661 112.265 95.661C114.308 95.661 116.349 96.436 117.902 97.986L119.823 99.907L119.847 99.931L121.792 97.989C124.868 94.91 129.885 94.887 132.99 97.911C136.173 101.01 136.092 106.234 132.951 109.376Z" fill="#F66B3B"/>
<path d="M132.951 109.376L119.844 122.483L119.823 122.462V99.907L119.847 99.931L121.792 97.989C124.868 94.91 129.885 94.887 132.99 97.911C136.173 101.01 136.092 106.234 132.951 109.376Z" fill="#DC573B"/>
<path d="M102.255 270.557V291.698H46.052V221.226H96.14V260.018L102.255 270.557Z" fill="#FFA82B"/>
<path d="M79.832 221.226H46.052V291.699H79.832V221.226Z" fill="#FFD43E"/>
<path d="M87.166 221.226H79.832V291.593H87.166C89.147 291.593 90.77 289.97 90.77 287.989V224.827C90.77 222.846 89.147 221.226 87.166 221.226Z" fill="white"/>
<path d="M84.774 227.227H79.832V229.829H84.774C85.102 229.829 85.398 229.684 85.614 229.446C85.83 229.211 85.964 228.885 85.964 228.529C85.965 227.813 85.428 227.227 84.774 227.227Z" fill="#A7DFF8"/>
<path d="M84.774 233.433H79.832V236.033H84.774C85.102 236.033 85.398 235.885 85.614 235.65C85.83 235.415 85.964 235.092 85.964 234.733C85.965 234.016 85.428 233.433 84.774 233.433Z" fill="#A7DFF8"/>
<path d="M84.774 239.637H79.832V242.237H84.774C85.102 242.237 85.398 242.092 85.614 241.854C85.83 241.619 85.964 241.293 85.964 240.937C85.965 240.222 85.428 239.637 84.774 239.637Z" fill="#A7DFF8"/>
<path d="M84.774 245.84H79.832V248.442H84.774C85.102 248.442 85.398 248.297 85.614 248.059C85.83 247.824 85.964 247.498 85.964 247.14C85.965 246.426 85.428 245.84 84.774 245.84Z" fill="#A7DFF8"/>
<path d="M84.774 252.044H79.832V254.646H84.774C85.102 254.646 85.398 254.498 85.614 254.263C85.83 254.028 85.964 253.702 85.964 253.344C85.965 252.629 85.428 252.044 84.774 252.044Z" fill="#A7DFF8"/>
<path d="M84.774 258.247H79.832V260.849H84.774C85.102 260.849 85.398 260.704 85.614 260.466C85.83 260.231 85.964 259.905 85.964 259.547C85.965 258.833 85.428 258.247 84.774 258.247Z" fill="#A7DFF8"/>
<path d="M84.774 264.451H79.832V267.053H84.774C85.102 267.053 85.398 266.905 85.614 266.67C85.83 266.435 85.964 266.112 85.964 265.753C85.965 265.036 85.428 264.451 84.774 264.451Z" fill="#A7DFF8"/>
<path d="M84.774 270.654H79.832V273.256H84.774C85.102 273.256 85.398 273.111 85.614 272.873C85.83 272.638 85.964 272.312 85.964 271.956C85.965 271.24 85.428 270.654 84.774 270.654Z" fill="#A7DFF8"/>
<path d="M84.774 276.86H79.832V279.46H84.774C85.102 279.46 85.398 279.312 85.614 279.077C85.83 278.842 85.964 278.519 85.964 278.16C85.965 277.443 85.428 276.86 84.774 276.86Z" fill="#A7DFF8"/>
<path d="M84.774 283.064H79.832V285.664H84.774C85.102 285.664 85.398 285.519 85.614 285.284C85.83 285.049 85.964 284.723 85.964 284.364C85.965 283.65 85.428 283.064 84.774 283.064Z" fill="#A7DFF8"/>
<path opacity="0.2" d="M82.898 221.043H79.832V291.594H82.898V221.043Z" fill="black"/>
<path d="M80.875 102.429L77.364 98.918L74.297 101.985C73.036 101.123 71.638 100.544 70.192 100.257V95.604H65.227V100.4C64.257 100.647 63.317 101.027 62.429 101.538L59.225 98.334L55.714 101.845L58.781 104.912C57.919 106.173 57.34 107.571 57.053 109.017H52.985V113.982H57.195C57.511 115.22 58.036 116.412 58.78 117.502L55.713 120.569L59.224 124.08L62.429 120.876C63.67 121.591 65.016 122.047 66.397 122.246V126.927H71.362V121.852C72.391 121.529 73.38 121.055 74.297 120.428L77.364 123.495L80.875 119.984L77.671 116.78C78.182 115.893 78.561 114.952 78.809 113.982H83.604V109.017H78.951C78.718 107.841 78.284 106.7 77.671 105.634L80.875 102.429ZM71.22 114.424C69.445 116.199 66.558 116.198 64.783 114.424C63.008 112.65 63.008 109.762 64.783 107.988C66.557 106.213 69.445 106.213 71.22 107.988C72.994 109.762 72.994 112.65 71.22 114.424Z" fill="#008CCD"/>
<path d="M62.675 134.147L60.92 132.392L59.386 133.926C58.755 133.495 58.057 133.206 57.333 133.062V130.735H54.851V133.133C54.366 133.257 53.896 133.446 53.452 133.702L51.85 132.1L50.095 133.855L51.629 135.389C51.198 136.02 50.909 136.718 50.765 137.442H48.73V139.925H50.835C50.993 140.544 51.255 141.14 51.627 141.685L50.093 143.219L51.848 144.974L53.45 143.372C54.071 143.729 54.744 143.958 55.434 144.057V146.397H57.917V143.86C58.431 143.699 58.926 143.462 59.385 143.148L60.919 144.682L62.674 142.926L61.072 141.324C61.327 140.88 61.517 140.41 61.641 139.925H64.039V137.442H61.713C61.596 136.854 61.38 136.283 61.073 135.751L62.675 134.147ZM57.847 140.145C56.96 141.032 55.516 141.032 54.629 140.145C53.742 139.258 53.742 137.814 54.629 136.927C55.516 136.04 56.96 136.04 57.847 136.927C58.734 137.814 58.734 139.258 57.847 140.145Z" fill="#008CCD"/>
<path d="M386.953 151.635L383.442 148.124L380.375 151.191C379.114 150.329 377.716 149.75 376.27 149.463V144.81H371.305V149.606C370.335 149.853 369.395 150.232 368.508 150.744L365.303 147.539L361.792 151.05L364.859 154.117C363.997 155.379 363.418 156.776 363.131 158.222H359.063V163.187H363.274C363.589 164.425 364.114 165.617 364.859 166.707L361.792 169.774L365.303 173.285L368.507 170.081C369.748 170.796 371.094 171.252 372.475 171.451V176.132H377.44V171.058C378.469 170.735 379.458 170.261 380.375 169.634L383.442 172.701L386.953 169.19L383.749 165.986C384.26 165.099 384.639 164.158 384.887 163.188H389.682V158.223H385.029C384.796 157.047 384.362 155.906 383.749 154.84L386.953 151.635ZM377.299 163.63C375.524 165.405 372.637 165.404 370.862 163.63C369.087 161.855 369.087 158.968 370.862 157.193C372.636 155.419 375.524 155.418 377.298 157.193C379.073 158.968 379.073 161.856 377.299 163.63Z" fill="#008CCD"/>
<path d="M368.753 183.353L366.998 181.598L365.464 183.132C364.833 182.701 364.135 182.412 363.411 182.268V179.941H360.929V182.339C360.444 182.463 359.974 182.652 359.53 182.908L357.928 181.306L356.173 183.061L357.707 184.595C357.276 185.226 356.987 185.924 356.843 186.648H354.809V189.13H356.914C357.072 189.749 357.334 190.345 357.707 190.89L356.173 192.424L357.928 194.179L359.53 192.577C360.151 192.934 360.824 193.163 361.514 193.262V195.602H363.997V193.065C364.511 192.904 365.006 192.667 365.464 192.353L366.998 193.886L368.753 192.131L367.151 190.529C367.406 190.085 367.596 189.615 367.72 189.13H370.118V186.648H367.791C367.674 186.06 367.458 185.489 367.151 184.957L368.753 183.353ZM363.926 189.351C363.039 190.238 361.595 190.238 360.708 189.351C359.821 188.464 359.821 187.02 360.708 186.133C361.595 185.246 363.039 185.246 363.926 186.133C364.813 187.02 364.813 188.464 363.926 189.351Z" fill="#008CCD"/>
<path d="M331.779 13.995C320.656 15.25 319.638 16.267 318.384 27.39C317.129 16.266 316.112 15.249 304.989 13.995C316.113 12.74 317.13 11.723 318.384 0.599976C319.638 11.723 320.656 12.74 331.779 13.995Z" fill="white"/>
<path d="M79.562 181.737C68.439 182.992 67.421 184.009 66.167 195.132C64.912 184.008 63.895 182.991 52.772 181.737C63.895 180.482 64.913 179.465 66.167 168.342C67.421 179.466 68.438 180.483 79.562 181.737Z" fill="white"/>
</svg>
