<svg width="399" height="282" viewBox="0 0 399 282" fill="none" xmlns="http://www.w3.org/2000/svg">
<path d="M353.01 106.778C327.874 15.0204 210.798 -3.03484 113.736 44.4903C16.6748 92.0154 14.7431 272.846 177.95 278.224C341.156 283.601 369.576 167.252 353.01 106.778Z" fill="#FAE9DC"/>
<path d="M123.883 281.647C105.713 281.647 88.8519 275.83 73.1156 258.39C65.4803 249.929 60.5265 241.103 57.97 231.407C55.6878 222.75 55.383 213.586 57.0387 203.392C60.1104 184.479 69.3034 165.469 79.0363 145.343C82.4214 138.343 85.9218 131.105 89.0985 123.948C94.9011 110.874 99.1349 96.4329 103.229 82.4675C113.979 45.8008 124.133 11.1676 160.455 3.18571C203.499 -6.2746 219.165 12.4548 238.999 36.1664C249.442 48.6523 261.28 62.8042 278.999 75.2593C314.385 100.132 336.212 121.802 347.693 143.458C361.723 169.924 360.456 196.823 343.816 225.693C334.66 241.579 322.85 251.193 306.65 255.948C292.233 260.18 276.126 260.039 259.074 259.891C242.224 259.743 224.802 259.592 207.267 263.581C197.24 265.862 187.57 268.567 178.219 271.183C158.883 276.592 140.814 281.647 123.883 281.647ZM160.555 3.64145L160.655 4.09732C124.875 11.9605 114.797 46.3359 104.127 82.7297C100.024 96.7243 95.7809 111.195 89.9531 124.326C86.7704 131.497 83.2667 138.742 79.8781 145.749C60.6521 185.506 42.4924 223.057 73.81 257.765C103.822 291.026 138.182 281.414 177.966 270.283C187.329 267.664 197.01 264.956 207.059 262.67C224.701 258.657 242.18 258.809 259.082 258.957C293.508 259.256 323.243 259.516 343.006 225.226C359.472 196.658 360.734 170.054 346.866 143.894C335.457 122.374 313.721 100.807 278.461 76.0225C260.641 63.4966 248.762 49.2946 238.281 36.7645C218.651 13.2964 203.146 -5.24104 160.655 4.09705L160.555 3.64145Z" fill="#F0CDB6"/>
<path d="M180.972 78.5146C205.524 66.7177 225.681 48.0552 245.716 58.8994C265.752 69.7436 248.594 102.789 267.271 117.525C285.948 132.261 325.835 157.628 305.218 201.412C284.602 245.196 224.01 219.593 207.21 209.875C190.41 200.157 175.849 255.816 129.246 238.406C82.6422 220.996 116.388 180.114 116.345 163.918C116.302 147.723 86.0725 121.139 106.781 103.321C127.489 85.5033 146.016 95.3101 180.972 78.5146Z" fill="#FFF6F0"/>
<path d="M304.774 191.776C343.232 154.898 386.504 154.73 386.527 173.092C386.55 191.455 310.001 222.034 305.061 219.416C300.12 216.798 304.774 191.776 304.774 191.776Z" fill="#FFAB3B"/>
<path d="M303.367 223.062C327.951 210.137 346.681 209.965 346.039 220.896C345.397 231.826 305.652 241.624 301.25 236.11C296.849 230.596 303.367 223.062 303.367 223.062Z" fill="#FFAB3B"/>
<path d="M306.184 104.61C311.308 73.0015 331.274 65.417 336.44 77.131C343.821 93.8653 312.455 131.262 309.611 129.813C306.767 128.364 306.184 104.61 306.184 104.61Z" fill="#FF7C3B"/>
<path d="M303.354 137.096C335.685 103.763 381.849 90.3131 383.119 113.358C384.39 136.403 293.375 155.853 293.375 155.853L303.354 137.096Z" fill="#FF7C3B"/>
<path d="M95.2328 129.601C79.1803 90.115 42.1782 90.5981 37.8275 107.573C33.4769 124.548 80.4505 136.13 88.9847 147.324C97.5189 158.518 95.2328 129.601 95.2328 129.601Z" fill="#FF7C3B"/>
<path d="M99.6063 202.228C89.623 164.069 38.4228 153.898 35.4522 170.345C32.4816 186.792 94.6208 196.689 93.7805 216.959C92.9402 237.23 99.6063 202.228 99.6063 202.228Z" fill="#FFAB3B"/>
<path d="M90.6345 202.325C46.524 183.618 -2.89693 184.743 1.03834 209.289C5.49217 237.069 73.2908 197.29 85.3955 221.798C97.5003 246.305 90.6345 202.325 90.6345 202.325Z" fill="#FFAB3B"/>
<path d="M305.798 204.405C305.524 204.459 305.23 204.372 305.031 204.148C304.731 203.813 304.76 203.297 305.097 202.998C325.818 184.537 368.146 171.04 368.571 170.906C369.007 170.763 369.459 171.008 369.595 171.437C369.731 171.866 369.493 172.324 369.063 172.459C368.641 172.593 326.642 185.987 306.183 204.214C306.07 204.315 305.936 204.378 305.798 204.405Z" fill="#FFD194"/>
<path d="M352.926 188.292C352.859 188.305 352.79 188.31 352.719 188.306L332.788 187.117C332.338 187.09 331.995 186.703 332.022 186.254C332.049 185.804 332.435 185.464 332.886 185.489L352.817 186.679C353.267 186.705 353.61 187.092 353.583 187.541C353.56 187.92 353.282 188.222 352.926 188.292Z" fill="#FFD194"/>
<path d="M300.134 146.445C299.642 146.024 299.586 145.284 300.007 144.793C304.821 139.19 343.079 115.969 366.042 111.922C366.681 111.81 367.291 112.235 367.401 112.872C367.514 113.509 367.089 114.116 366.451 114.229C344.432 118.109 306.344 141.015 301.788 146.319C301.366 146.809 300.625 146.866 300.134 146.445Z" fill="#FFD194"/>
<path d="M92.6831 140.571C92.2853 140.725 91.8196 140.594 91.566 140.228C91.3909 139.976 73.7877 114.959 48.3424 109.193C47.8334 109.078 47.5147 108.572 47.6303 108.064C47.7456 107.557 48.2512 107.238 48.7601 107.353C74.9332 113.285 92.9401 138.897 93.1189 139.155C93.4157 139.583 93.3086 140.17 92.88 140.466C92.8174 140.51 92.751 140.545 92.6831 140.571Z" fill="#FFD194"/>
<path d="M90.5088 203.019C90.1989 202.963 89.954 202.704 89.9303 202.376C89.2235 192.61 74.3756 176.239 49.3639 172.208C49.3598 172.207 49.3555 172.206 49.3512 172.205C48.9733 172.137 48.7182 171.779 48.7795 171.399C48.842 171.015 49.2044 170.754 49.5896 170.815C60.8776 172.636 71.5003 177.308 79.51 183.963C86.5077 189.776 90.9296 196.622 91.3388 202.274C91.3669 202.663 91.0742 203 90.6854 203.028C90.6249 203.033 90.5658 203.029 90.5088 203.019Z" fill="#FFD194"/>
<path d="M9.54718 205.723C9.28678 205.676 9.0636 205.484 8.99041 205.212C8.88893 204.837 9.11183 204.449 9.48849 204.348C40.0242 196.133 76.9316 200.928 81.2903 213.677C81.4161 214.045 81.2193 214.446 80.8503 214.572C80.481 214.698 80.0801 214.501 79.9538 214.132C78.0997 208.709 68.8835 204.381 55.2962 202.551C41.0197 200.63 24.4574 201.781 9.85581 205.71C9.75168 205.738 9.64671 205.741 9.54718 205.723Z" fill="#FFD194"/>
<path d="M54.5996 178.997C54.2775 178.939 54.0292 178.662 54.0198 178.322C54.0091 177.933 54.3163 177.609 54.706 177.598L69.0232 177.203C69.4148 177.191 69.738 177.498 69.7486 177.888C69.7594 178.277 69.4521 178.601 69.0625 178.612L54.7453 179.007C54.6954 179.009 54.6466 179.005 54.5996 178.997Z" fill="#FFD194"/>
<path d="M24.6579 210.402C24.5165 210.377 24.3816 210.308 24.2744 210.197C24.0045 209.916 24.0136 209.47 24.2951 209.2L33.207 200.662C33.4877 200.392 33.9351 200.401 34.2052 200.683C34.4751 200.963 34.4661 201.41 34.1845 201.679L25.2726 210.217C25.1031 210.38 24.873 210.441 24.6579 210.402Z" fill="#FFD194"/>
<path d="M35.025 210.842C34.8905 210.818 34.7616 210.755 34.6566 210.652C34.3784 210.379 34.3741 209.933 34.6471 209.655L43.6501 200.488C43.9234 200.21 44.3704 200.206 44.6487 200.478C44.9269 200.751 44.9312 201.197 44.6583 201.475L35.6553 210.642C35.4851 210.815 35.2474 210.882 35.025 210.842Z" fill="#FFD194"/>
<path d="M46.3475 212.35C46.2405 212.331 46.1362 212.287 46.0439 212.216C45.7345 211.979 45.6759 211.536 45.9133 211.227L53.5676 201.262C53.8046 200.953 54.2479 200.895 54.5576 201.132C54.8671 201.369 54.9255 201.811 54.6883 202.121L47.0339 212.086C46.8674 212.303 46.5994 212.396 46.3475 212.35Z" fill="#FFD194"/>
<path d="M304.551 235.681H93.2675C87.6178 235.681 83.0378 231.107 83.0378 225.466V101.313C83.0378 95.6713 87.6178 91.0979 93.2675 91.0979H304.551C310.201 91.0979 314.781 95.6713 314.781 101.313V225.466C314.781 231.107 310.201 235.681 304.551 235.681Z" fill="#404059"/>
<path d="M303.244 221.047H94.5748C92.015 221.047 89.9399 218.974 89.9399 216.418V101.485C89.9399 98.9286 92.015 96.8564 94.5748 96.8564H303.244C305.804 96.8564 307.879 98.9286 307.879 101.485V216.418C307.879 218.974 305.804 221.047 303.244 221.047Z" fill="white"/>
<path d="M302.085 102.835H95.7335V215.069H302.085V102.835Z" fill="#FAE9DC"/>
<path d="M302.085 102.835H95.7335V118.657H302.085V102.835Z" fill="#F0CDB6"/>
<path d="M108.089 112.589C109.109 112.589 109.935 111.764 109.935 110.746C109.935 109.728 109.109 108.903 108.089 108.903C107.069 108.903 106.243 109.728 106.243 110.746C106.243 111.764 107.069 112.589 108.089 112.589Z" fill="#FAE9DC"/>
<path d="M114.037 112.589C115.057 112.589 115.883 111.764 115.883 110.746C115.883 109.728 115.057 108.903 114.037 108.903C113.018 108.903 112.191 109.728 112.191 110.746C112.191 111.764 113.018 112.589 114.037 112.589Z" fill="white"/>
<path d="M119.986 112.589C121.006 112.589 121.832 111.764 121.832 110.746C121.832 109.728 121.006 108.903 119.986 108.903C118.966 108.903 118.14 109.728 118.14 110.746C118.14 111.764 118.966 112.589 119.986 112.589Z" fill="white"/>
<path d="M286.225 113.732C286.016 113.524 286.016 113.185 286.225 112.975L291.448 107.759C291.658 107.55 291.998 107.551 292.206 107.759C292.415 107.968 292.416 108.307 292.206 108.516L286.983 113.732C286.774 113.941 286.434 113.94 286.225 113.732Z" fill="#FAE9DC"/>
<path d="M291.449 113.732L286.227 108.517C286.018 108.309 286.017 107.969 286.227 107.76C286.436 107.551 286.776 107.552 286.985 107.76L292.207 112.975C292.416 113.184 292.417 113.523 292.207 113.732C291.998 113.941 291.658 113.94 291.449 113.732Z" fill="#FAE9DC"/>
<path d="M157.729 188.272H108.823V191.16H157.729V188.272Z" fill="#F0CDB6"/>
<path d="M157.729 194.267H108.823V197.155H157.729V194.267Z" fill="#F0CDB6"/>
<path d="M134.816 200.262H108.823V203.15H134.816V200.262Z" fill="#F0CDB6"/>
<path d="M157.729 133.602H108.823V179.344H157.729V133.602Z" fill="#F0CDB6"/>
<path d="M129.736 164.265C129.443 164.265 129.149 164.188 128.881 164.034C128.348 163.726 128.028 163.173 128.028 162.558V150.389C128.028 149.773 128.347 149.22 128.882 148.912C129.417 148.604 130.055 148.603 130.59 148.913L141.143 154.998C141.677 155.305 141.996 155.857 141.996 156.473C141.996 157.09 141.678 157.642 141.143 157.949L130.59 164.034C130.322 164.188 130.029 164.265 129.736 164.265ZM129.736 149.526C129.587 149.526 129.439 149.565 129.305 149.643C129.034 149.799 128.873 150.078 128.873 150.389V162.558C128.873 162.868 129.034 163.147 129.304 163.303C129.575 163.459 129.897 163.459 130.167 163.304L140.72 157.219C140.99 157.063 141.151 156.785 141.151 156.473C141.151 156.162 140.99 155.883 140.72 155.727L130.167 149.643C130.032 149.566 129.883 149.526 129.736 149.526Z" fill="#FAE9DC"/>
<path d="M133.276 171.705C124.865 171.705 118.022 164.873 118.022 156.473C118.022 148.074 124.865 141.241 133.276 141.241C141.687 141.241 148.53 148.074 148.53 156.473C148.53 164.873 141.687 171.705 133.276 171.705ZM133.276 142.085C125.331 142.085 118.867 148.54 118.867 156.473C118.867 164.407 125.331 170.861 133.276 170.861C141.221 170.861 147.685 164.407 147.685 156.473C147.685 148.54 141.221 142.085 133.276 142.085Z" fill="#FAE9DC"/>
<path d="M287.991 188.272H239.085V191.16H287.991V188.272Z" fill="#F0CDB6"/>
<path d="M287.991 194.267H239.085V197.155H287.991V194.267Z" fill="#F0CDB6"/>
<path d="M265.078 200.262H239.085V203.15H265.078V200.262Z" fill="#F0CDB6"/>
<path d="M287.991 133.602H239.085V179.344H287.991V133.602Z" fill="#F0CDB6"/>
<path d="M259.998 164.265C259.704 164.265 259.41 164.188 259.143 164.034C258.609 163.726 258.29 163.173 258.29 162.558V150.389C258.29 149.773 258.609 149.22 259.144 148.912C259.679 148.604 260.317 148.603 260.851 148.913L271.404 154.998C271.939 155.305 272.258 155.857 272.258 156.473C272.258 157.09 271.939 157.642 271.404 157.949L260.851 164.034C260.584 164.188 260.291 164.265 259.998 164.265ZM259.997 149.526C259.849 149.526 259.701 149.565 259.566 149.643C259.296 149.799 259.135 150.078 259.135 150.389V162.558C259.135 162.868 259.296 163.147 259.566 163.303C259.836 163.459 260.158 163.459 260.429 163.304L270.982 157.219C271.252 157.063 271.413 156.785 271.413 156.473C271.413 156.162 271.252 155.883 270.982 155.727L260.429 149.643C260.293 149.566 260.145 149.526 259.997 149.526Z" fill="#FAE9DC"/>
<path d="M263.538 171.705C255.126 171.705 248.284 164.873 248.284 156.473C248.284 148.074 255.126 141.241 263.538 141.241C271.949 141.241 278.792 148.074 278.792 156.473C278.792 164.873 271.949 171.705 263.538 171.705ZM263.538 142.085C255.593 142.085 249.129 148.54 249.129 156.473C249.129 164.407 255.593 170.861 263.538 170.861C271.483 170.861 277.947 164.407 277.947 156.473C277.947 148.54 271.483 142.085 263.538 142.085Z" fill="#FAE9DC"/>
<path d="M191.283 142.578C199.839 138.467 206.863 131.963 213.845 135.742C220.827 139.521 214.848 151.037 221.356 156.172C227.865 161.308 241.765 170.147 234.58 185.405C227.396 200.663 206.281 191.74 200.426 188.354C194.572 184.967 189.498 204.363 173.257 198.296C157.017 192.229 168.777 177.983 168.762 172.339C168.747 166.695 158.213 157.431 165.429 151.222C172.645 145.013 179.102 148.431 191.283 142.578Z" fill="#FFF6F0"/>
<path d="M233.934 154.802C234.857 153.866 236.269 153.703 237.362 154.315C237.511 153.941 237.638 153.554 237.746 153.155C238.046 152.024 238.145 150.886 238.066 149.783C237.653 149.866 237.214 149.859 236.78 149.745C235.264 149.343 234.36 147.79 234.763 146.276C234.973 145.487 235.493 144.865 236.161 144.509C235.269 143.263 234.099 142.21 232.709 141.458C232.198 142.799 230.745 143.565 229.324 143.19C227.973 142.832 227.107 141.556 227.223 140.209C225.574 140.295 223.991 140.776 222.595 141.584C223.195 142.268 223.453 143.229 223.202 144.175C222.799 145.689 221.244 146.591 219.73 146.19C219.324 146.083 218.961 145.893 218.657 145.643C218.287 146.333 217.99 147.078 217.779 147.868C216.317 153.376 219.602 159.021 225.115 160.481C228.275 161.318 231.485 160.597 233.922 158.791C232.841 157.682 232.842 155.909 233.934 154.802ZM223.324 149.336C223.974 146.89 226.487 145.43 228.94 146.08C231.39 146.729 232.851 149.238 232.201 151.688C231.551 154.134 229.036 155.592 226.585 154.944C224.135 154.295 222.675 151.784 223.324 149.336Z" fill="#79C5EE"/>
<path d="M233.477 152.178C234.317 149.01 232.422 145.75 229.251 144.91C226.078 144.072 222.814 145.964 221.972 149.131C221.133 152.299 223.028 155.558 226.199 156.398C229.371 157.237 232.636 155.344 233.477 152.178ZM226.281 156.093C223.279 155.297 221.483 152.212 222.278 149.212C223.075 146.215 226.165 144.421 229.169 145.216C232.171 146.012 233.967 149.097 233.171 152.096C232.374 155.094 229.284 156.887 226.281 156.093Z" fill="#5091B9"/>
<path d="M171.065 162.686C165.945 163.166 161.387 159.398 160.906 154.285C160.424 149.171 164.198 144.621 169.319 144.14C174.439 143.659 178.997 147.428 179.478 152.541C179.96 157.654 176.185 162.205 171.065 162.686ZM169.587 146.983C166.036 147.317 163.419 150.472 163.753 154.017C164.087 157.563 167.247 160.176 170.797 159.843C174.348 159.509 176.965 156.354 176.631 152.808C176.297 149.263 173.137 146.65 169.587 146.983Z" fill="#5091B9"/>
<path d="M161.486 152.774C161.486 152.774 159.192 152.301 158.666 152.695C158.141 153.088 158.585 155.571 158.987 156.106C159.389 156.642 161.775 155.845 161.775 155.845L161.486 152.774Z" fill="#5091B9"/>
<path d="M178.626 151.165C178.626 151.165 180.792 150.273 181.382 150.562C181.971 150.851 181.998 153.373 181.703 153.974C181.408 154.575 178.915 154.236 178.915 154.236L178.626 151.165Z" fill="#5091B9"/>
<path d="M169.552 162.106C169.552 162.106 169.079 164.397 169.473 164.922C169.867 165.447 172.353 165.003 172.889 164.601C173.426 164.2 172.627 161.818 172.627 161.818L169.552 162.106Z" fill="#5091B9"/>
<path d="M167.941 144.991C167.941 144.991 167.048 142.828 167.337 142.239C167.626 141.65 170.152 141.624 170.754 141.918C171.356 142.213 171.016 144.702 171.016 144.702L167.941 144.991Z" fill="#5091B9"/>
<path d="M163.584 159.108C163.584 159.108 161.626 160.394 161.534 161.043C161.441 161.693 163.513 163.134 164.177 163.229C164.84 163.324 165.962 161.075 165.962 161.075L163.584 159.108Z" fill="#5091B9"/>
<path d="M174.564 145.868C174.564 145.868 175.464 143.708 176.086 143.496C176.707 143.284 178.511 145.048 178.729 145.682C178.946 146.315 176.943 147.835 176.943 147.835L174.564 145.868Z" fill="#5091B9"/>
<path d="M164.377 146.825C164.377 146.825 163.089 144.87 162.439 144.777C161.789 144.685 160.345 146.754 160.25 147.417C160.155 148.079 162.407 149.2 162.407 149.2L164.377 146.825Z" fill="#5091B9"/>
<path d="M177.636 157.789C177.636 157.789 179.799 158.688 180.011 159.309C180.224 159.929 178.457 161.731 177.822 161.948C177.188 162.165 175.666 160.165 175.666 160.165L177.636 157.789Z" fill="#5091B9"/>
<path d="M194.024 187.558V198.491H205.276L204.439 187.558H194.024Z" fill="#1D3442"/>
<path d="M187.112 197.654C187.574 197.192 211.981 197.731 212.361 198.035C212.741 198.339 212.589 201.452 212.361 201.679C212.133 201.907 187.5 201.983 187.044 201.679C186.587 201.376 186.58 198.186 187.112 197.654Z" fill="#28495C"/>
<path d="M169.34 150.509C169.893 149.68 226.919 151.117 227.426 151.623C227.933 152.129 228.678 187.255 228.475 187.963C228.272 188.672 170.252 188.368 169.34 187.963C168.427 187.558 168.934 151.117 169.34 150.509Z" fill="#28495C"/>
<path d="M225.064 185.173C225.014 185.337 221.137 185.439 215.514 185.489C213.523 185.507 211.316 185.52 208.982 185.526C204.274 185.542 199.052 185.535 194.071 185.511C193.154 185.505 192.248 185.502 191.353 185.496C185.786 185.461 180.716 185.409 177.269 185.343C175.679 185.313 174.433 185.28 173.645 185.248C173.084 185.224 172.754 185.197 172.695 185.173C172.084 184.912 172.193 167.109 172.438 158.236C172.453 157.704 172.468 157.205 172.484 156.74C172.486 156.653 172.49 156.568 172.492 156.483C172.556 154.615 172.628 153.425 172.695 153.327C172.962 152.941 188.004 153.128 201.75 153.449C205.38 153.529 208.919 153.623 212.071 153.719C212.859 153.743 213.623 153.767 214.357 153.791C219.294 153.95 222.938 154.105 223.892 154.223C224.036 154.24 224.116 154.258 224.134 154.273C224.199 154.334 224.269 155.001 224.337 156.1C224.363 156.485 224.387 156.921 224.411 157.405C224.424 157.669 224.439 157.946 224.453 158.236C224.835 166.473 225.204 184.705 225.064 185.173Z" fill="#FFAB3B"/>
<path d="M224.411 157.405L172.492 156.483C172.556 154.615 172.628 153.425 172.695 153.326C172.962 152.941 188.004 153.128 201.75 153.449C205.38 153.529 208.919 153.623 212.071 153.719C212.859 153.743 213.623 153.767 214.357 153.791C219.294 153.95 222.938 154.105 223.892 154.223C224.036 154.24 224.116 154.257 224.134 154.273C224.199 154.334 224.269 155.001 224.337 156.099C224.363 156.485 224.387 156.921 224.411 157.405Z" fill="#FF643B"/>
<path d="M177.598 154.94C177.598 155.326 177.285 155.638 176.898 155.638C176.512 155.638 176.199 155.326 176.199 154.94C176.199 154.554 176.512 154.241 176.898 154.241C177.285 154.241 177.598 154.554 177.598 154.94Z" fill="#FF863B"/>
<path d="M179.855 154.94C179.855 155.326 179.542 155.638 179.155 155.638C178.769 155.638 178.455 155.326 178.455 154.94C178.455 154.554 178.769 154.241 179.155 154.241C179.542 154.241 179.855 154.554 179.855 154.94Z" fill="#FF863B"/>
<path d="M182.112 154.94C182.112 155.326 181.798 155.638 181.412 155.638C181.025 155.638 180.712 155.326 180.712 154.94C180.712 154.554 181.025 154.241 181.412 154.241C181.798 154.241 182.112 154.554 182.112 154.94Z" fill="#FF863B"/>
<path d="M176.597 159.15C176.793 158.758 192.168 158.809 192.354 159.406C192.541 160.003 192.429 180.13 192.291 180.893C192.058 182.172 176.803 182.557 176.547 180.897C176.309 179.358 176.256 159.832 176.597 159.15Z" fill="#FF863B"/>
<path d="M196.512 171.431C196.712 171.223 212.437 171.25 212.627 171.567C212.818 171.884 212.704 182.577 212.562 182.982C212.324 183.661 196.723 183.866 196.46 182.984C196.217 182.167 196.162 171.793 196.512 171.431Z" fill="#FF863B"/>
<path d="M220.185 165.045C220.006 165.22 211.796 165.309 206.749 165.235C204.559 165.204 202.966 165.143 202.88 165.045C202.618 164.744 202.56 160.932 202.935 160.799C203.001 160.775 204.574 160.76 206.749 160.753C211.806 160.736 220.113 160.766 220.257 160.847C220.46 160.965 220.337 164.895 220.185 165.045Z" fill="#FF863B"/>
<path d="M178.603 171.764C178.644 171.709 180.883 171.603 180.911 171.764C180.938 171.925 180.938 173.659 180.911 173.788C180.883 173.917 178.624 173.874 178.603 173.788C178.583 173.702 178.555 171.829 178.603 171.764Z" fill="#F04936"/>
<path d="M181.773 171.764C181.814 171.709 184.053 171.603 184.08 171.764C184.108 171.925 184.108 173.659 184.08 173.788C184.053 173.917 181.793 173.874 181.773 173.788C181.752 173.702 181.725 171.829 181.773 171.764Z" fill="#F04936"/>
<path d="M190.231 161.176H178.577V162.419H190.231V161.176Z" fill="#FAD6B9"/>
<path d="M183.472 163.922H178.577V164.563H183.472V163.922Z" fill="#FAD6B9"/>
<path d="M183.472 165.276H178.577V165.917H183.472V165.276Z" fill="#FAD6B9"/>
<path d="M183.472 166.63H178.577V167.271H183.472V166.63Z" fill="#FAD6B9"/>
<path d="M183.472 167.984H178.577V168.624H183.472V167.984Z" fill="#FAD6B9"/>
<path d="M183.472 169.337H178.577V169.978H183.472V169.337Z" fill="#FAD6B9"/>
<path d="M186.187 164.003C186.258 163.951 190.147 163.851 190.195 164.003C190.243 164.156 190.243 165.79 190.195 165.912C190.147 166.034 186.223 165.993 186.187 165.912C186.151 165.831 186.104 164.064 186.187 164.003Z" fill="#F04936"/>
<path d="M189.913 167.343H186.458V167.89H189.913V167.343Z" fill="#FAD6B9"/>
<path d="M189.913 168.414H186.458V168.961H189.913V168.414Z" fill="#FAD6B9"/>
<path d="M189.913 169.484H186.458V170.032H189.913V169.484Z" fill="#FAD6B9"/>
<path d="M188.787 170.555H186.458V171.103H188.787V170.555Z" fill="#FAD6B9"/>
<path d="M210.323 173.042H198.669V174.284H210.323V173.042Z" fill="#FAD6B9"/>
<path d="M204.87 175.771H198.669V176.412H204.87V175.771Z" fill="#FAD6B9"/>
<path d="M204.87 177.125H198.669V177.766H204.87V177.125Z" fill="#FAD6B9"/>
<path d="M204.87 178.478H198.669V179.119H204.87V178.478Z" fill="#FAD6B9"/>
<path d="M204.87 179.832H198.669V180.473H204.87V179.832Z" fill="#FAD6B9"/>
<path d="M201.674 181.186H198.669V181.826H201.674V181.186Z" fill="#FAD6B9"/>
<path d="M206.279 175.866C206.35 175.805 210.239 175.687 210.287 175.866C210.335 176.044 210.335 177.958 210.287 178.101C210.239 178.243 206.315 178.196 206.279 178.101C206.244 178.005 206.196 175.937 206.279 175.866Z" fill="#F04936"/>
<path d="M206.279 179.502C206.35 179.441 210.239 179.323 210.287 179.502C210.335 179.68 210.335 181.594 210.287 181.737C210.239 181.879 206.315 181.832 206.279 181.737C206.244 181.641 206.196 179.573 206.279 179.502Z" fill="#F04936"/>
<path d="M219.18 162.707H207.802V163.303H219.18V162.707Z" fill="#FFB03A"/>
<path d="M219.18 162.707H211.224V163.303H219.18V162.707Z" fill="#FFF4EB"/>
<path d="M211.869 163.005C211.869 163.373 211.57 163.671 211.202 163.671C210.833 163.671 210.534 163.373 210.534 163.005C210.534 162.637 210.833 162.338 211.202 162.338C211.57 162.338 211.869 162.637 211.869 163.005Z" fill="#FF643B"/>
<path d="M206.749 160.753V165.235C204.559 165.204 202.966 165.143 202.88 165.045C202.618 164.744 202.56 160.932 202.935 160.799C203.001 160.775 204.574 160.76 206.749 160.753Z" fill="#FF643B"/>
<path d="M204.023 162.216C204.077 162.151 205.79 162.81 205.863 162.945C205.936 163.08 204.396 163.925 204.138 163.869C203.879 163.814 203.869 162.4 204.023 162.216Z" fill="#FFAB3B"/>
<path d="M214.56 167.637C214.673 167.485 220.85 167.192 220.926 167.637C221.001 168.083 221.001 172.864 220.926 173.22C220.85 173.577 214.617 173.458 214.56 173.22C214.504 172.983 214.428 167.816 214.56 167.637Z" fill="#F04936"/>
<path d="M219.888 170.286C219.974 170.283 220.058 170.292 220.137 170.313C220.086 169.956 219.954 169.627 219.759 169.345C219.612 169.509 219.402 169.616 219.167 169.626C218.696 169.646 218.299 169.277 218.278 168.802C218.272 168.66 218.3 168.526 218.355 168.406C218.179 168.369 217.995 168.353 217.806 168.361C217.669 168.367 217.535 168.386 217.405 168.415C217.481 168.537 217.527 168.679 217.533 168.833C217.554 169.308 217.189 169.71 216.719 169.73C216.433 169.742 216.174 169.61 216.01 169.398C215.85 169.645 215.738 169.925 215.684 170.226C215.748 170.206 215.816 170.195 215.885 170.192C216.356 170.172 216.753 170.541 216.774 171.017C216.793 171.468 216.464 171.853 216.028 171.907C216.283 172.293 216.651 172.593 217.081 172.764C217.051 172.682 217.032 172.594 217.028 172.501C217.008 172.025 217.373 171.624 217.843 171.604C218.313 171.584 218.71 171.953 218.731 172.428C218.736 172.555 218.714 172.678 218.669 172.788C219.098 172.632 219.466 172.349 219.728 171.985C219.366 171.899 219.09 171.577 219.073 171.184C219.053 170.707 219.418 170.307 219.888 170.286ZM217.93 171.246C217.599 171.26 217.32 171 217.305 170.666C217.291 170.332 217.548 170.049 217.878 170.035C218.208 170.021 218.488 170.281 218.503 170.615C218.517 170.949 218.26 171.231 217.93 171.246Z" fill="#FF863B"/>
<path d="M218.091 170.075C218.027 170.055 217.958 170.045 217.887 170.048C217.557 170.062 217.3 170.345 217.315 170.679C217.318 170.766 217.34 170.847 217.375 170.92C217.141 170.845 216.966 170.629 216.955 170.367C216.941 170.033 217.197 169.75 217.528 169.736C217.772 169.725 217.99 169.865 218.091 170.075Z" fill="#FF863B"/>
<path d="M219.377 171.685L219.728 171.985C219.728 171.985 219.509 172.243 219.262 172.064C219.014 171.886 219.377 171.685 219.377 171.685Z" fill="#FF863B"/>
<path d="M218.319 172.488L218.669 172.788C218.669 172.788 219.073 172.42 218.839 172.153C218.606 171.886 218.319 172.488 218.319 172.488Z" fill="#FF863B"/>
<path d="M218.005 168.107L218.356 168.406C218.356 168.406 217.97 168.653 217.814 168.543C217.659 168.433 218.005 168.107 218.005 168.107Z" fill="#FF863B"/>
<path d="M219.409 169.046L219.76 169.345C219.76 169.345 219.919 169.728 219.604 169.648C219.288 169.567 219.409 169.046 219.409 169.046Z" fill="#FF863B"/>
<path d="M215.334 169.926L215.684 170.225C215.684 170.225 215.954 170.126 215.865 169.903C215.775 169.68 215.334 169.926 215.334 169.926Z" fill="#FF863B"/>
<path d="M219.537 169.987C219.624 169.984 219.707 169.993 219.786 170.014C219.736 169.657 219.603 169.328 219.409 169.046C219.262 169.21 219.052 169.317 218.816 169.327C218.66 169.333 218.513 169.297 218.384 169.228C218.124 169.09 217.941 168.82 217.928 168.502C217.922 168.361 217.95 168.227 218.005 168.107C217.829 168.069 217.644 168.054 217.456 168.062C217.319 168.068 217.185 168.086 217.055 168.116C217.13 168.238 217.176 168.38 217.183 168.534C217.203 169.009 216.838 169.411 216.368 169.431C216.082 169.443 215.823 169.311 215.66 169.099C215.5 169.346 215.387 169.626 215.333 169.926C215.398 169.907 215.465 169.896 215.535 169.893C215.962 169.875 216.33 170.178 216.409 170.591C216.416 170.631 216.421 170.674 216.423 170.717C216.442 171.168 216.114 171.554 215.678 171.608C215.933 171.993 216.3 172.294 216.73 172.464C216.7 172.383 216.681 172.294 216.677 172.202C216.657 171.726 217.022 171.325 217.492 171.305C217.962 171.285 218.36 171.653 218.38 172.129C218.386 172.256 218.363 172.378 218.319 172.489C218.748 172.333 219.115 172.05 219.377 171.686C219.015 171.599 218.739 171.278 218.722 170.884C218.702 170.408 219.067 170.007 219.537 169.987ZM217.579 170.946C217.254 170.96 216.978 170.709 216.956 170.383C216.955 170.378 216.955 170.372 216.955 170.366C216.941 170.033 217.197 169.75 217.528 169.736C217.65 169.731 217.764 169.762 217.862 169.822C218.028 169.923 218.143 170.105 218.152 170.315C218.166 170.649 217.91 170.932 217.579 170.946Z" fill="#FFAB3B"/>
<path d="M212.072 153.72L191.353 185.496C185.786 185.462 180.715 185.408 177.268 185.343C175.679 185.312 174.432 185.28 173.645 185.247L201.751 153.448C205.379 153.53 208.918 153.624 212.072 153.72Z" fill="#1A1A1A"/>
<path d="M223.891 154.223L208.981 185.527C204.275 185.542 199.052 185.534 194.07 185.511L214.357 153.79C219.295 153.949 222.937 154.106 223.891 154.223Z" fill="#1A1A1A"/>
<path d="M126.612 147.901C128.605 160.119 140.14 168.411 152.376 166.421C164.612 164.431 172.915 152.913 170.922 140.695C168.93 128.476 157.395 120.185 145.159 122.175C132.923 124.165 124.619 135.683 126.612 147.901ZM131.036 147.182C129.441 137.4 136.084 128.185 145.879 126.592C155.675 124.999 164.903 131.632 166.499 141.414C168.094 151.196 161.451 160.41 151.655 162.003C141.859 163.597 132.632 156.964 131.036 147.182Z" fill="#79C5EE"/>
<g opacity="0.5">
<path d="M161.468 156.982C168.484 149.977 168.484 138.618 161.468 131.613C154.452 124.607 143.078 124.607 136.062 131.613C129.046 138.618 129.046 149.977 136.062 156.982C143.078 163.988 154.452 163.988 161.468 156.982Z" fill="white"/>
</g>
<path d="M132.981 159.109C132.981 159.109 104.463 187.46 104.343 188.349C104.06 190.443 108.158 193.695 110.058 192.768C111.176 192.222 136.893 162.633 136.893 162.633L132.981 159.109Z" fill="#79C5EE"/>
<path d="M163.801 143.35C165.474 141.029 162.557 136.075 157.285 132.286C152.013 128.496 146.383 127.306 144.709 129.628C143.036 131.949 145.953 136.903 151.225 140.692C156.497 144.482 162.127 145.672 163.801 143.35Z" fill="#808080"/>
<path d="M111.596 159.174C111.881 157.112 107.892 153.691 106.134 154.722C104.377 155.753 104.329 158.049 104.329 158.049C104.329 158.049 102.192 155.94 100.482 158.377C98.7726 160.813 102.62 164.46 101.385 166.385C100.15 168.311 97.2053 169.06 98.9626 172.387C100.72 175.714 106.784 174.543 107.718 172.903C108.652 171.263 110.694 162.674 110.694 162.674C110.694 162.674 111.89 161.578 112.024 160.907C112.158 160.236 111.596 159.174 111.596 159.174Z" fill="#40312A"/>
<path d="M112.542 161.138C113.805 162.055 114.517 163.625 114.399 163.789C114.28 163.953 112.776 164.304 112.542 164.187C112.309 164.07 112.542 161.138 112.542 161.138Z" fill="#FD9B73"/>
<path d="M104.33 165.593C104.282 166.952 106.609 166.386 106.609 166.386C106.609 166.386 106.039 172.481 106.372 173.184C106.704 173.887 110.931 173.559 110.741 173.184C110.623 172.953 110.168 171.306 109.831 170.072C109.621 169.299 109.459 168.686 109.459 168.686C109.459 168.686 109.475 168.697 109.507 168.713C109.705 168.807 111.407 169.055 112.345 168.498C114.174 167.413 113.686 162.735 111.597 159.173C111.597 159.173 111.787 160.275 110.694 160.696C109.986 160.97 108.897 160.392 108.897 160.392C108.897 160.392 108.842 162.5 107.844 163.156C106.847 163.812 104.377 164.234 104.33 165.593Z" fill="#FEC6AB"/>
<path d="M107.718 167.256C107.757 167.409 108.418 169.712 109.831 170.072C109.621 169.299 109.459 168.686 109.459 168.686C108.379 168.108 107.777 167.331 107.718 167.256Z" fill="#FD9B73"/>
<path d="M97.8482 217.488C97.6242 217.891 97.5437 218.348 97.6332 218.831C97.943 220.467 102.678 225.783 104.709 225.876C104.936 225.885 105.13 225.829 105.279 225.697C105.952 225.101 105.669 223.466 105.104 221.766C105.067 221.654 105.029 221.542 104.989 221.431C104.851 221.034 104.697 220.64 104.543 220.256C104.495 220.134 104.445 220.017 104.397 219.902C103.821 218.536 103.22 217.386 103.001 217.042C102.429 216.136 102.277 215.847 102.075 215.827C100.125 215.626 98.4567 216.361 97.8482 217.488Z" fill="#1A7EB4"/>
<path d="M97.8482 217.488C97.6242 217.891 97.5437 218.348 97.6332 218.831C97.943 220.467 102.678 225.783 104.709 225.876C104.711 225.872 104.711 225.872 104.711 225.872C101.028 220.562 99.0022 218.312 97.8482 217.488Z" fill="#12405B"/>
<path d="M102.472 219.421C102.422 219.423 102.382 219.46 102.38 219.51C102.381 219.52 102.385 219.531 102.388 219.54C102.401 219.575 102.433 219.6 102.47 219.6C103.569 219.605 104.18 219.903 104.543 220.256C104.495 220.134 104.445 220.017 104.397 219.902C103.996 219.629 103.397 219.426 102.472 219.421Z" fill="white"/>
<path d="M103.019 220.92C102.968 220.918 102.929 220.958 102.928 221.008C102.928 221.018 102.931 221.027 102.934 221.036C102.947 221.071 102.98 221.096 103.016 221.096C104.132 221.101 104.743 221.409 105.104 221.766C105.067 221.654 105.029 221.542 104.989 221.431C104.588 221.141 103.977 220.923 103.019 220.92Z" fill="white"/>
<path d="M114.874 189.162C119.718 196.683 121.072 202.305 120.288 205.117C119.504 207.928 103.973 218.471 102.833 218.26C101.694 218.049 101.124 217.487 101.124 216.292C101.124 215.097 103.76 209.264 106.538 207.296C109.317 205.328 113.734 204.133 113.734 204.133C113.734 204.133 109.453 191.341 110.81 189.443C112.166 187.546 114.874 189.162 114.874 189.162Z" fill="#367394"/>
<path d="M110.601 229.025C110.758 229.458 111.052 229.821 111.477 230.075C112.923 230.932 120.097 230.963 121.515 229.526C121.672 229.363 121.758 229.183 121.757 228.986C121.751 228.095 120.323 227.218 118.66 226.507C118.55 226.46 118.44 226.414 118.329 226.37C117.936 226.209 117.535 226.061 117.142 225.92C117.018 225.874 116.896 225.833 116.776 225.793C115.358 225.311 114.088 224.992 113.681 224.926C112.615 224.747 112.295 224.667 112.145 224.802C110.699 226.109 110.15 227.828 110.601 229.025Z" fill="#1A7EB4"/>
<path d="M110.601 229.025C110.758 229.458 111.052 229.821 111.477 230.075C112.923 230.932 120.097 230.963 121.515 229.526C121.513 229.522 121.513 229.522 121.513 229.522C115.042 228.717 111.991 228.72 110.601 229.025Z" fill="#12405B"/>
<path d="M115.135 226.895C115.103 226.933 115.105 226.987 115.141 227.021C115.149 227.028 115.161 227.032 115.17 227.036C115.205 227.049 115.245 227.042 115.27 227.015C116.003 226.207 116.634 225.954 117.142 225.92C117.018 225.874 116.896 225.833 116.777 225.793C116.303 225.907 115.752 226.215 115.135 226.895Z" fill="white"/>
<path d="M116.634 227.485C116.599 227.521 116.604 227.577 116.641 227.611C116.649 227.618 116.657 227.621 116.666 227.624C116.701 227.638 116.741 227.631 116.766 227.604C117.511 226.784 118.149 226.537 118.659 226.507C118.55 226.46 118.44 226.414 118.328 226.37C117.843 226.473 117.272 226.78 116.634 227.485Z" fill="white"/>
<path d="M108.901 213.434C108.679 215.965 111.121 224.493 111.945 225.395C112.388 225.879 113.081 226.179 113.765 226.101C113.896 226.086 114.023 226.058 114.149 226.015C114.6 225.867 115.028 225.535 115.357 224.965C116.263 223.376 118.056 206.218 114.874 189.162C114.874 189.162 114.664 184.336 108.391 189.584C101.052 195.722 109.792 206.312 110.077 207.64C110.361 208.963 109.127 210.904 108.901 213.434Z" fill="#5091B9"/>
<path d="M113.765 226.101C113.896 226.086 114.023 226.058 114.149 226.015C114.47 218.003 113.631 195.156 112.36 189.123L111.972 189.201C113.251 195.265 114.102 218.335 113.765 226.101Z" fill="white"/>
<path d="M108.39 189.584C109.712 190.861 113.306 190.005 114.874 189.162C116.441 188.319 117.866 178.971 117.866 178.971C117.866 178.971 121.76 178.807 124.61 176.089C127.46 173.371 129.787 169.295 129.787 169.295C129.787 169.295 130.737 168.592 131.592 167.256C132.447 165.921 133.254 161.657 132.115 161.138C130.975 160.618 129.835 164.211 129.835 164.211C129.835 164.211 129.74 162.407 129.122 162.676C128.505 162.942 127.531 167.256 127.531 167.256C127.531 167.256 120.478 172.013 117.581 172.665C114.684 173.317 109.079 170.513 106.285 172.665C106.285 172.665 104.899 186.21 108.39 189.584Z" fill="#FF643B"/>
<path d="M127.531 167.256C128.153 167.28 129.514 168.568 129.787 169.295C129.787 169.295 130.737 168.592 131.592 167.256C132.447 165.921 133.254 161.657 132.115 161.138C130.975 160.618 129.835 164.211 129.835 164.211C129.835 164.211 129.74 162.407 129.122 162.676C128.505 162.942 127.531 167.256 127.531 167.256Z" fill="#FEC6AB"/>
<path d="M179.672 68.3089C179.672 71.5948 179.175 74.6196 178.183 77.3848C177.19 80.1501 175.714 82.5481 173.756 84.5819C171.796 86.6174 169.354 88.209 166.429 89.3549C163.503 90.5025 160.134 91.0771 156.322 91.0771C152.456 91.0771 149.06 90.5025 146.136 89.3549C143.21 88.209 140.768 86.6174 138.809 84.5819C136.851 82.5481 135.373 80.1501 134.382 77.3848C133.389 74.6196 132.893 71.5948 132.893 68.3089V34.2725H145.118V67.8388C145.118 69.5593 145.391 71.1524 145.94 72.6118C146.488 74.0729 147.257 75.3379 148.251 76.4071C149.242 77.4763 150.432 78.3104 151.817 78.9095C153.2 79.5102 154.702 79.8105 156.322 79.8105C157.94 79.8105 159.429 79.5102 160.788 78.9095C162.146 78.3104 163.322 77.4763 164.314 76.4071C165.306 75.3379 166.076 74.0729 166.626 72.6118C167.173 71.1524 167.448 69.5593 167.448 67.8388V34.2725H179.672V68.3089H179.672Z" fill="#FF643B"/>
<path d="M190.599 44.8232C191.285 41.5882 194.185 36.1027 200.136 39.3788C206.087 42.6547 205.4 50.9811 213.182 51.694C220.964 52.4067 228.823 50.3185 228.289 57.229C227.755 64.1394 217.378 60.4064 217.378 60.4064C217.378 60.4064 215.776 67.2631 208.376 63.8347C200.975 60.4064 199.831 44.0264 197.313 42.655C194.795 41.2836 192.659 46.1592 192.659 46.1592L190.599 44.8232Z" fill="#40312A"/>
<path d="M189.035 48.0641C187.738 45.0928 189.843 43.553 190.85 43.8658C191.858 44.1786 192.315 45.6643 192.315 45.6643C192.315 45.6643 194.07 45.1683 194.604 46.1591C195.138 47.1499 194.413 49.5879 193.46 49.664C192.506 49.7402 188.624 49.0926 188.624 49.0926L189.035 48.0641Z" fill="#FFB03A"/>
<path d="M194.292 56.5728C195.939 54.2352 196.245 48.8259 193.918 48.1022C191.591 47.3785 190.027 48.7879 190.027 48.7879C190.027 48.7879 189.683 46.1214 186.403 46.1595C183.122 46.1977 182.817 50.5403 184.991 52.5211C187.166 54.5019 192.048 57.2128 193.117 57.2287C194.185 57.2444 194.292 56.5728 194.292 56.5728Z" fill="#40312A"/>
<path d="M184.965 53.6923C184.619 55.0637 184.351 56.6921 184.533 56.8921C184.903 57.2963 186.307 56.8921 186.307 56.8921L184.965 53.6923Z" fill="#FD9B73"/>
<path d="M188.625 60.2538C190.685 60.6537 191.629 58.603 191.629 58.603C191.629 58.603 191.991 58.9109 192.506 59.3584C193.422 60.152 194.824 61.3869 195.52 62.1202C196.607 63.263 199.583 59.5426 198.896 58.6029C198.209 57.6633 192.811 55.949 192.811 55.949C192.811 55.949 194.147 53.6635 192.487 53.7174C191.057 53.7618 189.969 54.2348 188.367 53.7776C186.765 53.3205 186.593 52.1206 186.593 52.1206C186.593 52.1206 186.45 52.7491 185.862 52.8635C185.277 52.9778 184.991 52.5207 184.991 52.5207C184.724 56.1397 186.565 59.8539 188.625 60.2538Z" fill="#FEC6AB"/>
<path d="M225.308 86.0249C225.569 85.6757 225.932 85.4273 226.384 85.3133C227.915 84.9327 234.343 86.8648 235.213 88.5544C235.309 88.7441 235.336 88.9308 235.28 89.1095C235.028 89.9154 233.507 90.3185 231.821 90.5082C231.709 90.5203 231.598 90.5326 231.487 90.5418C231.091 90.5805 230.691 90.6047 230.3 90.6253C230.176 90.6325 230.055 90.6367 229.938 90.6404C228.535 90.6886 227.31 90.6307 226.927 90.5798C225.924 90.4503 225.615 90.4346 225.519 90.2714C224.587 88.693 224.572 86.9858 225.308 86.0249Z" fill="#FE653B"/>
<path d="M225.308 86.0249C225.569 85.6757 225.932 85.4273 226.384 85.3133C227.915 84.9327 234.343 86.8648 235.213 88.5544C235.211 88.5576 235.211 88.5576 235.211 88.5576C229.197 87.5179 226.468 86.6815 225.308 86.0249Z" fill="#F04936"/>
<path d="M228.774 89.1934C228.756 89.1507 228.772 89.1021 228.815 89.0808C228.823 89.0772 228.835 89.0762 228.844 89.0754C228.879 89.0725 228.913 89.0903 228.928 89.1216C229.36 90.0537 229.854 90.4554 230.3 90.6251C230.176 90.6323 230.055 90.6365 229.937 90.6403C229.546 90.4073 229.138 89.9777 228.774 89.1934Z" fill="white"/>
<path d="M230.28 89.0689C230.259 89.0264 230.278 88.9776 230.321 88.9563C230.329 88.9526 230.338 88.952 230.347 88.9511C230.382 88.9482 230.416 88.966 230.431 88.9973C230.87 89.9436 231.373 90.3416 231.821 90.5082C231.709 90.5203 231.598 90.5326 231.487 90.5418C231.081 90.3157 230.655 89.8818 230.28 89.0689Z" fill="white"/>
<path d="M206.468 78.3101C206.468 78.3101 210.798 88.2007 213.545 90.0787C216.291 91.9567 226.305 91.3056 226.534 90.5707C226.763 89.8359 226.992 89.1701 225.923 88.1903C224.855 87.2104 222.49 85.6599 219.896 85.1287C217.302 84.5975 215.776 85.4956 215.776 85.4956C215.776 85.4956 213.617 71.8669 212.047 70.7075C210.477 69.5479 206.468 78.3101 206.468 78.3101Z" fill="#1D3442"/>
<path d="M207.557 92.538C207.412 92.9488 207.14 93.2942 206.743 93.5375C205.394 94.3567 198.682 94.4259 197.347 93.072C197.199 92.9193 197.117 92.7493 197.117 92.562C197.118 91.7177 198.449 90.8802 200.002 90.1971C200.105 90.1524 200.207 90.1076 200.311 90.0657C200.677 89.9111 201.052 89.7689 201.419 89.6328C201.535 89.5891 201.649 89.5493 201.76 89.5104C203.085 89.0469 204.272 88.7376 204.652 88.6723C205.649 88.4971 205.948 88.4202 206.089 88.5473C207.449 89.7766 207.973 91.4019 207.557 92.538Z" fill="#FE653B"/>
<path d="M207.557 92.538C207.412 92.9488 207.14 93.2941 206.743 93.5374C205.394 94.3566 198.682 94.4258 197.347 93.072C197.349 93.0681 197.349 93.0681 197.349 93.0681C203.4 92.2704 206.254 92.2565 207.557 92.538Z" fill="#F04936"/>
<path d="M203.303 90.5453C203.333 90.5807 203.331 90.6321 203.297 90.6649C203.29 90.671 203.279 90.6754 203.271 90.6787C203.238 90.6919 203.2 90.6851 203.177 90.6595C202.487 89.8983 201.895 89.662 201.419 89.6326C201.535 89.5889 201.649 89.5491 201.76 89.5103C202.204 89.6163 202.722 89.9049 203.303 90.5453Z" fill="white"/>
<path d="M201.903 91.1125C201.936 91.1467 201.932 91.1992 201.897 91.232C201.89 91.238 201.882 91.2414 201.874 91.2447C201.841 91.2579 201.803 91.2511 201.78 91.2255C201.079 90.4529 200.48 90.2227 200.002 90.1971C200.105 90.1524 200.208 90.1076 200.311 90.0657C200.766 90.1606 201.302 90.4481 201.903 91.1125Z" fill="white"/>
<path d="M194.414 81.1668C194.948 84.2714 202.758 89.6235 204.059 89.9473C204.653 90.0965 205.181 90.125 205.61 89.9917C205.715 89.9631 205.817 89.9218 205.909 89.8678C206.265 89.671 206.522 89.3219 206.653 88.7948C206.958 87.5695 205.082 83.7189 203.868 82.2683C202.406 80.5161 200.406 80.024 200.406 80.024C200.406 80.024 210.97 80.1891 212.572 75.1258C214.174 70.0626 209.457 69.2055 209.457 69.2055L207.584 70.2309L207.298 70.3895L203.989 72.2053C197.847 74.472 193.88 78.0654 194.414 81.1668Z" fill="#1F435C"/>
<path d="M202.564 86.9348C203.836 88.0745 205.054 89.1697 205.61 89.9918C205.715 89.9633 205.816 89.9219 205.909 89.8679C205.343 89.0013 204.129 87.9124 202.778 86.6967C200.152 84.3349 196.881 81.3954 197.911 79.4495C198.352 78.6178 200.203 77.8019 202.158 76.9385C204.911 75.7259 208.029 74.3513 208.357 72.4181C208.477 71.7039 208.223 70.9832 207.584 70.2308C207.425 70.0436 207.241 69.8531 207.034 69.6594L206.818 69.8944C206.999 70.0627 207.158 70.2278 207.298 70.3897C207.905 71.0848 208.147 71.7324 208.042 72.3641C207.743 74.1291 204.707 75.4686 202.03 76.6495C199.932 77.5732 198.123 78.37 197.63 79.3033C196.483 81.4652 199.716 84.3699 202.564 86.9348Z" fill="#7699B0"/>
<path d="M174.062 65.5487C174.055 68.0057 180.127 67.555 180.127 67.555C180.127 67.555 185.62 70.5198 189.969 70.2341C194.318 69.9485 196.493 67.7201 196.493 67.7201C196.493 67.7201 196.496 67.7359 196.505 67.7677C196.566 67.9866 196.855 68.9264 197.408 69.3771C198.037 69.8913 202.329 71.7769 203.989 72.0055C204.246 72.0403 204.554 72.0117 204.891 71.9388C205.028 71.9071 205.171 71.8659 205.321 71.8181C207.094 71.2626 209.348 69.6945 209.456 69.2056C209.472 69.1421 209.444 69.0278 209.377 68.8722C208.821 67.5327 205.524 63.1234 203.337 60.9203C200.898 58.4633 197.5 57.7173 197.5 57.7173C194.13 59.006 193.746 63.7772 188.596 64.2916C183.446 64.8058 180.184 64.7931 180.184 64.7931C180.184 64.7931 177.609 63.4345 177.094 63.7774C176.579 64.1202 178.01 64.8694 178.01 64.8694C178.01 64.8694 174.065 64.1583 174.062 65.5487Z" fill="#FFB03A"/>
<path d="M174.062 65.5487C174.055 68.0057 180.127 67.555 180.127 67.555C179.669 66.2344 180.184 64.7933 180.184 64.7933C180.184 64.7933 177.609 63.4347 177.094 63.7775C176.579 64.1204 178.01 64.8695 178.01 64.8695C178.01 64.8695 174.065 64.1584 174.062 65.5487Z" fill="#FEC6AB"/>
<path d="M191.629 58.6032C191.629 58.6032 191.991 58.9111 192.506 59.3586C192.656 58.1746 192.271 56.8349 192.271 56.8349C192.271 56.8349 192.23 57.5047 191.629 58.6032Z" fill="#FD9B73"/>
<path d="M255.101 201.679L236.739 175.195H252.12L263.969 194.627L275.347 175.195H290.178L272.207 201.444L292.296 230.672H276.916L263.341 208.339L250.157 230.672H235.641L255.101 201.679Z" fill="#FF643B"/>
<path d="M277.692 145.436C274.726 144.551 272.162 139.554 273.326 137.898C274.49 136.242 276.46 137.387 276.46 137.387C276.46 137.387 275.797 132.939 278.767 132.713C281.736 132.488 282.239 134.597 282.239 134.597C282.239 134.597 284.317 132.608 286.495 135.111C288.673 137.613 286.029 140.108 286.029 140.108C286.029 140.108 280.982 144.625 280.168 144.768C279.354 144.911 277.692 145.436 277.692 145.436Z" fill="#40312A"/>
<path d="M286.161 141.499C286.915 142.849 286.823 144.647 286.763 144.783C286.702 144.918 285.014 144.616 285.005 144.532C284.997 144.449 286.161 141.499 286.161 141.499Z" fill="#FD9B73"/>
<path d="M282.909 147.877C281.272 147.795 280.411 146.338 280.362 146.252C280.359 146.248 280.359 146.248 280.359 146.248C280.359 146.248 280.107 146.905 279.811 147.724C279.366 148.968 279.206 150.856 279.261 151.125C279.352 151.57 276.312 149.686 275.931 148.891C275.55 148.095 278.233 143.815 278.233 143.815C278.233 143.815 276.606 143.058 276.869 141.768C277.132 140.478 279.228 142.042 281.137 141.666C283.046 141.289 283.422 138.872 283.422 138.872C283.422 138.872 283.842 140.044 284.821 140.338C285.799 140.631 286.029 140.108 286.029 140.108C286.731 144.284 284.563 147.962 282.909 147.877Z" fill="#FEC6AB"/>
<path d="M280.359 146.248C280.359 146.248 280.107 146.906 279.811 147.725C279.309 146.765 279.354 144.911 279.354 144.911C279.354 144.911 279.699 145.599 280.359 146.248Z" fill="#FD9B73"/>
<path d="M304.893 194.382C305.284 194.738 305.775 194.951 306.339 194.983C308.252 195.084 315.465 191.302 316.112 189.088C316.182 188.84 316.171 188.612 316.063 188.412C315.577 187.51 313.672 187.379 311.618 187.541C311.483 187.552 311.348 187.564 311.213 187.578C310.732 187.623 310.25 187.686 309.779 187.752C309.63 187.772 309.485 187.795 309.344 187.817C307.661 188.082 306.215 188.434 305.771 188.582C304.605 188.967 304.241 189.057 304.164 189.274C303.418 191.369 303.794 193.407 304.893 194.382Z" fill="#FE653B"/>
<path d="M304.893 194.382C305.284 194.738 305.775 194.951 306.339 194.983C308.252 195.083 315.465 191.302 316.112 189.088C316.108 189.085 316.108 189.085 316.108 189.085C309.182 191.708 306.123 193.333 304.893 194.382Z" fill="#F04936"/>
<path d="M308.292 189.809C308.28 189.864 308.311 189.918 308.367 189.934C308.378 189.936 308.392 189.935 308.403 189.933C308.445 189.929 308.482 189.9 308.491 189.859C308.791 188.649 309.287 188.057 309.779 187.752C309.63 187.772 309.485 187.795 309.344 187.817C308.931 188.185 308.544 188.791 308.292 189.809Z" fill="white"/>
<path d="M310.115 189.611C310.099 189.666 310.134 189.72 310.189 189.736C310.2 189.738 310.211 189.737 310.222 189.736C310.264 189.731 310.301 189.702 310.311 189.661C310.615 188.433 311.123 187.843 311.618 187.541C311.483 187.552 311.347 187.563 311.213 187.578C310.781 187.941 310.374 188.556 310.115 189.611Z" fill="white"/>
<path d="M270.73 171.182C274.462 180.305 292.008 175.078 292.008 175.078C292.008 175.078 302.477 190.469 304.028 190.469C304.602 190.469 305.256 190.267 305.862 189.961C305.983 189.904 306.104 189.84 306.225 189.767C307.114 189.251 307.841 188.541 308.003 187.952C308.293 186.887 302.865 171.303 297.049 168.108C291.232 164.914 282.12 166.172 282.12 166.172L277.185 168.342L276.813 168.504L270.73 171.182Z" fill="#5091B9"/>
<path d="M276.805 168.496C276.805 168.496 276.805 168.504 276.813 168.504C277.968 170.536 281.418 170.488 285.069 170.44C288.462 170.391 292.299 170.335 294.706 171.956C297.978 174.15 303.762 185.621 305.862 189.96C305.983 189.904 306.104 189.839 306.226 189.767C304.109 185.387 298.325 173.9 294.932 171.617C292.42 169.931 288.51 169.988 285.061 170.036C281.555 170.085 278.243 170.125 277.185 168.342C277.177 168.326 277.169 168.318 277.161 168.302L276.805 168.496Z" fill="white"/>
<path d="M276.287 147.382C277.782 149.692 279.353 149.257 279.353 149.257C279.353 149.257 284.253 164.938 284.035 166.318C283.817 167.697 271.893 172.271 270.73 171.182C269.567 170.093 267.168 164.866 269.858 157.315C272.548 149.765 276.287 147.382 276.287 147.382Z" fill="#79C5EE"/>
<path d="M297.341 167.708L304.801 157.782C304.948 157.587 304.908 157.311 304.714 157.165C304.519 157.019 304.243 157.059 304.096 157.253L296.944 166.77L284.984 165.237C284.741 165.204 284.522 165.376 284.491 165.617C284.46 165.858 284.63 166.078 284.872 166.109L297.341 167.708Z" fill="#28495C"/>
<path d="M286.342 163.305C288.397 162.688 291.616 164.195 291.515 165.928C291.414 167.661 286.366 166.799 285.8 166.486C285.234 166.172 286.342 163.305 286.342 163.305Z" fill="#FEC6AB"/>
<path d="M276.287 147.382C269.276 149.983 265.714 156.444 266.441 161.236C267.168 166.027 285.134 167.261 285.519 166.971C285.904 166.681 286.695 163.849 286.164 162.978C285.634 162.107 275.02 160.544 274.22 159.365C273.42 158.187 276.287 147.382 276.287 147.382Z" fill="#5091B9"/>
<path d="M344.684 245.541H53.1353C44.6608 245.541 37.7907 238.681 37.7907 230.219H360.028C360.028 238.681 353.158 245.541 344.684 245.541Z" fill="#65658C"/>
<path d="M177.407 238.469C179.179 238.349 223.624 246.37 223.624 246.37L238.782 255.995L219.136 258.656C219.136 258.656 173.743 247.04 173.86 245.643C174.349 239.786 177.407 238.469 177.407 238.469Z" fill="#79C5EE"/>
<path d="M219.136 258.656L223.624 246.37L233.981 252.946L233.342 256.732L219.136 258.656Z" fill="#FFD194"/>
<path d="M219.249 248.149C219.413 247.217 212.497 245.217 203.799 243.682C195.102 242.146 187.918 241.656 187.753 242.588C187.588 243.519 194.505 245.519 203.202 247.055C211.899 248.59 219.084 249.08 219.249 248.149Z" fill="#333333"/>
<path d="M161.509 198.752L172.671 202.253L156.757 252.834L145.595 249.332L161.509 198.752Z" fill="#FF643B"/>
<path d="M389.596 219.094C395.436 214.025 395.76 204.847 390.317 198.594C384.875 192.342 375.729 191.382 369.888 196.451C364.047 201.52 363.724 210.698 369.166 216.951C374.608 223.204 383.755 224.163 389.596 219.094Z" fill="#FFB03A"/>
<path d="M365.489 209.281C364.291 212.918 357.848 215.46 356.999 217.064C355.796 219.337 358.482 223.521 361.128 222.813C363.774 222.105 367.597 219.142 371.351 219.044C375.106 218.945 365.489 209.281 365.489 209.281Z" fill="#FFB03A"/>
<path d="M365.661 217.524L364.5 216.191L378.422 204.108C378.527 204.017 378.685 204.028 378.775 204.132C378.866 204.237 378.855 204.394 378.751 204.485L365.206 216.24L365.807 216.93L382.583 210.315C382.712 210.265 382.857 210.328 382.908 210.456C382.959 210.584 382.896 210.73 382.767 210.78L365.661 217.524Z" fill="#FD7816"/>
<path d="M357.169 218.335C357.001 218.141 357.006 217.847 357.188 217.659C357.381 217.461 357.697 217.456 357.896 217.648C359.595 219.294 361.382 220.698 362.146 221.015C361.915 220.548 361.295 219.729 360.855 219.148C359.604 217.498 358.616 216.194 359.454 215.507C360.243 214.86 361.513 215.991 363.271 217.556C364.04 218.241 365.302 219.365 365.759 219.485C365.765 219.472 365.769 219.455 365.771 219.433C365.896 218.459 363.284 215.283 362.169 213.927C361.994 213.714 362.025 213.398 362.238 213.224C362.452 213.048 362.77 213.072 362.943 213.292C365.897 216.885 366.897 218.525 366.764 219.559C366.722 219.885 366.564 220.157 366.307 220.343C365.564 220.882 364.527 220.014 362.604 218.302C361.889 217.665 360.757 216.657 360.202 216.39C360.404 216.898 361.167 217.905 361.652 218.545C362.853 220.13 363.72 221.274 362.96 221.897C362.2 222.52 360.261 221.332 357.199 218.366C357.188 218.356 357.179 218.345 357.169 218.335Z" fill="#FE653B"/>
<path d="M380.975 213.934C380.561 213.459 380.667 212.974 380.858 212.43C381.014 211.985 381.162 211.564 380.863 211.029C380.555 210.479 380.009 210.209 379.429 209.923C378.531 209.479 377.512 208.974 377.544 207.312C377.571 205.898 377.331 205.026 376.786 204.566C376.283 204.141 375.478 204.04 374.326 204.256C374.19 204.281 374.059 204.191 374.034 204.057C374.009 203.921 374.098 203.791 374.233 203.765C375.543 203.519 376.484 203.656 377.109 204.185C377.777 204.747 378.074 205.745 378.044 207.322C378.018 208.667 378.775 209.041 379.651 209.475C380.273 209.783 380.916 210.102 381.3 210.786C381.709 211.517 381.499 212.115 381.33 212.595C381.108 213.227 380.974 213.608 382.252 214.195C382.378 214.252 382.433 214.401 382.375 214.526C382.318 214.652 382.169 214.707 382.044 214.649C381.52 214.409 381.182 214.173 380.975 213.934Z" fill="#FE653B"/>
<path d="M390.677 203.701C391.452 202.144 388.83 199.268 384.82 197.278C380.811 195.288 376.932 194.937 376.157 196.494C375.382 198.051 378.004 200.927 382.014 202.917C386.023 204.906 389.902 205.258 390.677 203.701Z" fill="#333333"/>
<path d="M31.7486 147.154C39.3183 145.091 43.7798 137.29 41.7136 129.731C39.6474 122.173 31.836 117.718 24.2663 119.781C16.6964 121.844 12.2351 129.644 14.3013 137.203C16.3675 144.762 24.1789 149.217 31.7486 147.154ZM31.0015 144.421C24.9413 146.073 18.6921 142.509 17.0378 136.457C15.3837 130.406 18.9528 124.165 25.0132 122.514C31.0735 120.862 37.3226 124.426 38.9768 130.477C40.631 136.529 37.062 142.769 31.0015 144.421Z" fill="#FE653B"/>
<path d="M28.0074 144.822C34.2873 144.822 39.3781 139.738 39.3781 133.467C39.3781 127.196 34.2873 122.113 28.0074 122.113C21.7275 122.113 16.6366 127.196 16.6366 133.467C16.6366 139.738 21.7275 144.822 28.0074 144.822Z" fill="#FFB03A"/>
<path d="M38.391 142.407C38.391 142.407 58.1549 158.452 58.7228 158.468C60.0617 158.507 61.8399 155.715 61.1292 154.583C60.7109 153.916 40.3529 139.714 40.3529 139.714L38.391 142.407Z" fill="#FE653B"/>
<path d="M25.5706 132.169C27.6099 128.604 27.9869 124.986 26.4126 124.088C24.8384 123.19 21.9091 125.352 19.8698 128.917C17.8306 132.482 17.4536 136.1 19.0278 136.998C20.602 137.896 23.5314 135.734 25.5706 132.169Z" fill="#333333"/>
<path d="M309.727 65.9574L309.36 64.066L330.679 59.9363L313.045 47.2786L314.171 45.7141L335.435 60.9774L309.727 65.9574Z" fill="#FFB03A"/>
<path d="M335.796 64.7283C338.165 63.2135 338.855 60.0683 337.338 57.7031C335.822 55.3379 332.672 54.6485 330.303 56.1632C327.935 57.6779 327.244 60.8232 328.761 63.1883C330.278 65.5535 333.428 66.243 335.796 64.7283Z" fill="#FE653B"/>
<path d="M316.348 50.7682C318.716 49.2534 319.407 46.1082 317.89 43.743C316.373 41.3778 313.223 40.6884 310.854 42.2031C308.486 43.7178 307.795 46.8631 309.312 49.2283C310.829 51.5934 313.979 52.2829 316.348 50.7682Z" fill="#FE653B"/>
<path d="M314.089 67.3394C315.376 64.8422 314.393 61.7755 311.892 60.4897C309.391 59.2039 306.32 60.1859 305.033 62.6831C303.745 65.1803 304.728 68.247 307.229 69.5328C309.73 70.8186 312.801 69.8366 314.089 67.3394Z" fill="#FE653B"/>
<path d="M77.4216 56.8578C78.1518 57.281 79.0682 57.9593 80.1707 58.8925C81.4741 59.9877 82.3634 60.6993 82.8389 61.0275C83.3142 61.3556 83.5757 61.7432 83.6234 62.1901C83.6711 62.6371 83.5497 63.0469 83.259 63.4198C82.9685 63.7927 82.6055 64.0024 82.17 64.0486C81.8313 64.0846 81.4791 63.9938 81.1134 63.7762C80.5921 63.4773 79.4512 62.5848 77.6901 61.0985C76.3453 59.9589 75.0874 59.2314 73.9161 58.9163C72.9608 58.6759 72.4477 58.2235 72.3769 57.5591C72.3125 56.9551 72.6763 56.4096 73.4685 55.9222C74.5355 55.2591 75.6649 54.1497 76.8569 52.5937C78.5232 50.4376 79.5189 49.1928 79.8441 48.859C80.1693 48.5252 80.5135 48.3389 80.8764 48.3003C81.3119 48.254 81.7136 48.3793 82.0816 48.676C82.4496 48.9728 82.6575 49.3446 82.7052 49.7916C82.7489 50.2022 82.6087 50.608 82.2845 51.009C81.2547 52.3643 79.6338 54.3139 77.4216 56.8578Z" fill="#FF643B"/>
<path d="M90.7562 68.3394C90.3086 68.387 89.8995 68.2777 89.5287 68.0119C89.1577 67.7459 88.9485 67.3895 88.9009 66.9425C88.8803 66.7493 88.9008 66.5394 88.9623 66.3131C89.6289 63.6159 91.0081 59.6856 93.0998 54.5223C95.1916 49.3588 96.5762 45.4219 97.2537 42.7114C98.3772 38.2189 99.3461 35.9477 100.16 35.8979C100.609 35.8624 101.019 35.9806 101.391 36.2526C101.762 36.5246 101.971 36.878 102.018 37.3128C102.047 37.5907 102.016 37.9299 101.924 38.3305L100.418 43.4745C99.8454 45.7951 98.9652 48.4967 97.777 51.579L94.6214 59.5001L92.112 67.1143C91.8612 67.8617 91.4093 68.2701 90.7562 68.3394Z" fill="#FF643B"/>
<path d="M118.458 51.5974C118.505 52.0322 118.327 52.4848 117.924 52.9551C115.33 55.9305 112.562 58.5946 109.62 60.9472C109.305 61.2005 108.996 61.3433 108.693 61.3755C108.258 61.4218 107.861 61.2899 107.504 60.9798C107.147 60.6696 106.945 60.2971 106.899 59.8623C106.847 59.3791 107.038 58.9313 107.471 58.5188L113.939 52.4077C112.787 51.8095 111.339 50.8578 109.598 49.5527C107.468 47.9346 106.366 46.7752 106.291 46.0748C106.245 45.6399 106.373 45.2415 106.677 44.8793C106.981 44.5171 107.351 44.3131 107.786 44.2667C108.234 44.2191 108.661 44.3814 109.068 44.7535C112.154 47.5403 114.878 49.3945 117.239 50.3161C117.991 50.6027 118.398 51.0297 118.458 51.5974Z" fill="#FF643B"/>
<path d="M235.641 39.7836C226.711 39.7836 219.445 32.5288 219.445 23.6113C219.445 14.694 226.711 7.43909 235.641 7.43909C244.571 7.43909 251.836 14.6939 251.836 23.6113C251.836 32.5288 244.571 39.7836 235.641 39.7836ZM235.641 12.3975C229.449 12.3975 224.411 17.4281 224.411 23.6113C224.411 29.7946 229.449 34.8252 235.641 34.8252C241.833 34.8252 246.871 29.7946 246.871 23.6113C246.871 17.4281 241.833 12.3975 235.641 12.3975Z" fill="#FF643B"/>
<path d="M220.695 21.0942C220.695 21.0942 216.805 19.9042 215.833 20.4993C214.86 21.0942 215.225 25.4577 215.833 26.4494C216.441 27.441 220.695 26.4494 220.695 26.4494V21.0942Z" fill="#FF643B"/>
<path d="M250.587 21.0942C250.587 21.0942 254.477 19.9042 255.449 20.4993C256.421 21.0942 256.057 25.4577 255.449 26.4494C254.841 27.441 250.587 26.4494 250.587 26.4494V21.0942Z" fill="#FF643B"/>
<path d="M233.12 38.5363C233.12 38.5363 231.928 42.4202 232.524 43.3911C233.12 44.3621 237.49 43.998 238.483 43.3911C239.476 42.7842 238.483 38.5363 238.483 38.5363H233.12Z" fill="#FF643B"/>
<path d="M233.12 8.68648C233.12 8.68648 231.928 4.80252 232.524 3.8316C233.12 2.86068 237.49 3.22469 238.483 3.8316C239.476 4.43851 238.483 8.68648 238.483 8.68648H233.12Z" fill="#FF643B"/>
<path d="M223.29 32.385C223.29 32.385 219.697 34.29 219.431 35.3972C219.164 36.5045 222.512 39.3325 223.644 39.6045C224.776 39.8766 227.082 36.1715 227.082 36.1715L223.29 32.385Z" fill="#FF643B"/>
<path d="M244.427 11.278C244.427 11.278 246.335 7.69011 247.444 7.42424C248.553 7.15836 251.385 10.5013 251.657 11.6316C251.93 12.7619 248.219 15.0645 248.219 15.0645L244.427 11.278Z" fill="#FF643B"/>
<path d="M226.66 11.278C226.66 11.278 224.752 7.69011 223.643 7.42424C222.535 7.15836 219.703 10.5013 219.43 11.6316C219.158 12.7619 222.868 15.0645 222.868 15.0645L226.66 11.278Z" fill="#FF643B"/>
<path d="M247.797 32.385C247.797 32.385 251.39 34.29 251.657 35.3972C251.923 36.5045 248.575 39.3325 247.443 39.6045C246.311 39.8766 244.005 36.1715 244.005 36.1715L247.797 32.385Z" fill="#FF643B"/>
</svg>
